<svg width="196" height="28" viewBox="0 0 196 28" fill="none" xmlns="http://www.w3.org/2000/svg">
<path d="M49.4953 19.135C49.3086 20.1704 48.7726 21.1106 47.9767 21.7987C47.1807 22.4868 46.173 22.8813 45.1215 22.9164C44.6602 22.9306 44.202 22.8374 43.7828 22.6443C43.3637 22.4511 42.9951 22.1633 42.7062 21.8034C42.4173 21.4436 42.216 21.0215 42.118 20.5706C42.02 20.1196 42.0282 19.652 42.1417 19.2047C42.3211 18.1722 42.8502 17.2328 43.6403 16.5442C44.4304 15.8557 45.4333 15.4599 46.4807 15.4234C46.9481 15.392 47.4163 15.4733 47.8458 15.6604C48.2753 15.8475 48.6536 16.135 48.949 16.4987C49.2444 16.8623 49.4481 17.2916 49.5432 17.7503C49.6383 18.2091 49.6218 18.6839 49.4953 19.135ZM50.8893 11.8163L50.5757 13.3498C50.1922 12.6495 49.6058 12.0816 48.8936 11.7208C48.1814 11.3601 47.3767 11.2233 46.5852 11.3284C44.4356 11.4147 42.3823 12.2432 40.7747 13.6728C39.1671 15.1025 38.1046 17.045 37.7679 19.1699C37.0012 23.3694 39.0226 27.0462 43.6752 27.0462C44.5644 27.0792 45.4493 26.9078 46.2619 26.5453C47.0745 26.1828 47.7931 25.6388 48.3626 24.9551L48.0838 26.5234H52.4228L55.1586 11.8686H50.8893V11.8163ZM57.6853 11.8337H61.7803L61.5015 13.3672C61.9472 12.6958 62.562 12.1538 63.284 11.7958C64.006 11.4379 64.8097 11.2767 65.6139 11.3284L64.8123 15.7371C62.7561 15.7371 61.3272 16.1901 60.8567 18.438L59.3581 26.4886H54.9495L57.6853 11.8337Z" fill="#363636"/>
<path d="M68.5587 6.08289L64.7773 26.4882H69.186L70.4929 19.4134H70.5626L73.3855 26.4882H78.3518L74.5182 18.2633L81.227 11.8333H76.0516L70.9808 17.1481H70.9111L72.9673 6.08289H68.5587Z" fill="#363636"/>
<path d="M83.8261 17.5316C84.143 16.783 84.6746 16.1451 85.3539 15.6985C86.0331 15.2519 86.8294 15.0166 87.6423 15.0223C87.9975 14.9807 88.3575 15.0144 88.6988 15.1212C89.0401 15.2281 89.355 15.4057 89.623 15.6425C89.891 15.8793 90.1061 16.1699 90.2543 16.4954C90.4024 16.8209 90.4802 17.174 90.4827 17.5316H83.8261ZM88.2696 11.3281C86.085 11.4449 84.0015 12.2859 82.348 13.7185C80.6946 15.1511 79.5654 17.0936 79.1387 19.2393C78.9096 20.1823 78.9019 21.1654 79.1159 22.1118C79.33 23.0583 79.7601 23.9424 80.3727 24.695C80.9852 25.4476 81.7635 26.0483 82.6468 26.4501C83.5301 26.8519 84.4943 27.0439 85.4641 27.0111C87.0299 26.9992 88.5597 26.5397 89.8728 25.6867C91.3811 24.7509 92.6422 23.4659 93.5496 21.9403H89.0712C88.7111 22.3701 88.2603 22.715 87.7511 22.95C87.2419 23.185 86.6871 23.3043 86.1263 23.2994C85.7454 23.3438 85.3595 23.3037 84.9958 23.1822C84.6321 23.0606 84.2996 22.8606 84.0219 22.5962C83.7442 22.3318 83.528 22.0095 83.3888 21.6522C83.2496 21.2949 83.1907 20.9114 83.2162 20.5288H94.2117C94.3598 20.1586 94.465 19.7728 94.5254 19.3787C95.3618 14.8132 92.748 11.3281 88.2696 11.3281Z" fill="#363636"/>
<path d="M31.931 6.08301L24.1941 17.7058H24.1244V6.08301H20.3779L6.66406 26.4883H11.9788L19.6809 14.8655H19.7506V26.4883H23.532L31.234 14.8655H31.3037V26.4883H35.7124V6.08301H31.931ZM105.658 11.8334H102.888L103.689 7.49447H99.8382L99.5246 9.23702C99.433 9.99769 99.0568 10.6955 98.4717 11.1901C97.8865 11.6847 97.1359 11.9394 96.3706 11.9031L95.7084 15.1443H97.8866L95.7781 26.4883H100.152L102.26 15.1443H105.066L105.658 11.8334Z" fill="#363636"/>
<path d="M177.661 6.1007H182.035L180.71 13.3671C181.163 12.6822 181.792 12.1316 182.531 11.773C183.27 11.4143 184.091 11.2607 184.91 11.3284C185.614 11.29 186.317 11.4183 186.962 11.7029C187.607 11.9876 188.175 12.4205 188.621 12.9663C189.562 14.3952 189.458 15.7022 188.97 18.316L187.471 26.506H183.098L184.561 18.5251C184.701 17.8281 185.119 15.4408 182.819 15.4408C182.045 15.4474 181.301 15.745 180.736 16.2744C180.171 16.8039 179.826 17.5264 179.769 18.2986L178.253 26.4885H173.949L177.661 6.1007ZM159.225 11.8337H156.524L157.273 7.49474H153.422L153.039 9.16759C152.947 9.92826 152.571 10.626 151.986 11.1206C151.4 11.6153 150.65 11.87 149.885 11.8337L149.292 15.1445H151.453L149.362 26.4885H153.736L155.827 15.1445H158.632L159.225 11.8337ZM138.122 22.9163C139.189 22.901 140.217 22.5155 141.031 21.8257C141.845 21.1359 142.393 20.1847 142.583 19.135C142.71 18.6839 142.726 18.209 142.631 17.7503C142.536 17.2915 142.332 16.8623 142.037 16.4986C141.742 16.135 141.363 15.8475 140.934 15.6604C140.504 15.4733 140.036 15.392 139.569 15.4233C138.521 15.4599 137.518 15.8556 136.728 16.5442C135.938 17.2327 135.409 18.1721 135.23 19.2047C135.116 19.652 135.108 20.1195 135.206 20.5705C135.304 21.0215 135.505 21.4435 135.794 21.8034C136.083 22.1633 136.452 22.4511 136.871 22.6442C137.29 22.8374 137.748 22.9305 138.209 22.9163M145.598 26.4014H141.172L141.451 24.8331C140.883 25.5423 140.157 26.1087 139.331 26.4869C138.504 26.8651 137.601 27.0447 136.693 27.0113C132.041 27.0113 130.002 23.3345 130.786 19.135C131.13 17.0193 132.193 15.0871 133.796 13.6647C135.399 12.2423 137.445 11.4171 139.586 11.3284C140.37 11.241 141.162 11.3902 141.861 11.7566C142.56 12.123 143.133 12.6899 143.507 13.3846L143.82 11.8511H148.159L145.598 26.4014ZM137.181 0.873047L128.643 6.1007H131.065L123.328 17.7061V6.1007H119.477L111.74 17.7061V6.1007H107.262V26.4885H111.078L118.815 14.8135V26.4885H122.596L136.345 6.1007H138.506L137.181 0.873047ZM173.531 20.9298C172.796 22.6801 171.575 24.1831 170.012 25.2609C168.45 26.3388 166.611 26.9462 164.714 27.0113C163.72 27.0664 162.727 26.8855 161.817 26.4835C160.906 26.0814 160.104 25.4696 159.475 24.698C158.846 23.9265 158.409 23.0171 158.199 22.0441C157.989 21.0712 158.012 20.0624 158.266 19.1001C158.7 16.948 159.852 15.0069 161.533 13.595C163.214 12.183 165.324 11.3838 167.519 11.3284C168.364 11.2737 169.211 11.3924 170.008 11.6774C170.805 11.9624 171.536 12.4075 172.154 12.9854C172.773 13.5632 173.267 14.2616 173.606 15.0375C173.944 15.8134 174.12 16.6504 174.123 17.497H169.68C169.553 16.8647 169.196 16.3021 168.677 15.9188C168.159 15.5355 167.516 15.3589 166.874 15.4233C165.85 15.4397 164.866 15.8235 164.102 16.5049C163.337 17.1862 162.843 18.1197 162.71 19.135C162.562 19.5714 162.523 20.0372 162.596 20.492C162.669 20.9469 162.851 21.3772 163.127 21.7459C163.403 22.1146 163.765 22.4107 164.181 22.6085C164.597 22.8063 165.055 22.9 165.515 22.8815C166.213 22.8727 166.897 22.6895 167.506 22.3486C168.114 22.0077 168.628 21.52 169 20.9298H173.479H173.531Z" fill="#363636"/>
</svg>
