<svg width="91" height="28" viewBox="0 0 91 28" fill="none" xmlns="http://www.w3.org/2000/svg">
<g clip-path="url(#clip0_192_23643)">
<path fill-rule="evenodd" clip-rule="evenodd" d="M7.48991 28H9.58641V16.8H7.48991V28ZM15.175 27.832H17.0528V20.7655L24.9567 28V16.968H23.0842V23.9137L15.175 16.8V27.832ZM29.2433 25.1195C30.2653 25.9158 31.492 26.376 32.8072 26.376C34.0882 26.376 34.9868 25.935 34.9868 24.9611C34.9868 24.1124 34.4137 23.7799 33.41 23.408L31.7852 22.8436C30.2872 22.3116 29.1479 21.5346 29.1479 19.7487C29.1479 17.8386 30.8725 16.8 32.9349 16.8C34.1984 16.8 35.3499 17.1176 36.2494 17.6803V19.5746C35.314 18.8834 34.2903 18.4074 32.9752 18.4074C31.8429 18.4074 30.9968 18.83 30.9968 19.7111C30.9968 20.5074 31.5279 20.8259 32.4633 21.1461L34.2737 21.7814C36.028 22.3983 36.833 23.3546 36.833 24.9279C36.833 26.9071 35.0918 28 32.8072 28C31.3057 28 30.029 27.58 29.2433 27.0497V25.1195ZM41.7243 28H43.8199V16.8H41.7243V28ZM53.6514 26.3051C56.0139 26.3051 57.2765 24.7896 57.2765 22.3974C57.2765 19.9876 56.013 18.4774 53.6514 18.4774H51.3152V26.3051H53.6514ZM49.4077 16.8H53.7214C57.042 16.8 59.1893 18.9875 59.1893 22.3974C59.1893 25.8099 57.042 28 53.7214 28H49.4077V16.8ZM69.67 16.8V18.4774H64.5977V21.1724H69.1468V22.8305H64.5968V26.3051H69.67V28H62.6832V16.8H69.67ZM77.1093 21.8715H79.1892C80.4203 21.8715 81.1142 21.196 81.1142 20.1574C81.1142 19.1187 80.4203 18.4424 79.1892 18.4424H77.1093V21.8715ZM77.1093 23.4552V28H75.2587V16.8H79.2242C81.4852 16.8 82.9482 17.9646 82.9482 20.1574C82.9482 22.0325 82.1362 23.1096 80.4063 23.3861L84.3412 28H82.2359L78.4262 23.4561H77.1102L77.1093 23.4552ZM6.75753 5.76625C7.57741 5.46613 8.21616 4.56575 8.21616 3.32763C8.21616 1.26437 6.75753 0.195125 4.42391 0.195125H0.503906V11.7127H4.78791C7.12153 11.7127 8.58016 10.5682 8.58016 8.41138C8.58016 7.19162 7.81453 6.12238 6.75753 5.76625ZM2.34491 5.03475V1.88388H4.40641C5.70141 1.88388 6.39353 2.35287 6.39353 3.4405C6.39353 4.52812 5.70053 5.03475 4.40641 5.03475H2.34491ZM2.34491 6.64825H4.75116C6.02866 6.64825 6.72078 7.28525 6.72078 8.33613C6.72078 9.36775 6.02778 10.0249 4.75203 10.0249H2.34578V6.64738L2.34491 6.64825ZM17.1333 11.9C19.8134 11.9 21.6185 10.2865 21.6185 7.13562V0.195125H19.7224V6.90987C19.7224 9.12362 18.8107 10.1561 17.1333 10.1561C15.4559 10.1561 14.545 9.12362 14.545 6.90987V0.195125H12.6489V7.11638C12.6489 10.2865 14.4715 11.9 17.1333 11.9ZM26.0828 10.8868C26.8668 11.4503 28.1434 11.9 29.6379 11.9C31.9173 11.9 33.6489 10.7362 33.6489 8.63625C33.6489 6.96675 32.8474 5.9535 31.0965 5.29725L29.2923 4.62175C28.3622 4.28487 27.8337 3.94712 27.8337 3.10275C27.8337 2.16475 28.6719 1.715 29.8024 1.715C31.1149 1.715 32.136 2.22075 33.0662 2.95312V0.945C32.1728 0.345625 31.0239 0.007875 29.7657 0.007875C27.7059 0.007875 25.9918 1.11475 25.9918 3.14037C25.9918 5.03475 27.1223 5.85988 28.6168 6.4225L30.2399 7.02275C31.2427 7.4165 31.8079 7.7735 31.8079 8.67387C31.8079 9.7055 30.9145 10.1745 29.6379 10.1745C28.3254 10.1745 27.1039 9.68625 26.0828 8.84275V10.8868ZM40.424 0.195125H38.5288V11.7119H40.424V0.195125ZM45.8333 11.6979H47.6603V4.20525L55.3498 11.8764V0.177625H53.528V7.5425L45.8333 0V11.6979ZM67.1982 0.19775V1.92237H62.2754V4.69438H66.6898V6.39975H62.2754V9.97237H67.1982V11.7154H60.4169V0.19775H67.1982ZM71.6125 10.8789C72.3965 11.4424 73.6723 11.8921 75.1677 11.8921C77.4462 11.8921 79.1787 10.7292 79.1787 8.62838C79.1787 6.95888 78.3763 5.9465 76.6263 5.28938L74.8212 4.61475C73.891 4.277 73.3625 3.93925 73.3625 3.09487C73.3625 2.15687 74.2008 1.70712 75.3313 1.70712C76.6438 1.70712 77.6649 2.21375 78.595 2.94525V0.938C77.7017 0.33775 76.5528 0 75.2945 0C73.2348 0 71.5207 1.10687 71.5207 3.1325C71.5207 5.02688 72.6512 5.852 74.1457 6.41462L75.7688 7.01488C76.7715 7.40863 77.3368 7.76562 77.3368 8.666C77.3368 9.69763 76.4443 10.1666 75.1668 10.1666C73.8543 10.1666 72.6328 9.67925 71.6125 8.83488V10.8789ZM83.0628 10.8789C83.8468 11.4424 85.1234 11.8921 86.6179 11.8921C88.8973 11.8921 90.6289 10.7292 90.6289 8.62838C90.6289 6.95888 89.8265 5.9465 88.0765 5.28938L86.2714 4.61475C85.3422 4.277 84.8128 3.93925 84.8128 3.09487C84.8128 2.15687 85.6519 1.70712 86.7815 1.70712C88.094 1.70712 89.116 2.21375 90.0453 2.94525V0.938C89.1528 0.33775 88.0039 0 86.7457 0C84.685 0 82.9718 1.10687 82.9718 3.1325C82.9718 5.02688 84.1023 5.852 85.5968 6.41462L87.2199 7.01488C88.2227 7.40863 88.7879 7.76562 88.7879 8.666C88.7879 9.69763 87.8945 10.1666 86.6179 10.1666C85.3054 10.1666 84.0839 9.67925 83.0628 8.83488V10.8789Z" fill="#363636"/>
</g>
<defs>
<clipPath id="clip0_192_23643">
<rect width="90.125" height="28" fill="white" transform="translate(0.503906)"/>
</clipPath>
</defs>
</svg>
