<svg width="176" height="28" viewBox="0 0 176 28" fill="none" xmlns="http://www.w3.org/2000/svg">
<path d="M162.291 22.1464C161.728 22.7057 160.973 23.5485 160.317 24.3395C159.349 23.5996 158.406 22.9416 157.853 22.5258V7.96372C157.853 7.24622 157.51 6.93192 157.176 6.77372V6.69252L160.534 4.22852L160.585 4.28172V21.3631C161.39 21.8482 161.722 22.0288 162.265 22.0911L162.291 22.1464Z" fill="#363636"/>
<path d="M146.642 11.5899C146.097 12.7729 145.234 13.5401 144.125 13.5401C143.068 13.5401 142.642 13.2398 141.823 12.4565L141.578 12.6994V20.9832C142.828 21.6937 143.306 21.9548 143.691 21.9548C144.013 21.9548 144.263 21.7931 144.636 21.4144L144.828 21.6055C143.866 22.5512 142.972 23.4927 142.203 24.339C141.083 23.5263 139.989 22.7759 138.846 22.0101V13.2951C138.452 12.9269 137.839 12.4229 137.305 12.2941L137.277 12.2388L139.117 10.1836C140.028 10.9403 140.703 11.5178 141.661 12.2129C142.464 11.4954 143.026 10.9466 143.747 10.2095C144.357 10.9746 145.476 11.4457 146.615 11.508L146.642 11.5899Z" fill="#363636"/>
<path d="M117.847 3.90357C117.129 5.53387 116.238 6.50127 115.057 6.50127C114.498 6.50127 113.365 5.93427 112.568 5.93427C111.672 5.93427 110.995 6.21217 110.483 7.12497L110.375 7.01647C110.605 4.76667 111.95 3.71387 113.515 3.71387C114.489 3.71387 115.453 4.31027 116.304 4.31027C116.821 4.31027 117.29 4.17937 117.791 3.79507L117.847 3.90357Z" fill="#363636"/>
<path d="M128.889 4.06763C128.689 5.06863 127.895 5.97233 127.075 6.39513V21.2526C127.87 21.4626 128.271 21.6355 128.861 22.0401L126.696 24.3396C125.891 23.6074 124.923 23.2833 123.962 23.2833C122.595 23.2833 121.567 23.7656 120.902 24.2297L120.877 24.1233C121.324 22.2207 122.831 21.1168 124.043 21.0104V14.4871H119.01V21.5249C119.168 21.6019 119.306 21.6614 119.47 21.6614C119.74 21.6614 120.1 21.3002 120.363 20.9285L120.578 21.1168C119.925 21.9078 118.776 23.2217 117.953 24.3396C116.698 23.501 115.67 23.1734 114.029 23.1734C112.629 23.1734 111.415 23.5192 110.539 24.0673L110.484 23.9315C111.291 21.9554 112.778 20.6562 115.41 20.6562C116.589 20.6562 117.507 20.8956 118.659 21.3884V3.41803H119.01V11.9419H124.043V6.52953C123.194 6.33283 122.465 5.99193 121.961 5.47323C122.627 4.82363 123.418 3.97733 124.043 3.28223C124.771 3.91293 125.695 4.33853 126.833 4.33853C127.517 4.33853 128.22 4.21883 128.834 3.95913L128.889 4.06763Z" fill="#363636"/>
<path d="M117.714 6.50144C117.429 7.01874 117.309 7.74884 117.309 9.42464V15.7043C117.309 17.7161 115.836 19.3716 113.815 19.9792L113.684 19.898C114.064 19.5599 114.304 18.9782 114.304 18.3307V14.4863H113.6C112.519 14.4863 112.118 15.0253 112.004 15.6238H111.923C111.612 15.3683 111.273 14.9028 111.273 14.0523C111.273 12.8175 112.249 11.9418 113.654 11.9418H114.304V10.5621C114.304 8.24374 115.722 7.01664 117.632 6.44824L117.714 6.50144Z" fill="#363636"/>
<path d="M106.302 6.55652C105.857 7.01642 105.4 7.53372 104.786 8.26242C104.276 7.81722 103.591 7.33352 102.891 6.80012C103.386 6.27722 103.902 5.72912 104.462 5.04102C105.054 5.55622 105.685 6.08192 106.302 6.55652Z" fill="#363636"/>
<path d="M107.9 22.117C107.9 22.117 107.19 22.9262 106.007 24.3395C105.262 23.7508 104.3 23.048 103.543 22.5258V12.9442C103.001 12.5137 102.721 12.3464 102.436 12.2946L102.406 12.2393L104.221 10.21C104.929 10.7581 105.542 11.2054 106.277 11.7262V21.3631C107.029 21.8188 107.555 22.0246 107.874 22.0659L107.9 22.117Z" fill="#363636"/>
<path d="M102.35 22.0918C102.35 22.0918 101.82 22.6658 100.455 24.3402C99.6381 23.6962 98.8639 23.1299 97.9924 22.5265V13.4048L95.8273 12.0783L94.7178 12.9708V22.0407C95.1098 22.2836 95.5011 22.5265 95.5011 22.5265C95.0027 22.9934 94.0535 23.895 93.6083 24.3402C92.9237 23.7921 91.9836 23.0676 91.9836 23.0676V13.3243L90.0628 11.9978L88.7083 13.0793V22.04C88.9554 22.2017 89.2445 22.3823 89.4664 22.4957C88.828 23.0991 88.1623 23.7396 87.5995 24.3395C87.0255 23.8761 86.3892 23.3644 85.9748 23.0669V13.3243C85.0823 12.5382 84.7841 12.3695 84.3249 12.3212L84.2969 12.268C84.9409 11.6226 85.6563 10.8862 86.2198 10.2114C87.0738 10.8862 88.0118 11.6443 89.0072 12.4045C89.8059 11.7829 90.7054 11.0871 91.7666 10.2394C92.6367 10.8687 93.8267 11.6982 94.7983 12.4045C95.7216 11.6723 96.5854 10.9765 97.4793 10.1855C98.2626 10.7301 100.005 11.7738 100.724 12.2407V21.3638C101.301 21.7348 101.816 21.9777 102.321 22.0407L102.35 22.0918Z" fill="#363636"/>
<path d="M72.2801 6.55652C71.8349 7.01642 71.3785 7.53372 70.766 8.26242C70.2564 7.81722 69.5718 7.33352 68.8711 6.80012C69.3639 6.27722 69.8847 5.72912 70.4405 5.04102C71.0348 5.55622 71.6655 6.08192 72.2801 6.55652Z" fill="#363636"/>
<path d="M73.8732 22.117C73.8732 22.117 73.1634 22.9262 71.9797 24.3395C71.2349 23.7508 70.2724 23.048 69.5164 22.5258V12.9442C68.9739 12.5137 68.6939 12.3464 68.4069 12.2946L68.3789 12.2393L70.1933 10.21C70.9017 10.7581 71.5142 11.2054 72.2499 11.7262V21.3631C73.0024 21.8188 73.5288 22.0246 73.8466 22.0659L73.8732 22.117Z" fill="#363636"/>
<path d="M50.8478 3.82263C50.1303 5.45293 49.214 6.42033 48.0331 6.42033C47.4717 6.42033 46.3419 5.85193 45.5439 5.85193C44.6479 5.85193 43.971 6.13123 43.4593 7.04403L43.3242 6.96283C43.5524 4.71093 44.923 3.63293 46.4889 3.63293C47.4619 3.63293 48.4279 4.22933 49.2763 4.22933C49.7971 4.22933 50.2682 4.03823 50.6854 3.74213L50.8478 3.82263Z" fill="#363636"/>
<path d="M31.5284 22.1723C30.9712 22.7281 30.3286 23.5002 29.6055 24.3395C28.7459 23.6843 27.705 22.908 27.1415 22.5258V13.7828C26.4331 13.2221 25.675 12.6936 24.9232 12.1581C24.5221 12.506 24.2204 12.7839 23.8669 13.1059V22.0393C24.1077 22.2199 24.303 22.3375 24.5991 22.495L22.7595 24.3388C22.0553 23.7613 21.4463 23.3343 21.1075 23.0662V7.99097C21.1075 7.33087 20.9311 6.88357 20.5391 6.66447V6.58397L23.8158 4.20117L23.8676 4.22917V12.6467L26.6291 10.2107C27.6518 10.9744 28.734 11.708 29.8764 12.3758V21.3631C30.484 21.7677 31.0377 22.04 31.4752 22.117L31.5284 22.1723Z" fill="#363636"/>
<path d="M172.008 20.4949C169.925 21.6618 168.328 22.9568 166.865 24.34C165.726 23.4643 164.32 22.5151 163.211 21.7682V12.594C164.411 11.9409 165.739 11.2199 167.272 10.3197L164.159 7.17952C163.562 6.57962 163.128 6.25763 162.67 6.09803L162.645 6.04272C163.589 5.36582 164.367 4.75332 164.998 4.20312C166.201 5.44282 168.892 8.19943 172.008 11.3767V20.4949ZM169.274 21.8494V12.3217L167.461 10.5626C166.853 10.9525 166.406 11.1772 165.947 11.4551V20.3885C166.74 20.9772 168.091 21.8641 168.788 22.2281L169.274 21.8494Z" fill="#363636"/>
<path d="M156.387 22.3083L154.68 24.3096C153.767 23.6033 153.068 23.0699 151.895 22.2012C150.712 22.8823 150.088 23.3268 148.484 24.339C147.082 23.548 146.102 22.1613 146.102 20.251C146.102 18.7236 147.065 17.4286 148.97 16.7335C148.116 16.1224 147.775 15.9201 147.051 15.5701V12.6189C148.669 11.8076 149.655 11.2574 151.191 10.2109C152.449 11.0495 153.397 11.655 154.953 12.7001V21.5509C155.704 22.0885 156.057 22.232 156.361 22.2537L156.387 22.3083ZM152.218 16.7041V13.8642C151.183 13.1173 150.472 12.6133 149.269 11.8076L149.105 11.9161V16.7041C149.616 16.5718 150.222 16.4864 150.539 16.4864C151.242 16.4871 151.744 16.5795 152.218 16.7041ZM152.218 21.6055V17.1122C151.824 16.9911 151.324 16.8952 150.649 16.8952C149.293 16.8952 148.834 17.9515 148.834 19.3571C148.834 20.8845 149.359 22.0178 150.379 22.687L152.218 21.6055Z" fill="#363636"/>
<path d="M137.365 14.4324L132.548 17.4102V20.9025C133.819 21.6781 134.281 21.984 134.685 21.984C135.052 21.984 135.338 21.6529 135.984 21.0089L136.2 21.2259C135.175 22.2087 134.143 23.2132 133.142 24.3388C132.088 23.5695 130.863 22.705 129.812 22.0099V13.4041C131.215 12.5669 133.514 11.0367 134.659 10.21C135.407 11.463 136.297 12.8266 137.365 14.4324ZM134.901 15.5699C134.19 14.4051 133.336 12.9113 132.763 11.8879L132.547 12.0223V17.0315L134.901 15.5699Z" fill="#363636"/>
<path d="M84.5156 22.3083L82.8097 24.3096C81.8955 23.6033 81.1962 23.0699 80.0223 22.2012C78.8393 22.8823 78.2177 23.3268 76.6112 24.339C75.2112 23.548 74.2305 22.1613 74.2305 20.251C74.2305 18.7236 75.1944 17.4286 77.0991 16.7335C76.2437 16.1224 75.9035 15.9201 75.1783 15.5701V12.6189C76.796 11.8076 77.7837 11.2574 79.3181 10.2109C80.5788 11.0495 81.5259 11.655 83.0806 12.7001V21.5509C83.8331 22.0885 84.1845 22.232 84.4883 22.2537L84.5156 22.3083ZM80.3478 16.7041V13.8642C79.3118 13.1173 78.574 12.6133 77.3693 11.8076L77.2349 11.9161V16.7041C77.7445 16.5718 78.35 16.4864 78.6699 16.4864C79.3692 16.4871 79.8718 16.5795 80.3478 16.7041ZM80.3478 21.6055V17.1122C79.9537 16.9911 79.4518 16.8952 78.7763 16.8952C77.4204 16.8952 76.964 17.9515 76.964 19.3571C76.964 20.8845 77.4869 22.0178 78.5061 22.687L80.3478 21.6055Z" fill="#363636"/>
<path d="M68.3795 21.9548C68.3795 21.9548 66.8577 23.3863 65.8903 24.339C65.0181 23.548 63.7728 22.5799 62.7242 21.7672C61.9311 22.3636 59.9606 23.7979 59.2872 24.3649C58.4094 23.7321 57.1585 23.1469 55.3889 23.1469C54.2003 23.1469 53.3519 23.5515 52.6827 24.0114L52.6288 23.8791C52.969 22.8305 53.9791 21.6195 55.2265 21.0091V14.4858H51.6537V21.4396C51.6537 23.2792 50.4672 24.3908 48.5408 24.3908C47.1884 24.3908 45.9228 23.7174 44.6166 23.7174C43.2887 23.7174 42.7329 24.0849 42.2359 24.689L42.0742 24.6372C42.1806 22.54 43.2943 21.252 45.3488 21.252C46.6753 21.252 48.1215 21.9037 49.5439 21.9037C50.8025 21.9037 51.303 21.4809 51.303 20.1964V5.90663C50.6814 6.25453 50.4329 6.42393 50.0045 6.66473V16.7846C50.0045 18.963 48.1369 20.0445 45.9991 20.251L45.9711 20.1957C46.5339 19.8464 46.9721 18.9742 46.9721 17.815V14.4865H46.5108C45.4293 14.4865 45.0282 15.0528 44.9141 15.6513L44.8329 15.624C44.5221 15.3685 44.156 14.903 44.156 14.0525C44.156 12.8177 45.1605 11.942 46.5647 11.942H46.9714V10.4279C46.9714 8.50713 48.1894 7.34443 49.9226 6.33993L55.3889 3.17383C56.4522 3.94523 57.8025 4.92733 58.9085 5.66303L63.1309 3.25503C63.8666 4.10483 64.6436 4.74533 66.0247 4.74533C66.7513 4.74533 67.3883 4.62003 67.7579 4.47303L67.8111 4.55563C67.6641 5.48873 67.1671 6.35673 66.269 6.85513V20.9034C67.1559 21.4767 67.8237 21.8932 68.3536 21.9044L68.3795 21.9548ZM63.2653 11.942V6.77393C62.0879 6.51423 61.2913 5.86883 60.6123 5.04073L59.8262 5.52793V11.942H63.2653ZM59.4762 21.2261V5.68963L58.2309 6.41973V20.8467C58.7188 20.9279 59.0128 21.0721 59.4762 21.2261ZM55.1992 11.942V6.71863C55.1992 6.71863 53.6445 5.59793 52.8444 5.01273L51.6544 5.71763V11.942H55.1992ZM63.2653 20.9545V14.4865H59.8262V21.3332C60.7152 21.819 61.11 22.0661 61.6147 22.0661C61.8912 22.0661 62.174 21.8344 62.426 21.6314C62.426 21.6314 62.9615 21.1932 63.2653 20.9545Z" fill="#363636"/>
<path d="M40.0268 14.4324L35.2087 17.4102V20.9025C36.482 21.6781 36.944 21.984 37.3486 21.984C37.7168 21.984 38.0017 21.6529 38.6471 21.0089L38.8627 21.2259C37.8379 22.2087 36.8334 23.2132 35.8324 24.3388C34.7761 23.5695 33.5231 22.705 32.4766 22.0099V13.4041C33.8766 12.5669 36.1768 11.0367 37.3192 10.21C38.0696 11.463 38.9593 12.8266 40.0268 14.4324ZM37.5635 15.5699C36.853 14.4051 35.9962 12.9113 35.4257 11.8879L35.2087 12.0223V17.0315L37.5635 15.5699Z" fill="#363636"/>
<path d="M20.0801 19.2508C19.1638 22.4477 16.6158 24.8256 12.259 24.8256C7.32611 24.8256 4.27411 21.3739 4.27411 16.5166C4.27411 13.0348 6.58341 9.80637 10.3641 8.39657L10.4978 8.47777C9.38901 9.73077 8.45031 10.7941 7.87421 12.43L13.0969 10.1298V16.5425C13.0969 16.8148 13.2572 17.2271 13.3951 17.3811V17.4364C12.2086 18.0916 9.76911 19.4342 8.73871 19.9795C9.93291 21.495 11.6276 22.4183 13.9362 22.4183C14.5375 22.4183 15.0233 22.3595 15.6953 22.2013V8.69407C14.5256 8.60727 12.945 8.10187 11.6878 7.74837C10.1709 7.31857 8.57561 6.88037 7.44091 6.88037C5.95831 6.88037 4.92371 7.28357 4.92371 8.58627C4.92371 9.03357 5.07491 9.43397 5.30311 9.80427L5.14141 9.83227C4.50231 9.33457 4.00391 8.54707 4.00391 7.55937C4.00391 4.91197 6.26701 3.93127 8.68621 3.93127C9.67251 3.93127 11.1754 4.35827 12.7175 4.82517C13.8256 5.15837 15.6449 5.77297 16.7782 5.77297C17.761 5.77297 18.2412 5.32567 18.2412 4.60817C18.2412 3.99567 18.0424 3.65897 17.5895 3.30967L17.7533 3.20117C18.874 3.58057 19.7294 4.52627 19.7294 5.88007C19.7294 7.66437 18.6955 8.69477 16.0481 8.69477V22.1173C17.8436 21.5909 19.0637 20.3141 20.0003 19.1444L20.0801 19.2508ZM10.1198 18.8714V11.8336C9.36311 12.1738 8.48741 12.5308 7.71111 12.8892C7.52001 13.6508 7.44091 14.3816 7.44091 15.2181C7.44091 17.0101 7.75171 18.4479 8.57841 19.7107C9.09291 19.4349 9.72081 19.0996 10.1198 18.8714Z" fill="#363636"/>
</svg>
