<svg width="93" height="21" viewBox="0 0 93 21" fill="none" xmlns="http://www.w3.org/2000/svg">
<path d="M74.843 10.5061L74.3147 10.6498C73.8068 8.92472 72.9562 8.17933 71.755 8.17933C70.9112 8.17933 70.3175 8.73532 70.3175 9.61692C70.3175 10.4608 71.0176 10.9108 72.8979 11.6756C74.6338 12.3138 75.3544 13.0959 75.3544 14.4616C75.3544 16.5407 73.7213 17.8446 71.0416 17.8446C69.7478 17.8446 68.2901 17.5564 67.4663 17.2272L67.3636 14.3383L67.8714 14.2355C68.6333 16.2122 69.6073 16.9598 70.877 16.9598C71.975 16.9598 72.5518 16.1979 72.5518 15.4158C72.5518 14.6338 72.1062 14.1806 70.3904 13.5631C68.7573 13.024 67.6389 12.3279 67.6389 10.592C67.6389 8.88339 69.1411 7.43537 71.7011 7.43537C72.9087 7.43537 74.0067 7.64131 74.7273 7.97447L74.843 10.5061ZM63.7879 11.4118C63.8497 10.0532 63.5751 8.09092 62.4567 8.09092C61.3066 8.09092 60.6795 9.92313 60.659 11.4944L63.7879 11.4118ZM62.7313 7.43178C65.5446 7.43178 66.9003 9.49041 66.924 12.1938H60.5972C60.5767 14.5885 61.8461 16.4002 64.2199 16.4002C65.2561 16.4002 65.853 16.112 66.4841 15.6591L66.7788 15.9883C66.0791 16.9353 64.6379 17.841 62.7165 17.841C59.6286 17.841 57.4873 15.7206 57.4873 12.7289C57.4801 10.0252 59.2376 7.43142 62.7298 7.43142M53.6047 12.4414C53.5429 10.3005 52.7609 8.60557 51.2579 8.60557C50.901 8.60557 50.6264 8.66739 50.2012 8.81151L50.3249 17.0392C50.4758 17.101 50.8327 17.142 51.0868 17.142C52.5485 17.142 53.6051 15.0765 53.6051 12.4411M56.7412 12.2765C56.7412 15.6595 54.6003 17.8414 50.9837 17.8414C49.6898 17.8414 48.3554 17.6354 47.1956 17.368C47.2984 16.0095 47.2984 7.59243 47.1956 6.01108C47.0928 5.18447 46.8592 4.79632 46.2252 4.71725L45.7997 4.67592V4.29855L50.2627 3.47266C50.2422 4.1724 50.2009 6.01144 50.2009 8.17358C50.9833 7.78255 51.7032 7.55613 52.6782 7.55613C55.0046 7.55613 56.7405 9.53282 56.7405 12.2772M45.3706 10.4378C43.9912 9.5321 42.5091 9.92313 42.214 10.4378C42.0835 12.0191 42.1112 14.463 42.2345 15.7148C42.2963 16.5414 42.5292 16.8883 43.1678 16.9501L44.0117 17.0327V17.5718H37.7053V17.0327L38.1927 16.9501C38.8037 16.8883 39.0193 16.5382 39.0574 15.7148C39.2083 14.3768 39.2497 11.5702 39.0574 10.0263C39.0161 9.14108 38.8037 8.81151 38.1927 8.73244L37.7053 8.67063V8.30045L42.2136 7.43573L42.1518 9.74127C43.2084 7.35343 45.3084 7.0652 46.4473 7.70349L45.3706 10.4378ZM30.576 12.6474C30.576 15.1657 31.2588 17.2243 32.6245 17.2243C34.1067 17.2243 34.5322 15.207 34.5322 12.6474C34.5322 10.0877 33.8767 8.09092 32.4833 8.09092C30.9943 8.09092 30.576 10.0468 30.576 12.6474ZM37.7258 12.606C37.7258 15.4949 35.8181 17.8417 32.4146 17.8417C29.0661 17.8417 27.378 15.6117 27.378 12.688C27.378 9.81998 29.2857 7.43178 32.6892 7.43178C36.0377 7.43178 37.7258 9.67586 37.7258 12.606ZM28.9633 7.64167L28.2636 7.8476C27.6735 5.82348 26.6305 4.67053 24.8324 4.67053H22.4856C22.3551 6.0154 22.2933 8.09451 22.3551 10.3382L23.9196 10.2556C24.9762 10.2556 25.4218 9.49365 25.6763 8.38239H26.2664V13.0617H25.6763C25.4226 11.9296 24.9766 11.1569 23.9196 11.0994L22.3551 11.0789C22.3551 12.7466 22.3756 14.1698 22.4856 15.0384C22.5884 16.2737 22.9312 16.8361 23.8369 16.9529L24.688 17.0356V17.5747H17.0234V17.0356L17.6617 16.9529C18.5469 16.8293 18.9106 16.2701 19.0131 15.0384C19.1845 13.0211 19.2258 8.7116 19.0131 6.31693C18.9103 5.04107 18.5466 4.52605 17.6617 4.4229L17.0234 4.32012V3.76377H28.9432L28.9633 7.64167Z" fill="#363636"/>
</svg>
