<svg width="121" height="21" viewBox="0 0 121 21" fill="none" xmlns="http://www.w3.org/2000/svg">
<g clip-path="url(#clip0_192_12780)">
<path d="M26.2031 4.37524H28.5994V9.699H33.6532V4.37524H36.0525V17.4434H33.6532V12.0079H28.5994V17.4434H26.2031V4.37524Z" fill="#363636"/>
<path d="M43.6407 13.1869C43.6407 14.2808 42.7494 15.171 41.6558 15.171C40.5617 15.171 39.6709 14.2808 39.6709 13.1869V7.56055H37.3984V13.1869C37.3984 15.5341 39.3084 17.4434 41.6558 17.4434C44.0026 17.4434 45.9124 15.5341 45.9124 13.1869V7.56055H43.6407V13.1869Z" fill="#363636"/>
<path d="M52.2663 7.62628C51.1391 7.62628 50.3522 7.95339 49.5924 8.6993V4.375H47.3125V12.3891C47.3125 15.3888 49.4814 17.4432 51.918 17.4432C54.6269 17.4432 57.0003 15.3522 57.0003 12.5349C57.0003 9.75326 54.8117 7.62628 52.2663 7.62628ZM52.323 15.3341C50.7781 15.3341 49.5968 14.0439 49.5968 12.5349C49.5968 11.0256 50.7781 9.735 52.323 9.735C53.632 9.735 54.814 11.0256 54.814 12.5349C54.814 14.0439 53.632 15.3341 52.323 15.3341Z" fill="#363636"/>
<path d="M60.8209 8.19982C60.8209 7.05378 61.5845 6.69043 62.4205 6.69043C63.0935 6.69043 63.9841 7.19942 64.5653 7.81768L66.0556 6.07257C65.3108 5.07284 63.8022 4.38184 62.566 4.38184C60.0933 4.38184 58.3117 5.81808 58.3117 8.19982C58.3117 12.6173 63.7476 11.217 63.7476 13.69C63.7476 14.4527 63.0025 15.126 62.1485 15.126C60.8027 15.126 60.3662 14.4715 59.7484 13.7805L58.0938 15.4891C59.1488 16.78 60.4572 17.4347 62.0209 17.4347C64.3658 17.4347 66.2566 15.9804 66.2566 13.7076C66.2566 8.79942 60.8209 10.3267 60.8209 8.19982Z" fill="#363636"/>
<path d="M72.2618 7.49902C69.8254 7.49902 67.6562 9.55218 67.6562 12.5526V20.5873H69.936V16.2425C70.696 16.9879 71.4824 17.3155 72.6101 17.3155C75.1553 17.3155 77.3442 15.1888 77.3442 12.4072C77.3442 9.58949 74.9701 7.49902 72.2618 7.49902ZM72.6669 15.2071C71.1222 15.2071 69.9407 13.9151 69.9407 12.4072C69.9407 10.898 71.1222 9.60735 72.6669 9.60735C73.9756 9.60735 75.1577 10.898 75.1577 12.4072C75.1577 13.9151 73.9756 15.2071 72.6669 15.2071Z" fill="#363636"/>
<path d="M94.1282 15.3333C92.7835 15.3333 92.4018 14.7518 92.4018 13.8607V9.91598H94.492V7.91651H92.4018V5.28027L90.0938 6.31625V14.3515C90.0938 16.406 91.5112 17.4424 93.4555 17.4424C93.7464 17.4424 94.1468 17.4236 94.3652 17.3698L94.9288 15.2976C94.6743 15.3152 94.3835 15.3333 94.1282 15.3333Z" fill="#363636"/>
<path d="M88.1138 10.0332C87.6768 9.28123 87.062 8.67841 86.2934 8.22459C85.7191 7.89022 85.1235 7.67801 84.4523 7.58687V5.19761C85.1235 4.91264 85.54 4.2819 85.54 3.54606C85.54 2.54311 84.7357 1.73036 83.7336 1.73036C82.7306 1.73036 81.9122 2.54311 81.9122 3.54606C81.9122 4.2819 82.3047 4.91264 82.9758 5.19761V7.58794C82.4389 7.66553 81.8821 7.83291 81.3737 8.09009C80.3352 7.30136 76.9298 4.71385 74.9377 3.20257C74.985 3.03224 75.0213 2.85667 75.0213 2.67143C75.0213 1.56056 74.1217 0.660156 73.0105 0.660156C71.8992 0.660156 71 1.56056 71 2.67143C71 3.78217 71.9001 4.68284 73.0114 4.68284C73.3905 4.68284 73.7411 4.57197 74.0436 4.38969L74.464 4.70861L80.2407 8.87076C79.9353 9.15116 79.6509 9.47009 79.4234 9.82794C78.9623 10.5575 78.6805 11.3602 78.6805 12.2357V12.4184C78.6805 13.033 78.7973 13.6133 78.9962 14.1584C79.1714 14.6344 79.4275 15.0671 79.7447 15.4584L77.8275 17.3803C77.6574 17.3176 77.4788 17.2832 77.2923 17.2832C76.8773 17.2832 76.4881 17.4454 76.1945 17.7384C75.9007 18.0322 75.7397 18.4224 75.7397 18.8377C75.7399 19.2529 75.9016 19.6431 76.1953 19.9367C76.4889 20.2304 76.8791 20.3922 77.2944 20.3922C77.7097 20.3922 78.1 20.2304 78.3938 19.9367C78.687 19.6431 78.8489 19.2528 78.8489 18.8377C78.8489 18.6771 78.824 18.5203 78.7773 18.3713L80.7589 16.3894C81.0306 16.5771 81.324 16.7351 81.6395 16.8713C82.2616 17.1403 82.9483 17.3042 83.6999 17.3042H83.8376C84.6685 17.3042 85.4522 17.109 86.189 16.7098C86.9654 16.2879 87.573 15.711 88.0321 14.9745C88.4936 14.236 88.7477 13.42 88.7477 12.5223V12.4775C88.7477 11.5944 88.5432 10.7796 88.1138 10.0332ZM85.6926 14.1906C85.1548 14.7883 84.5365 15.1565 83.8376 15.1565H83.7224C83.3232 15.1565 82.9328 15.0462 82.5505 14.8455C82.1196 14.6246 81.7921 14.3094 81.524 13.9104C81.247 13.5187 81.0966 13.091 81.0966 12.6376V12.4999C81.0966 12.0541 81.1821 11.6314 81.3977 11.2322C81.6282 10.7959 81.9395 10.4565 82.3534 10.1867C82.7599 9.91881 83.194 9.78741 83.6774 9.78741H83.7224C84.1608 9.78741 84.5758 9.87385 84.9675 10.0743C85.3666 10.2879 85.6926 10.5799 85.9454 10.9639C86.1909 11.3481 86.3369 11.7624 86.3839 12.2138C86.3913 12.3077 86.395 12.4038 86.395 12.4956C86.395 13.1082 86.1609 13.6756 85.6926 14.1906Z" fill="#363636"/>
</g>
<defs>
<clipPath id="clip0_192_12780">
<rect width="120" height="20" fill="white" transform="translate(0.375 0.660156)"/>
</clipPath>
</defs>
</svg>
