<svg width="150" height="28" viewBox="0 0 150 28" fill="none" xmlns="http://www.w3.org/2000/svg">
<path d="M15.2996 22.9673H21.125L24.253 5.07533H18.4169L17.2656 11.4747H12.2116L13.3634 5.07579H7.52863L4.4043 22.9673H10.2344L11.4104 16.2735H16.4653L15.2996 22.9673ZM27.5496 5.05433L25.7762 15.0083C25.6293 15.7458 25.5556 16.4959 25.556 17.2479C25.556 22.5235 30.1774 23.3229 32.9396 23.3229C38.7482 23.3229 41.2546 21.3928 42.1609 16.1848L44.1209 5.02213H38.2815L36.6286 14.3891C36.0952 17.3151 35.7186 18.8467 33.5467 18.8467C32.1248 18.8467 31.4467 18.093 31.4467 16.5395C31.4652 15.7863 31.5544 15.0364 31.7132 14.2999L33.4016 5.02166H27.5542L27.5496 5.05433ZM74.9256 22.9673H80.7556L81.577 18.3459H84.3247C89.4011 18.3459 92.2114 15.5982 92.2114 10.5853C92.2114 7.05866 89.7726 5.04313 85.4928 5.04313H78.0275L74.9256 22.9673ZM84.0153 13.9453H82.3353L83.11 9.73266H84.685C85.972 9.73266 86.658 10.3767 86.658 11.5494C86.658 13.0353 85.6594 13.9453 84.0204 13.9453H84.0153ZM103.549 4.66699C97.2024 4.66699 93.4224 8.77366 93.4224 15.6617C93.4224 20.4497 96.437 23.3337 101.492 23.3337C107.83 23.3337 111.609 19.2419 111.609 12.339C111.642 7.51133 108.63 4.66699 103.555 4.66699H103.549ZM101.843 18.7015C100.336 18.7015 99.447 17.6142 99.447 15.797C99.4475 15.1343 99.5142 14.4735 99.6463 13.8239C100.091 11.4743 100.844 9.32339 103.201 9.32339C104.709 9.32339 105.597 10.4107 105.597 12.2279C105.597 12.8906 105.53 13.5514 105.398 14.201C104.968 16.5343 104.214 18.7015 101.843 18.7015ZM131.899 22.9669H137.73L140.04 9.86379H144.43L145.272 5.07579H130.342L129.499 9.86379H134.157L131.899 22.9669ZM122.238 11.6843C120.396 11.1084 119.643 10.8629 119.643 10.0043C119.643 9.42839 120.02 8.74239 121.129 8.74239C121.507 8.73102 121.88 8.83514 122.197 9.0409C122.515 9.24665 122.762 9.54428 122.906 9.89413L128.05 8.49693C127.448 5.96899 125.274 4.67166 121.526 4.67166C114.481 4.67166 113.923 9.40366 113.923 10.8466C113.923 13.7726 115.477 15.5674 118.846 16.4989C119.731 16.7443 120.751 17.0122 120.751 17.9847C120.751 18.7594 120.175 19.2466 119.176 19.2466C118.209 19.2583 117.334 18.6773 116.969 17.7822L111.893 19.1579C112.447 21.817 114.954 23.3243 118.874 23.3243C121.867 23.3243 126.876 22.5245 126.876 17.1177C126.89 14.411 125.361 12.6377 122.237 11.6894L122.238 11.6843ZM47.4356 5.05433L44.3108 22.9673H50.1409L51.0724 17.6917H55.971L56.7708 13.1911H51.869L52.4234 9.86379H59.274L60.1164 5.05386L47.4356 5.05433ZM62.733 5.05433L59.6082 22.9673H65.4382L66.3482 17.6917H71.2683L72.0682 13.1911H67.1696L67.724 9.86379H74.57L75.4123 5.05386L62.733 5.05433Z" fill="#363636"/>
</svg>
