<svg width="362" height="32" viewBox="0 0 362 32" fill="none" xmlns="http://www.w3.org/2000/svg">
<rect x="0.550781" width="361.45" height="32" rx="6" fill="#2B2B2B"/>
<g clip-path="url(#clip0_192_30604)">
<rect x="4.55078" y="4" width="38.4" height="24" rx="3.30357" fill="white"/>
<g clip-path="url(#clip1_192_30604)">
<path d="M42.6113 4.68457H6.20963C5.33554 4.68457 4.62695 5.39316 4.62695 6.26725V26.8421C4.62695 27.7162 5.33554 28.4248 6.20963 28.4248H42.6113C43.4854 28.4248 44.194 27.7162 44.194 26.8421V6.26725C44.194 5.39316 43.4854 4.68457 42.6113 4.68457Z" fill="white"/>
<path fill-rule="evenodd" clip-rule="evenodd" d="M21.0437 20.3321L22.2604 12.7851H24.2051L22.9885 20.3321H21.0437ZM30.0425 12.9699C29.6579 12.8187 29.0533 12.6533 28.2999 12.6533C26.377 12.6533 25.0238 13.6777 25.0127 15.1441C25.0004 16.229 25.9781 16.834 26.7157 17.1944C27.4734 17.5644 27.7282 17.8006 27.725 18.1314C27.7199 18.6366 27.1201 18.8681 26.561 18.8681C25.7827 18.8681 25.3688 18.7542 24.729 18.4724L24.4793 18.3522L24.2071 20.0417C24.6606 20.2518 25.501 20.4342 26.3738 20.4441C28.4171 20.4441 29.7449 19.4319 29.7604 17.8659C29.7675 17.0057 29.2492 16.3536 28.127 15.8155C27.4473 15.4654 27.0302 15.2339 27.035 14.8794C27.0354 14.566 27.3871 14.2301 28.1492 14.2301C28.6497 14.2188 29.1465 14.3178 29.6045 14.5201L29.779 14.6063L30.0425 12.9699ZM32.6317 17.6562C32.7932 17.2225 33.4065 15.5469 33.4065 15.5469C33.3954 15.5666 33.5667 15.1096 33.6648 14.8267L33.7962 15.4776C33.7962 15.4776 34.1693 17.2791 34.2465 17.6562H32.6317ZM35.0311 12.7926H33.5279C33.0618 12.7926 32.7129 12.9263 32.5087 13.4182L29.6207 20.3345H31.6635C31.6635 20.3345 31.9967 19.4043 32.0723 19.2001C32.295 19.2001 34.2801 19.204 34.563 19.204C34.6212 19.4672 34.8 20.3349 34.8 20.3349H36.6047L35.0311 12.7926ZM19.4124 12.7914L17.5092 17.9367L17.3051 16.8906C16.9501 15.6857 15.8462 14.3796 14.6113 13.7252L16.3523 20.3254L18.4106 20.3242L21.473 12.7914H19.4124Z" fill="#26337A"/>
<path fill-rule="evenodd" clip-rule="evenodd" d="M15.7415 12.7865H12.6058L12.5801 12.9428C15.0202 13.568 16.6345 15.0771 17.3044 16.8908L16.6234 13.4232C16.5055 12.9448 16.1641 12.8031 15.7419 12.7861" fill="#EC982D"/>
</g>
</g>
<g clip-path="url(#clip2_192_30604)">
<rect x="49.5586" y="4" width="38.4" height="24" rx="3.30357" fill="white"/>
<g clip-path="url(#clip3_192_30604)">
<path d="M86.6157 4.49512H50.1443C49.2685 4.49512 48.5586 5.20507 48.5586 6.08083V26.6951C48.5586 27.5709 49.2685 28.2808 50.1443 28.2808H86.6157C87.4915 28.2808 88.2015 27.5709 88.2015 26.6951V6.08083C88.2015 5.20507 87.4915 4.49512 86.6157 4.49512Z" fill="white"/>
<path fill-rule="evenodd" clip-rule="evenodd" d="M70.8105 16.5801C70.8105 20.8532 67.3469 24.3164 63.0742 24.3164C58.8015 24.3164 55.3379 20.8532 55.3379 16.5801C55.3379 12.3073 58.8015 8.84375 63.0742 8.84375C67.3469 8.84375 70.8105 12.3073 70.8105 16.5801Z" fill="#CC0000"/>
<path fill-rule="evenodd" clip-rule="evenodd" d="M73.4592 8.84376C71.539 8.8411 69.687 9.55514 68.2655 10.8461C67.9861 11.0998 67.7252 11.3734 67.4846 11.6651H69.0477C69.2615 11.9255 69.4585 12.1992 69.6376 12.4846H66.8943C66.7306 12.7478 66.5811 13.0209 66.4487 13.304H70.0828C70.2072 13.5696 70.3167 13.8423 70.4106 14.123H66.1213C66.0313 14.3917 65.9563 14.6651 65.8965 14.942H70.635C70.9273 16.3029 70.8498 17.7172 70.4106 19.0379H66.1213C66.2152 19.3182 66.3246 19.5917 66.4487 19.8573H70.0828C69.9507 20.1392 69.8018 20.4128 69.6368 20.6768H66.8947C67.0733 20.962 67.2703 21.2354 67.4846 21.495H69.0473C68.8071 21.7869 68.5458 22.0607 68.2655 22.3144C69.687 23.6053 71.539 24.3192 73.4592 24.3164C77.7319 24.3164 81.1955 20.8532 81.1955 16.5801C81.1955 12.3077 77.7319 8.84376 73.4592 8.84376Z" fill="#FF9900"/>
<path fill-rule="evenodd" clip-rule="evenodd" d="M61.2667 17.4274C61.2045 17.419 61.1419 17.4146 61.0792 17.4144C60.6031 17.4144 60.3624 17.5777 60.3624 17.9004C60.3624 18.0986 60.4798 18.2255 60.6633 18.2255C61.0055 18.2255 61.252 17.8996 61.2667 17.4274ZM61.8772 18.8494H61.1815L61.1973 18.5188C60.9852 18.7801 60.7018 18.9045 60.3173 18.9045C59.8622 18.9045 59.5502 18.5493 59.5502 18.0328C59.5502 17.2558 60.0929 16.8027 61.0245 16.8027C61.1196 16.8027 61.2421 16.8114 61.367 16.8272C61.3928 16.7218 61.3995 16.677 61.3995 16.6203C61.3995 16.409 61.2532 16.3297 60.8612 16.3297C60.5589 16.3294 60.2587 16.378 59.972 16.4736L60.0885 15.7561C60.5067 15.6328 60.7831 15.5868 61.0935 15.5868C61.815 15.5868 62.1971 15.9107 62.1963 16.5224C62.1975 16.6869 62.1702 16.8887 62.1281 17.1551C62.0552 17.6169 61.8986 18.6084 61.8772 18.8494ZM59.1985 18.8494H58.3581L58.8398 15.833L57.7654 18.8494H57.1926L57.122 15.8501L56.6162 18.8494H55.8301L56.487 14.9252H57.6945L57.7674 17.1218L58.5048 14.9256H59.8475L59.1985 18.8494ZM74.4975 17.4274C74.4355 17.419 74.373 17.4146 74.3104 17.4144C73.8339 17.4144 73.5936 17.5777 73.5936 17.9004C73.5936 18.0986 73.7106 18.2255 73.8945 18.2255C74.2363 18.2255 74.4836 17.8996 74.4975 17.4274ZM75.1088 18.8494H74.4127L74.4285 18.5188C74.2164 18.7801 73.933 18.9045 73.5485 18.9045C73.093 18.9045 72.7814 18.5493 72.7814 18.0328C72.7814 17.2558 73.3245 16.8027 74.2561 16.8027C74.3512 16.8027 74.4729 16.8114 74.5978 16.8272C74.624 16.7218 74.6307 16.677 74.6307 16.6203C74.6307 16.409 74.4844 16.3297 74.092 16.3297C73.7897 16.3295 73.4895 16.3781 73.2028 16.4736C73.2119 16.4205 73.3201 15.7561 73.3201 15.7561C73.7379 15.6328 74.0143 15.5868 74.3247 15.5868C75.0462 15.5868 75.4279 15.9107 75.4271 16.5224C75.4287 16.6869 75.4018 16.8887 75.3593 17.1551C75.2868 17.6169 75.1294 18.6084 75.1088 18.8494ZM65.61 18.8011C65.38 18.8732 65.2009 18.9045 65.0066 18.9045C64.5773 18.9045 64.343 18.658 64.343 18.2033C64.337 18.0625 64.4048 17.6915 64.4579 17.3529C64.5067 17.0548 64.8227 15.1749 64.8227 15.1749H65.6571L65.5596 15.6582H66.0639L65.9501 16.4253H65.4443C65.3471 17.0318 65.2088 17.7878 65.2072 17.8881C65.2072 18.0526 65.2952 18.1248 65.495 18.1248C65.5905 18.1248 65.6647 18.1148 65.7214 18.0946L65.61 18.8011ZM68.1697 18.7749C67.8827 18.8629 67.6068 18.9057 67.3134 18.9045C66.3786 18.9033 65.8914 18.4153 65.8914 17.481C65.8914 16.39 66.5111 15.5868 67.3527 15.5868C68.0409 15.5868 68.4805 16.0364 68.4805 16.7416C68.4805 16.9755 68.4504 17.2043 68.3774 17.5265H66.7148C66.6589 17.9896 66.9551 18.1822 67.4411 18.1822C67.7392 18.1822 68.0092 18.1208 68.3089 17.9816L68.1697 18.7749ZM67.7003 16.8831C67.7051 16.8165 67.7887 16.3135 67.3118 16.3135C67.0462 16.3135 66.8559 16.5161 66.7786 16.8831H67.7003ZM62.3811 16.6671C62.3811 17.0703 62.5769 17.3489 63.0205 17.5579C63.3606 17.718 63.4138 17.7652 63.4138 17.9103C63.4138 18.1089 63.2631 18.1993 62.9313 18.1993C62.6804 18.1993 62.4477 18.1596 62.1785 18.0728L62.0635 18.8102C62.2538 18.8514 62.4243 18.8899 62.9372 18.9045C63.8233 18.9045 64.2328 18.5672 64.2328 17.8381C64.2328 17.3993 64.0615 17.142 63.6409 16.9486C63.2889 16.7868 63.248 16.7507 63.248 16.6017C63.248 16.4292 63.388 16.3412 63.6591 16.3412C63.8241 16.3412 64.0492 16.3587 64.2625 16.3888L64.3822 15.6487C64.1374 15.6119 63.8904 15.5913 63.6429 15.5868C62.7034 15.5868 62.3783 16.0776 62.3811 16.6671ZM72.2545 15.6713C72.4876 15.6713 72.7056 15.7315 73.0049 15.883L73.1425 15.0314C73.0192 14.9831 72.5863 14.6992 72.2192 14.6992C71.6575 14.6992 71.1818 14.9783 70.848 15.4382C70.3604 15.2768 70.1598 15.6031 69.9144 15.9281L69.6964 15.9789C69.7157 15.873 69.7246 15.7654 69.7229 15.6578H68.9507C68.8456 16.6461 68.6589 17.6463 68.513 18.635L68.4746 18.8494H69.315C69.4549 17.938 69.5318 17.3549 69.5786 16.9597L69.895 16.7844C69.9425 16.608 70.09 16.549 70.3865 16.5561C70.3467 16.7718 70.3268 16.9908 70.3271 17.2102C70.3271 18.2544 70.8912 18.9045 71.7951 18.9045C72.0278 18.9045 72.2279 18.874 72.5376 18.7896L72.6846 17.8956C72.4063 18.0324 72.178 18.0966 71.9711 18.0966C71.4835 18.0966 71.1877 17.7359 71.1877 17.1404C71.1877 16.2762 71.6274 15.6713 72.2545 15.6713ZM79.3652 14.9252L79.1789 16.059C78.949 15.7569 78.7028 15.5381 78.377 15.5381C77.9532 15.5381 77.5674 15.8592 77.3145 16.3325C77.0729 16.2796 76.8343 16.2139 76.5998 16.1355V16.1387C76.6275 15.8738 76.6394 15.7133 76.6366 15.6582H75.8644C75.7597 16.6461 75.5726 17.6463 75.4267 18.6346L75.3883 18.8494H76.2287C76.3421 18.1129 76.4289 17.5008 76.4927 17.0159C76.7801 16.7563 76.924 16.5303 77.2134 16.545C77.0791 16.8737 77.01 17.2254 77.0101 17.5805C77.0101 18.3781 77.4132 18.9045 78.0241 18.9045C78.3318 18.9045 78.568 18.7983 78.7984 18.5525L78.7587 18.849H79.5536L80.1934 14.9252H79.3652ZM78.3147 18.1125C78.0293 18.1125 77.8842 17.9004 77.8842 17.4829C77.8842 16.8558 78.155 16.411 78.5359 16.411C78.8245 16.411 78.9807 16.6306 78.9807 17.0362C78.9807 17.6689 78.706 18.1125 78.3147 18.1125Z" fill="#000066"/>
<path fill-rule="evenodd" clip-rule="evenodd" d="M59.4403 18.6165H58.5999L59.0816 15.6005L58.0072 18.6165H57.4348L57.3642 15.6179L56.8584 18.6165H56.0723L56.7288 14.693H57.9367L57.9704 17.122L58.7854 14.693H60.0897L59.4403 18.6165ZM61.5085 17.1953C61.4464 17.1867 61.3837 17.1824 61.321 17.1822C60.8449 17.1822 60.6038 17.3451 60.6038 17.6674C60.6038 17.8657 60.7216 17.9929 60.9051 17.9929C61.2472 17.9929 61.4938 17.6674 61.5085 17.1953ZM62.119 18.6165H61.4233L61.4391 18.2863C61.227 18.5471 60.9436 18.672 60.559 18.672C60.1039 18.672 59.792 18.3164 59.792 17.7999C59.792 17.0229 60.3347 16.5701 61.2667 16.5701C61.3618 16.5701 61.4835 16.5789 61.6088 16.5951C61.6346 16.4893 61.6413 16.4445 61.6413 16.3874C61.6413 16.1765 61.4954 16.098 61.1029 16.098C60.8008 16.0971 60.5005 16.1453 60.2138 16.2407L60.3303 15.5232C60.7485 15.4003 61.0248 15.3543 61.3353 15.3543C62.0568 15.3543 62.4385 15.6782 62.4381 16.2899C62.4393 16.454 62.4123 16.6569 62.3699 16.9222C62.297 17.384 62.1404 18.3759 62.119 18.6165ZM73.3843 14.7985L73.2467 15.65C72.9466 15.4994 72.7294 15.4383 72.4963 15.4383C71.8692 15.4383 71.4295 16.0445 71.4295 16.9091C71.4295 17.5041 71.7252 17.8641 72.2133 17.8641C72.4202 17.8641 72.6485 17.8002 72.9268 17.6627L72.779 18.557C72.4697 18.6411 72.2695 18.672 72.0368 18.672C71.1326 18.672 70.5693 18.0219 70.5693 16.9781C70.5693 15.5751 71.3478 14.5947 72.461 14.5947C72.8277 14.5947 73.261 14.7501 73.3843 14.7985ZM74.7389 17.1953C74.677 17.1867 74.6146 17.1824 74.5522 17.1822C74.0765 17.1822 73.8354 17.3451 73.8354 17.6674C73.8354 17.8657 73.9528 17.9929 74.1359 17.9929C74.478 17.9929 74.725 17.6674 74.7389 17.1953ZM75.3502 18.6165H74.6545L74.6703 18.2863C74.4578 18.5471 74.1748 18.672 73.7902 18.672C73.3344 18.672 73.0232 18.3164 73.0232 17.7999C73.0232 17.0229 73.5655 16.5701 74.4975 16.5701C74.5926 16.5701 74.7143 16.5789 74.8392 16.5951C74.8654 16.4893 74.8721 16.4445 74.8721 16.3874C74.8721 16.1765 74.7262 16.098 74.3337 16.098C74.0317 16.0972 73.7315 16.1454 73.445 16.2407L73.5615 15.5232C73.9797 15.4003 74.2557 15.3543 74.5665 15.3543C75.2876 15.3543 75.6697 15.6782 75.6685 16.2899C75.6705 16.454 75.6432 16.6569 75.6011 16.9222C75.5282 17.384 75.3716 18.3759 75.3502 18.6165ZM65.8518 18.5685C65.6218 18.6407 65.4426 18.672 65.2484 18.672C64.8191 18.672 64.5844 18.4254 64.5844 17.9711C64.5788 17.8296 64.6466 17.4593 64.7001 17.1204C64.7481 16.8219 65.0641 14.9428 65.0641 14.9428H65.8989L65.8014 15.4256H66.2296L66.1158 16.1923H65.6857C65.5889 16.7997 65.4506 17.5553 65.449 17.6556C65.449 17.8205 65.537 17.8922 65.7368 17.8922C65.8323 17.8922 65.9065 17.8827 65.9632 17.8617L65.8518 18.5685ZM68.4115 18.5432C68.1341 18.6294 67.8453 18.6728 67.5548 18.672C66.62 18.6716 66.1332 18.1832 66.1332 17.2488C66.1332 16.1574 66.7528 15.3539 67.5937 15.3539C68.2827 15.3539 68.7223 15.8038 68.7223 16.5095C68.7223 16.7434 68.6918 16.9717 68.6192 17.2944H66.9566C66.9003 17.757 67.1968 17.9501 67.6821 17.9501C67.981 17.9501 68.2506 17.8883 68.5503 17.7491L68.4115 18.5432ZM67.9425 16.6506C67.9469 16.5836 68.0309 16.0809 67.554 16.0809C67.2884 16.0809 67.0977 16.2839 67.0204 16.6506H67.9425ZM62.6229 16.4346C62.6229 16.8385 62.8187 17.1164 63.2627 17.3257C63.6024 17.4855 63.6552 17.5331 63.6552 17.6778C63.6552 17.8768 63.5053 17.9664 63.1727 17.9664C62.9168 17.9656 62.6627 17.9232 62.4203 17.8411L62.3053 18.5772C62.4956 18.6193 62.6661 18.6573 63.1786 18.6724C64.0651 18.6724 64.4746 18.3346 64.4746 17.6056C64.4746 17.1668 64.3033 16.9095 63.8823 16.7164C63.5303 16.5543 63.4898 16.5186 63.4898 16.3695C63.4898 16.1971 63.6294 16.1079 63.9009 16.1079C64.0655 16.1079 64.291 16.1265 64.5043 16.1567L64.624 15.4165C64.3792 15.3798 64.1322 15.359 63.8847 15.3543C62.9451 15.3543 62.6201 15.8447 62.6229 16.4346ZM79.7957 18.6165H79.0013L79.0405 18.3196C78.8102 18.5658 78.5739 18.6724 78.2663 18.6724C77.6558 18.6724 77.2519 18.1459 77.2519 17.3479C77.2519 16.2863 77.8782 15.3915 78.6187 15.3915C78.9442 15.3915 79.1908 15.5247 79.4207 15.8268L79.607 14.693H80.4356L79.7957 18.6165ZM78.5565 17.8791C78.9478 17.8791 79.2225 17.4363 79.2225 16.804C79.2225 16.3985 79.0659 16.1781 78.7773 16.1781C78.3967 16.1781 78.126 16.6229 78.126 17.2504C78.126 17.6682 78.2711 17.8791 78.5565 17.8791ZM76.107 15.4256C76.0019 16.4135 75.8148 17.4137 75.6689 18.402L75.6305 18.6165H76.4709C76.771 16.6653 76.8435 16.2843 77.3149 16.3319C77.3898 15.9327 77.5294 15.5826 77.6336 15.4066C77.282 15.3329 77.0854 15.5319 76.8281 15.9097C76.8483 15.7464 76.8856 15.5878 76.8784 15.4256H76.107ZM69.1933 15.4256C69.0878 16.4135 68.9007 17.4137 68.7548 18.402L68.7168 18.6165H69.5572C69.8577 16.6653 69.9298 16.2843 70.4004 16.3319C70.4757 15.9327 70.6156 15.5826 70.7195 15.4066C70.3683 15.3329 70.1712 15.5319 69.9144 15.9097C69.9346 15.7464 69.9718 15.5878 69.9647 15.4256H69.1933Z" fill="white"/>
</g>
</g>
<rect x="94.5645" y="4" width="38.4" height="24" rx="3.30357" fill="white"/>
<g clip-path="url(#clip4_192_30604)">
<path d="M112.637 16.7097V20.9489H111.27V10.4648H114.825C115.691 10.4648 116.512 10.7839 117.15 11.3765C117.788 11.9235 118.107 12.744 118.107 13.6101C118.107 14.4761 117.788 15.251 117.15 15.8436C116.512 16.4362 115.737 16.7553 114.825 16.7553L112.637 16.7097ZM112.637 11.7412V15.3878H114.916C115.418 15.3878 115.919 15.2055 116.238 14.8408C116.967 14.1571 116.967 13.0175 116.284 12.3337L116.238 12.2882C115.873 11.9235 115.418 11.6956 114.916 11.7412H112.637Z" fill="#5F6368"/>
<path d="M121.253 13.5654C122.255 13.5654 123.03 13.8389 123.623 14.3859C124.216 14.9329 124.489 15.6622 124.489 16.5739V20.9499H123.213V19.947H123.167C122.62 20.7675 121.845 21.1778 120.934 21.1778C120.159 21.1778 119.475 20.9499 118.928 20.494C118.427 20.0382 118.107 19.4 118.107 18.7163C118.107 17.987 118.381 17.3944 118.928 16.9386C119.475 16.4827 120.25 16.3004 121.161 16.3004C121.982 16.3004 122.62 16.4372 123.122 16.7562V16.4372C123.122 15.9813 122.939 15.5255 122.575 15.252C122.21 14.9329 121.754 14.7506 121.253 14.7506C120.478 14.7506 119.885 15.0697 119.475 15.7078L118.29 14.9785C119.019 14.0213 119.976 13.5654 121.253 13.5654ZM119.52 18.7619C119.52 19.1265 119.703 19.4456 119.976 19.628C120.295 19.8559 120.66 19.9926 121.025 19.9926C121.572 19.9926 122.119 19.7647 122.529 19.3545C122.985 18.9442 123.213 18.4428 123.213 17.8958C122.802 17.5767 122.21 17.3944 121.435 17.3944C120.888 17.3944 120.432 17.5311 120.067 17.8046C119.703 18.0326 119.52 18.3516 119.52 18.7619Z" fill="#5F6368"/>
<path d="M131.873 13.793L127.361 24.1403H125.993L127.68 20.5392L124.717 13.8386H126.175L128.318 18.9894H128.363L130.46 13.8386H131.873V13.793Z" fill="#5F6368"/>
<path d="M107.213 15.7991C107.213 15.3889 107.167 14.9786 107.122 14.5684H101.424V16.8931H104.66C104.523 17.6224 104.113 18.3062 103.475 18.7164V20.2206H105.435C106.575 19.1722 107.213 17.6224 107.213 15.7991Z" fill="#4285F4"/>
<path d="M101.424 21.6791C103.065 21.6791 104.432 21.1321 105.435 20.2205L103.475 18.7162C102.928 19.0809 102.244 19.3088 101.424 19.3088C99.8739 19.3088 98.5064 18.2604 98.0506 16.8018H96.0449V18.3516C97.0933 20.4028 99.1446 21.6791 101.424 21.6791Z" fill="#34A853"/>
<path d="M98.0497 16.8013C97.7762 16.072 97.7762 15.2515 98.0497 14.4766V12.9268H96.0441C95.178 14.6133 95.178 16.619 96.0441 18.3511L98.0497 16.8013Z" fill="#FBBC04"/>
<path d="M101.423 12.0153C102.289 12.0153 103.11 12.3344 103.748 12.927L105.48 11.1948C104.386 10.192 102.927 9.59945 101.469 9.64503C99.1895 9.64503 97.0927 10.9214 96.0898 12.9726L98.0955 14.5224C98.5057 13.0637 99.8732 12.0153 101.423 12.0153Z" fill="#EA4335"/>
</g>
<g clip-path="url(#clip5_192_30604)">
<rect x="139.572" y="4" width="38.4" height="24" rx="3.30357" fill="white"/>
<g clip-path="url(#clip6_192_30604)">
<path d="M177.159 2.81055L177.614 2.81114C177.738 2.81174 177.863 2.81353 177.988 2.8165C178.215 2.82246 178.483 2.83497 178.74 2.88143C178.978 2.92431 179.179 2.99043 179.374 3.0893C179.768 3.28901 180.089 3.60908 180.288 4.00301C180.387 4.19719 180.453 4.39851 180.496 4.63677C180.542 4.8911 180.555 5.15855 180.56 5.38667C180.564 5.51057 180.566 5.63505 180.566 5.76073C180.567 5.91143 180.567 6.06332 180.567 6.21461V26.8069C180.567 26.9582 180.567 27.1095 180.566 27.2626C180.566 27.3867 180.564 27.5108 180.56 27.6349C180.554 27.863 180.542 28.1305 180.496 28.3866C180.459 28.6064 180.389 28.8194 180.288 29.0185C180.087 29.4121 179.767 29.7321 179.373 29.9328C179.173 30.0334 178.96 30.1035 178.74 30.1407C178.492 30.1804 178.241 30.2019 177.99 30.2051C177.865 30.208 177.74 30.2098 177.613 30.2098C177.462 30.211 177.31 30.211 177.159 30.211H140.449C140.3 30.211 140.15 30.211 139.999 30.2098C139.873 30.2098 139.748 30.208 139.626 30.2051C139.374 30.2018 139.123 30.1803 138.875 30.1407C138.654 30.1038 138.439 30.0335 138.24 29.9323C138.044 29.8331 137.865 29.7031 137.71 29.5475C137.555 29.3926 137.425 29.2141 137.326 29.0185C137.225 28.8189 137.155 28.6053 137.118 28.3848C137.077 28.1368 137.056 27.8861 137.053 27.6349C137.05 27.5106 137.048 27.3863 137.047 27.262L137.047 26.8987V6.12348L137.047 5.76073C137.048 5.63625 137.05 5.51176 137.053 5.38667C137.059 5.15974 137.071 4.89289 137.118 4.63558C137.155 4.41521 137.225 4.20171 137.326 4.00242C137.526 3.60893 137.846 3.28916 138.24 3.0893C138.44 2.9887 138.653 2.91881 138.874 2.88202C139.123 2.84154 139.374 2.81984 139.626 2.8171C139.751 2.81412 139.875 2.81233 139.999 2.81174L140.455 2.81055H177.159Z" fill="white"/>
<path d="M177.158 2.81048L177.612 2.81108C177.737 2.81167 177.862 2.81346 177.987 2.81644C178.214 2.82239 178.481 2.8349 178.738 2.88136C178.976 2.92425 179.178 2.99036 179.373 3.08924C179.767 3.28894 180.087 3.60901 180.287 4.00294C180.386 4.19712 180.451 4.39845 180.494 4.6367C180.54 4.89104 180.553 5.15848 180.559 5.38661C180.562 5.5105 180.564 5.63499 180.565 5.76067C180.566 5.91136 180.566 6.06325 180.566 6.21454V26.8069C180.566 26.9582 180.566 27.1095 180.565 27.2625C180.564 27.3867 180.562 27.5108 180.559 27.6348C180.553 27.8629 180.54 28.1304 180.494 28.3865C180.457 28.6063 180.387 28.8194 180.287 29.0185C180.086 29.4121 179.766 29.7321 179.372 29.9328C179.172 30.0333 178.959 30.1034 178.738 30.1407C178.49 30.1804 178.24 30.2019 177.989 30.205C177.863 30.208 177.738 30.2098 177.611 30.2098C177.46 30.2109 177.308 30.2109 177.157 30.2109H140.448C140.298 30.2109 140.149 30.2109 139.997 30.2098C139.872 30.2098 139.747 30.208 139.625 30.205C139.373 30.2017 139.122 30.1802 138.873 30.1407C138.652 30.1038 138.438 30.0335 138.238 29.9322C138.042 29.833 137.863 29.7031 137.709 29.5474C137.553 29.3926 137.424 29.214 137.325 29.0185C137.224 28.8189 137.154 28.6052 137.116 28.3847C137.076 28.1367 137.054 27.8861 137.051 27.6348C137.049 27.5105 137.047 27.3863 137.046 27.2619L137.046 26.8986V6.12341L137.046 5.76067C137.047 5.63618 137.049 5.51169 137.051 5.38661C137.057 5.15967 137.07 4.89282 137.116 4.63551C137.153 4.41514 137.224 4.20165 137.325 4.00235C137.525 3.60886 137.845 3.28909 138.239 3.08924C138.438 2.98863 138.652 2.91874 138.873 2.88196C139.121 2.84148 139.373 2.81977 139.625 2.81703C139.749 2.81405 139.874 2.81227 139.998 2.81167L140.453 2.81048H177.158ZM177.158 2.21484H140.453L139.995 2.21544C139.866 2.21604 139.737 2.21782 139.609 2.2214C139.327 2.22514 139.046 2.24983 138.768 2.29525C138.49 2.34299 138.22 2.43171 137.968 2.55853C137.463 2.81671 137.052 3.22752 136.793 3.73253C136.666 3.98413 136.577 4.25337 136.53 4.53127C136.484 4.80895 136.459 5.0897 136.455 5.37112C136.452 5.49918 136.45 5.62784 136.45 5.7565L136.449 6.21454V26.8069L136.45 27.2655C136.45 27.3942 136.452 27.5228 136.456 27.6509C136.464 27.9308 136.48 28.2132 136.53 28.4902C136.58 28.7719 136.663 29.0334 136.793 29.2889C137.05 29.7949 137.462 30.2061 137.969 30.4629C138.224 30.5933 138.486 30.6755 138.768 30.7262C139.045 30.7756 139.328 30.7923 139.609 30.8C139.737 30.8036 139.866 30.8054 139.995 30.8054C140.148 30.8066 140.301 30.8066 140.453 30.8066H177.158C177.311 30.8066 177.464 30.8066 177.617 30.8054C177.745 30.8048 177.874 30.803 178.003 30.8C178.283 30.7923 178.566 30.7756 178.844 30.7262C179.122 30.6784 179.391 30.5897 179.643 30.4629C180.15 30.2063 180.561 29.7951 180.818 29.2889C180.949 29.0334 181.031 28.7719 181.081 28.4902C181.131 28.2132 181.147 27.9308 181.155 27.6509C181.159 27.5222 181.16 27.3936 181.161 27.2655C181.162 27.1124 181.162 26.96 181.162 26.8069V6.21454C181.162 6.06146 181.162 5.90898 181.161 5.7559C181.161 5.62742 181.159 5.49896 181.155 5.37053C181.152 5.08912 181.127 4.80837 181.081 4.53068C181.034 4.2528 180.945 3.98356 180.818 3.73193C180.56 3.22635 180.149 2.81535 179.643 2.55793C179.391 2.43112 179.122 2.3424 178.844 2.29466C178.566 2.24928 178.285 2.22459 178.003 2.2208C177.874 2.21723 177.745 2.21604 177.617 2.21484H177.158Z" fill="black"/>
<path d="M149.782 10.7936C150.195 10.2939 150.473 9.59936 150.397 8.90723C149.801 8.93165 149.08 9.30511 148.656 9.80306C148.271 10.245 147.938 10.9526 148.03 11.6311C148.693 11.6823 149.369 11.2933 149.782 10.7936ZM151.495 15.1858C151.482 13.689 152.718 12.9689 152.775 12.9331C152.078 11.9206 150.997 11.78 150.612 11.7645C149.69 11.6734 148.812 12.3065 148.346 12.3065C147.879 12.3065 147.159 11.7788 146.394 11.7949C145.39 11.8092 144.463 12.378 143.946 13.2756C142.906 15.0881 143.682 17.7649 144.698 19.2308C145.196 19.9485 145.787 20.755 146.567 20.7258C147.317 20.6967 147.598 20.241 148.505 20.241C149.409 20.2398 149.665 20.7247 150.455 20.711C151.261 20.6937 151.773 19.9783 152.267 19.257C152.836 18.4261 153.071 17.619 153.083 17.5785C153.067 17.5678 151.513 16.9757 151.495 15.1858ZM161.094 10.793C160.793 10.5035 160.405 10.2784 159.941 10.1235C159.482 9.97044 158.93 9.89301 158.3 9.89301C157.897 9.89122 157.495 9.9121 157.094 9.95555C156.76 9.99278 156.427 10.0395 156.096 10.0955L155.999 10.1122V20.6353H156.96V16.202C157.284 16.2574 157.655 16.2866 158.064 16.2866C158.609 16.2866 159.119 16.2169 159.58 16.0805C160.024 15.9543 160.438 15.7389 160.795 15.4473C161.14 15.1597 161.417 14.8 161.607 14.3936C161.804 13.9767 161.904 13.4865 161.904 12.9349C161.904 12.4787 161.832 12.0683 161.691 11.7151C161.555 11.3712 161.352 11.0578 161.094 10.793ZM160.21 14.8124C159.716 15.2257 159.017 15.4354 158.13 15.4354C157.887 15.4354 157.656 15.4247 157.444 15.405C157.281 15.3903 157.12 15.3632 156.961 15.324V10.849C157.088 10.8258 157.246 10.8037 157.43 10.7841C157.665 10.7591 157.947 10.7466 158.27 10.7466C158.641 10.7429 159.011 10.7908 159.369 10.8889C159.674 10.9727 159.961 11.1129 160.214 11.3023C160.445 11.481 160.626 11.7133 160.752 11.9932C160.879 12.2767 160.943 12.6151 160.943 12.9981C160.942 13.7932 160.695 14.4038 160.21 14.8124ZM167.653 19.6501C167.642 19.3523 167.638 19.0533 167.638 18.7555V15.8303C167.638 15.4836 167.603 15.1298 167.534 14.7784C167.468 14.4287 167.333 14.0958 167.136 13.7992C166.94 13.5061 166.667 13.2643 166.324 13.0797C165.982 12.8956 165.537 12.8027 165.001 12.8027C164.61 12.8027 164.228 12.8533 163.867 12.954C163.488 13.0628 163.13 13.2331 162.806 13.4579L162.728 13.5121L163.053 14.2715L163.171 14.1923C163.427 14.0203 163.708 13.8871 164.003 13.7968C164.302 13.7035 164.613 13.6557 164.926 13.655C165.326 13.655 165.646 13.7277 165.875 13.8707C166.107 14.0154 166.282 14.1947 166.394 14.4044C166.512 14.6206 166.589 14.8505 166.623 15.0893C166.659 15.3377 166.676 15.5599 166.676 15.7505V15.8351C165.25 15.8285 164.137 16.0656 163.398 16.5415C162.622 17.0406 162.228 17.7512 162.228 18.653C162.228 18.9127 162.275 19.1742 162.367 19.4327C162.46 19.6942 162.601 19.9283 162.786 20.1284C162.972 20.3309 163.212 20.4959 163.5 20.6192C163.786 20.7437 164.123 20.8063 164.499 20.8063C165.032 20.8152 165.556 20.672 166.01 20.3935C166.208 20.2714 166.384 20.1326 166.534 19.9831C166.598 19.9188 166.66 19.8516 166.717 19.7818H166.754L166.843 20.6359H167.77L167.744 20.4989C167.693 20.2186 167.663 19.9349 167.653 19.6501ZM166.676 18.1515C166.676 18.254 166.652 18.3945 166.605 18.5631C166.543 18.7455 166.456 18.9184 166.347 19.0771C166.103 19.4334 165.749 19.7002 165.339 19.8366C165.091 19.9182 164.83 19.9579 164.568 19.9539C164.396 19.9539 164.224 19.9247 164.061 19.8675C163.903 19.8126 163.758 19.7258 163.635 19.6126C163.506 19.4907 163.404 19.3432 163.336 19.1796C163.26 19.0051 163.222 18.7888 163.222 18.5375C163.222 18.1259 163.333 17.7917 163.55 17.5475C163.785 17.2873 164.079 17.088 164.408 16.9668C164.78 16.8269 165.17 16.7381 165.567 16.7029C165.935 16.6674 166.306 16.6513 166.676 16.6547V18.1515ZM174.181 12.9736L172.386 17.8477C172.274 18.142 172.17 18.4386 172.074 18.7275C172.028 18.8716 171.984 19.008 171.94 19.1379H171.906C171.861 18.9956 171.815 18.8537 171.769 18.712C171.676 18.4261 171.576 18.1455 171.473 17.8781L169.554 12.9736H168.527L171.273 20.0248C171.345 20.1945 171.356 20.2726 171.356 20.3041C171.356 20.3137 171.353 20.3714 171.272 20.5859C171.122 20.9685 170.927 21.3317 170.69 21.6675C170.469 21.9666 170.268 22.2096 170.088 22.3889C169.88 22.5973 169.664 22.7683 169.446 22.8975C169.222 23.0292 169.018 23.1358 168.837 23.2162L168.734 23.2627L169.068 24.0745L169.174 24.0352C169.261 24.0024 169.425 23.928 169.673 23.8071C169.923 23.6838 170.201 23.4884 170.496 23.2239C170.758 22.9934 170.991 22.7315 171.189 22.4443C171.392 22.1536 171.595 21.8123 171.794 21.4335C171.991 21.0552 172.187 20.6252 172.379 20.154C172.571 19.6805 172.778 19.151 172.991 18.5821L175.208 12.9736H174.181Z" fill="black"/>
</g>
</g>
<g clip-path="url(#clip7_192_30604)">
<rect x="184.58" y="4" width="38.4" height="24" rx="3.30357" fill="white"/>
<g clip-path="url(#clip8_192_30604)">
<path d="M221.637 4.48047H185.166C184.29 4.48047 183.58 5.19042 183.58 6.06618V26.6805C183.58 27.5562 184.29 28.2662 185.166 28.2662H221.637C222.513 28.2662 223.223 27.5562 223.223 26.6805V6.06618C223.223 5.19042 222.513 4.48047 221.637 4.48047Z" fill="white"/>
<path fill-rule="evenodd" clip-rule="evenodd" d="M197.483 13.9781C197.747 13.9781 197.974 14.0249 198.166 14.1172C198.358 14.2104 198.517 14.336 198.644 14.4938C198.77 14.6528 198.863 14.8387 198.924 15.0512C198.984 15.2645 199.014 15.4936 199.014 15.7394C199.016 16.1061 198.945 16.4695 198.804 16.8082C198.671 17.1341 198.477 17.4315 198.232 17.6847C197.988 17.9349 197.697 18.135 197.376 18.2738C197.038 18.4205 196.674 18.4945 196.306 18.491C196.257 18.491 196.169 18.4898 196.046 18.4871C195.905 18.4829 195.763 18.4707 195.623 18.4506C195.452 18.4263 195.283 18.3933 195.116 18.3515C194.941 18.3095 194.771 18.2492 194.609 18.1715L196.034 12.2171L197.309 12.0205L196.8 14.1335C196.909 14.0847 197.019 14.0463 197.129 14.0189C197.239 13.9923 197.357 13.9781 197.483 13.9781ZM196.413 17.4845C196.605 17.4845 196.786 17.4373 196.956 17.3449C197.126 17.2526 197.274 17.1281 197.397 16.9723C197.52 16.8165 197.618 16.6405 197.689 16.4439C197.761 16.2476 197.796 16.0427 197.796 15.8294C197.796 15.5674 197.753 15.3628 197.665 15.2149C197.577 15.0683 197.415 14.9941 197.179 14.9941C197.101 14.9941 197.002 15.0088 196.879 15.0346C196.754 15.0631 196.639 15.1225 196.544 15.2074L196.001 17.4512C196.034 17.4567 196.063 17.4623 196.088 17.4674C196.146 17.4791 196.205 17.4848 196.264 17.4845H196.413ZM200.337 18.3768H199.119L200.148 14.0689H201.375L200.337 18.3768ZM200.93 13.5444C200.76 13.5444 200.606 13.4936 200.469 13.3929C200.331 13.2926 200.263 13.138 200.263 12.9299C200.263 12.8157 200.286 12.7079 200.333 12.6068C200.423 12.4086 200.584 12.2518 200.785 12.168C200.887 12.1244 200.995 12.103 201.111 12.103C201.281 12.103 201.435 12.1533 201.572 12.2544C201.709 12.3555 201.778 12.5101 201.778 12.717C201.778 12.832 201.755 12.9398 201.707 13.0409C201.618 13.239 201.456 13.3955 201.255 13.479C201.153 13.5231 201.042 13.5453 200.93 13.5444ZM202.442 12.9957L203.719 12.7991L203.405 14.0689H204.772L204.525 15.0679H203.167L202.805 16.5747C202.773 16.6895 202.754 16.8074 202.747 16.9263C202.741 17.0361 202.755 17.1301 202.788 17.2094C202.821 17.2886 202.88 17.3497 202.965 17.3929C203.05 17.4369 203.172 17.4591 203.331 17.4591C203.462 17.4591 203.59 17.4468 203.715 17.4218C203.837 17.3981 203.962 17.3636 204.088 17.3196L204.18 18.2536C204.015 18.3138 203.836 18.3657 203.644 18.409C203.452 18.4526 203.224 18.474 202.961 18.474C202.582 18.474 202.289 18.4185 202.08 18.3075C201.871 18.1949 201.723 18.0419 201.635 17.8476C201.548 17.6546 201.509 17.4314 201.52 17.1808C201.531 16.9291 201.569 16.6647 201.635 16.386L202.442 12.9961V12.9957ZM204.718 16.6571C204.718 16.2861 204.779 15.936 204.899 15.6082C205.014 15.2901 205.191 14.9978 205.419 14.7479C205.648 14.4992 205.927 14.3013 206.238 14.1668C206.558 14.0249 206.916 13.9535 207.312 13.9535C207.535 13.9507 207.757 13.9742 207.974 14.0233C208.157 14.0658 208.335 14.1275 208.505 14.2072L208.085 15.1582C207.976 15.1138 207.862 15.075 207.744 15.0393C207.626 15.0032 207.482 14.9858 207.312 14.9858C206.905 14.9858 206.584 15.1253 206.344 15.4032C206.106 15.6815 205.986 16.0558 205.986 16.5255C205.986 16.8042 206.046 17.029 206.168 17.2014C206.288 17.3735 206.511 17.4591 206.834 17.4591C207.128 17.458 207.419 17.3997 207.69 17.2875L207.782 18.2619C207.627 18.3213 207.458 18.3753 207.271 18.422C207.085 18.4676 206.862 18.491 206.604 18.491C206.264 18.491 205.975 18.4415 205.74 18.3439C205.504 18.2448 205.309 18.1132 205.156 17.9463C205.001 17.779 204.887 17.5786 204.822 17.3604C204.752 17.1325 204.717 16.8954 204.718 16.6571ZM210.131 18.4914C209.84 18.4914 209.588 18.4478 209.373 18.3606C209.17 18.2807 208.988 18.1545 208.843 17.9919C208.7 17.8285 208.592 17.6376 208.526 17.431C208.452 17.1996 208.416 16.9578 208.419 16.715C208.419 16.3868 208.472 16.0589 208.579 15.7319C208.682 15.4107 208.843 15.111 209.053 14.8474C209.263 14.584 209.523 14.3651 209.818 14.2036C210.12 14.0375 210.466 13.9539 210.855 13.9539C211.14 13.9539 211.392 13.9983 211.609 14.0855C211.825 14.1727 212.003 14.2956 212.145 14.4542C212.283 14.6128 212.39 14.7991 212.461 15.0151C212.532 15.23 212.568 15.4694 212.568 15.7315C212.566 16.0652 212.514 16.3968 212.412 16.7146C212.312 17.0342 212.155 17.3335 211.951 17.5987C211.744 17.8636 211.485 18.0826 211.19 18.2417C210.884 18.4082 210.531 18.4914 210.131 18.4914ZM210.74 14.9862C210.559 14.9862 210.4 15.0385 210.263 15.1416C210.123 15.2487 210.005 15.3823 209.917 15.5348C209.823 15.6934 209.754 15.8667 209.707 16.0546C209.662 16.2299 209.639 16.41 209.637 16.5909C209.637 16.8645 209.681 17.0774 209.768 17.2304C209.857 17.3826 210.015 17.4595 210.246 17.4595C210.428 17.4595 210.586 17.408 210.724 17.3033C210.86 17.2002 210.976 17.0694 211.069 16.9109C211.163 16.7531 211.233 16.579 211.28 16.3907C211.326 16.2024 211.349 16.0232 211.349 15.8544C211.349 15.5816 211.305 15.3683 211.217 15.2153C211.13 15.0627 210.97 14.9862 210.74 14.9862ZM213.895 18.3768H212.676L213.705 14.0689H214.932L213.895 18.3768ZM214.487 13.5444C214.317 13.5444 214.163 13.4936 214.026 13.3929C213.889 13.2926 213.82 13.138 213.82 12.9299C213.82 12.8157 213.844 12.7079 213.89 12.6068C213.98 12.4084 214.142 12.2516 214.343 12.168C214.446 12.1242 214.557 12.1021 214.668 12.103C214.839 12.103 214.992 12.1533 215.129 12.2544C215.266 12.3555 215.335 12.5101 215.335 12.717C215.335 12.832 215.311 12.9398 215.265 13.0409C215.176 13.2392 215.014 13.396 214.813 13.479C214.71 13.5232 214.599 13.5455 214.487 13.5444ZM215.81 14.2651C215.902 14.2381 216.005 14.2056 216.118 14.1707C216.395 14.0874 216.679 14.03 216.966 13.9991C217.139 13.9793 217.336 13.9701 217.555 13.9701C218.197 13.9701 218.64 14.1565 218.885 14.5275C219.129 14.899 219.171 15.4068 219.013 16.0506L218.453 18.3768H217.226L217.769 16.0998C217.802 15.9574 217.829 15.8199 217.847 15.6855C217.867 15.569 217.866 15.4499 217.843 15.3339C217.823 15.2366 217.769 15.1495 217.691 15.0881C217.611 15.025 217.489 14.9937 217.324 14.9937C217.166 14.9937 217.004 15.0108 216.839 15.0437L216.04 18.3768H214.813L215.81 14.2651ZM201.087 20.9441L200.848 21.3762H200.59C200.91 20.7983 201.26 20.2369 201.636 19.6942H201.868C201.893 19.8155 201.915 19.9384 201.935 20.0621C201.98 20.3351 202.018 20.6091 202.051 20.8839C202.069 21.0357 202.088 21.1998 202.107 21.3762H201.868C201.86 21.3031 201.853 21.2299 201.846 21.1566C201.84 21.0858 201.833 21.0151 201.824 20.9445H201.088L201.087 20.9441ZM201.803 20.7546C201.776 20.4898 201.741 20.2259 201.698 19.9634C201.52 20.2203 201.353 20.4843 201.197 20.7546H201.803ZM202.972 21.4123C202.877 21.414 202.782 21.3985 202.693 21.3663C202.617 21.3385 202.548 21.2937 202.492 21.2355C202.437 21.1768 202.395 21.1067 202.371 21.0301C202.343 20.9427 202.329 20.8512 202.33 20.7594C202.33 20.6139 202.354 20.4747 202.4 20.3419C202.446 20.2095 202.512 20.0922 202.597 19.9903C202.683 19.8884 202.786 19.8072 202.906 19.7461C203.026 19.6855 203.16 19.6549 203.309 19.6549C203.435 19.6549 203.537 19.668 203.612 19.6942C203.688 19.7199 203.742 19.7441 203.775 19.7667L203.677 19.961C203.562 19.8914 203.43 19.856 203.296 19.8591C203.184 19.8591 203.083 19.8853 202.994 19.9384C202.905 19.9902 202.828 20.0596 202.767 20.1421C202.705 20.2254 202.658 20.3193 202.626 20.4236C202.594 20.5236 202.577 20.6279 202.577 20.7328C202.577 21.0484 202.714 21.2062 202.989 21.2062C203.118 21.2071 203.246 21.1815 203.364 21.1308L203.438 21.0967L203.467 21.3009C203.447 21.312 203.422 21.3243 203.39 21.337C203.354 21.3515 203.317 21.3638 203.279 21.3738C203.179 21.4001 203.076 21.413 202.972 21.4123ZM204.342 21.4123C204.237 21.4123 204.144 21.3968 204.063 21.3663C203.987 21.3385 203.918 21.2938 203.862 21.2355C203.807 21.1768 203.766 21.1067 203.741 21.0301C203.713 20.9426 203.7 20.8512 203.701 20.7594C203.701 20.6139 203.724 20.4747 203.77 20.3419C203.817 20.2095 203.883 20.0922 203.968 19.9903C204.053 19.8887 204.158 19.8056 204.277 19.7461C204.397 19.6855 204.531 19.6549 204.679 19.6549C204.806 19.6549 204.907 19.668 204.983 19.6942C205.058 19.7199 205.113 19.7441 205.145 19.7667L205.048 19.961C204.933 19.8914 204.801 19.856 204.667 19.8591C204.555 19.8591 204.454 19.8853 204.365 19.9384C204.276 19.9902 204.199 20.0595 204.138 20.1421C204.076 20.2254 204.029 20.3193 203.996 20.4236C203.964 20.5236 203.948 20.6279 203.947 20.7328C203.947 21.0484 204.085 21.2062 204.36 21.2062C204.489 21.2072 204.617 21.1815 204.735 21.1308L204.809 21.0967L204.838 21.3009C204.818 21.312 204.793 21.3243 204.761 21.337C204.725 21.3515 204.688 21.3638 204.65 21.3738C204.55 21.4001 204.446 21.413 204.342 21.4123ZM204.998 21.3762L205.403 19.6942H206.4L206.354 19.8904H205.591L205.469 20.3978H206.147L206.101 20.5897H205.425L205.281 21.1792H206.101L206.054 21.3758H204.998L204.998 21.3762ZM207.107 19.6771C207.303 19.6771 207.452 19.7144 207.552 19.7885C207.652 19.8631 207.702 19.9717 207.702 20.1136C207.702 20.2238 207.681 20.3193 207.64 20.399C207.598 20.479 207.538 20.5472 207.463 20.5972C207.379 20.652 207.285 20.691 207.187 20.7122C207.07 20.7384 206.949 20.7511 206.828 20.7499H206.66L206.509 21.3762H206.272L206.673 19.716C206.741 19.7001 206.813 19.6894 206.89 19.6843C206.962 19.6795 207.034 19.6771 207.107 19.6771ZM207.077 19.8761C206.962 19.8761 206.892 19.8793 206.867 19.8857L206.706 20.5532H206.86C206.928 20.5532 206.999 20.5473 207.07 20.535C207.142 20.5231 207.206 20.5013 207.263 20.4708C207.319 20.4404 207.367 20.3966 207.403 20.3431C207.442 20.2804 207.461 20.2073 207.458 20.1334C207.458 20.0414 207.424 19.9752 207.355 19.9352C207.287 19.8956 207.194 19.8761 207.077 19.8761ZM209.145 19.6942L209.099 19.8904H208.589L208.23 21.3758H207.994L208.352 19.8904H207.842L207.889 19.6942H209.145ZM208.926 21.3762L209.33 19.6942H210.328L210.282 19.8904H209.518L209.396 20.3978H210.074L210.028 20.5897H209.353L209.209 21.1792H210.028L209.982 21.3758H208.926L208.926 21.3762ZM211.031 19.6771C211.281 19.6771 211.468 19.7358 211.592 19.8531C211.716 19.9701 211.778 20.1283 211.778 20.3273C211.778 20.4668 211.755 20.6008 211.711 20.7289C211.668 20.8577 211.599 20.9711 211.507 21.0702C211.407 21.1736 211.286 21.2539 211.152 21.3057C211.008 21.3639 210.836 21.3929 210.636 21.3929C210.567 21.3929 210.493 21.3897 210.414 21.3834C210.343 21.3783 210.273 21.3669 210.204 21.3493L210.597 19.716C210.665 19.6997 210.737 19.689 210.814 19.6843C210.89 19.6795 210.962 19.6771 211.031 19.6771ZM211.011 19.8761C210.89 19.8761 210.816 19.8793 210.792 19.8857L210.48 21.182C210.493 21.1851 210.514 21.1879 210.545 21.1903C210.576 21.1927 210.627 21.1943 210.696 21.1943C210.825 21.1943 210.941 21.1729 211.044 21.1296C211.147 21.0868 211.235 21.027 211.307 20.9501C211.378 20.8732 211.433 20.782 211.472 20.6761C211.512 20.5699 211.531 20.4541 211.531 20.3277C211.531 20.185 211.489 20.0744 211.406 19.9947C211.324 19.9158 211.192 19.8761 211.011 19.8761ZM213.6 21.3762H213.363L213.551 20.5945H212.768L212.58 21.3758H212.343L212.748 19.6942H212.985L212.814 20.3978H213.598L213.768 19.6942H214.005L213.6 21.3762ZM213.973 21.3762L214.378 19.6942H215.376L215.329 19.8904H214.566L214.444 20.3978H215.122L215.076 20.5897H214.399L214.256 21.1792H215.075L215.029 21.3758L213.973 21.3762ZM216.082 19.6771C216.262 19.6771 216.406 19.7136 216.511 19.7861C216.617 19.8591 216.67 19.9657 216.67 20.1065C216.67 20.2488 216.628 20.3681 216.544 20.4644C216.461 20.5608 216.343 20.6301 216.192 20.6718C216.246 20.7711 216.295 20.8728 216.34 20.9766C216.397 21.1071 216.446 21.2403 216.489 21.3758H216.248C216.225 21.3133 216.201 21.2509 216.177 21.1887C216.153 21.1257 216.128 21.065 216.103 21.0068C216.059 20.905 216.011 20.8054 215.957 20.7082C215.915 20.7114 215.873 20.713 215.831 20.713H215.643L215.484 21.3758H215.247L215.648 19.7156C215.716 19.6997 215.789 19.689 215.865 19.6839C215.941 19.6795 216.014 19.6771 216.082 19.6771ZM216.053 19.8761C215.937 19.8761 215.867 19.8793 215.842 19.8857L215.689 20.5219H215.833C215.9 20.5219 215.968 20.5172 216.038 20.5073C216.108 20.4977 216.172 20.4787 216.229 20.4502C216.286 20.423 216.334 20.3821 216.371 20.3312C216.407 20.2805 216.426 20.2127 216.426 20.1287C216.426 20.0379 216.392 19.9733 216.322 19.9344C216.253 19.8956 216.163 19.8761 216.053 19.8761ZM216.688 21.3762L217.093 19.6942H218.091L218.044 19.8904H217.28L217.158 20.3978H217.837L217.79 20.5897H217.114L216.971 21.1792H217.79L217.743 21.3758L216.688 21.3762Z" fill="#4D4D4D"/>
<path fill-rule="evenodd" clip-rule="evenodd" d="M191.203 18.4912C189.407 18.4912 187.951 17.0426 187.951 15.2563C187.951 13.4696 189.407 12.0215 191.203 12.0215C192.999 12.0215 194.454 13.4696 194.454 15.2563C194.454 17.0426 192.999 18.4912 191.203 18.4912ZM192.636 14.7949C192.701 14.3644 192.371 14.1329 191.921 13.9783L192.067 13.3951L191.711 13.3063L191.568 13.8744C191.474 13.8514 191.378 13.8292 191.282 13.8078L191.425 13.2357L191.068 13.1473L190.922 13.7305C190.846 13.7134 190.77 13.6956 190.694 13.677V13.6754L190.203 13.5533L190.108 13.9323C190.108 13.9323 190.372 13.9925 190.367 13.9965C190.511 14.0322 190.537 14.1273 190.533 14.203L190.367 14.8674C190.379 14.8704 190.392 14.8744 190.404 14.8793L190.366 14.8698L190.133 15.8014C190.115 15.8446 190.07 15.9101 189.969 15.8851C189.973 15.8902 189.71 15.8209 189.71 15.8209L189.532 16.2276L189.997 16.3426C190.083 16.364 190.168 16.3866 190.251 16.408L190.103 16.9979L190.46 17.0863L190.606 16.5027C190.704 16.5289 190.798 16.5535 190.891 16.5761L190.745 17.1572L191.102 17.2456L191.249 16.6569C191.858 16.7715 192.316 16.7251 192.508 16.1772C192.664 15.7364 192.5 15.4823 192.18 15.3162C192.414 15.2627 192.589 15.1101 192.636 14.7949ZM191.821 15.9326C191.711 16.3739 190.964 16.1352 190.723 16.0754L190.918 15.294C191.16 15.3539 191.936 15.4728 191.821 15.9326ZM191.931 14.789C191.831 15.1893 191.21 14.986 191.008 14.936L191.186 14.2272C191.387 14.2772 192.036 14.3703 191.931 14.789Z" fill="#F7931A"/>
</g>
</g>
<g clip-path="url(#clip9_192_30604)">
<rect x="229.586" y="4" width="38.4" height="24" rx="3.30357" fill="white"/>
<path d="M248.405 14.0705V7.45508L242.998 16.566L248.405 14.0705Z" fill="#8A92B2"/>
<path d="M248.405 19.8121V14.0705L242.998 16.566L248.405 19.8121ZM248.405 14.0705L253.813 16.566L248.405 7.45508V14.0705Z" fill="#62688F"/>
<path d="M248.406 14.0703V19.8119L253.814 16.5657L248.406 14.0703Z" fill="#454A75"/>
<path d="M248.405 20.8516L242.998 17.6074L248.405 25.345V20.8516Z" fill="#8A92B2"/>
<path d="M253.817 17.6074L248.406 20.8516V25.345L253.817 17.6074Z" fill="#62688F"/>
</g>
<rect x="274.594" y="4" width="38.4" height="24" rx="3.30357" fill="white"/>
<g clip-path="url(#clip10_192_30604)">
<path d="M281.123 12.127C279.009 12.127 277.295 13.8583 277.295 15.9941C277.295 18.1301 279.009 19.8614 281.123 19.8614C283.238 19.8614 284.952 18.1301 284.952 15.9941C284.952 13.8585 283.238 12.127 281.123 12.127ZM280.532 13.9203H281.716L281.299 15.5083L281.879 15.2945L281.883 15.3083L281.737 15.8643L281.148 16.0814L280.9 17.0272H282.867L282.665 17.7876H279.513L279.835 16.5661L279.38 16.7341L279.53 16.161L279.986 15.9927L280.532 13.9203Z" fill="#BEBEBE"/>
<path fill-rule="evenodd" clip-rule="evenodd" d="M288.356 18.5518H287.641V12.5547H288.356V18.5518ZM290.007 18.5518H289.292V14.3274H290.007V18.5518ZM289.234 13.2069C289.234 13.0896 289.27 12.9907 289.341 12.91C289.411 12.8294 289.517 12.7891 289.656 12.7891C289.795 12.7891 289.9 12.8294 289.972 12.91C290.045 12.9907 290.081 13.0896 290.081 13.2069C290.081 13.324 290.045 13.4216 289.973 13.4996C289.9 13.5778 289.795 13.6167 289.656 13.6167C289.517 13.6167 289.412 13.5778 289.341 13.4996C289.27 13.4216 289.234 13.324 289.234 13.2069ZM291.853 13.3045V14.3274H292.633V14.8856H291.853V17.5056C291.853 17.6745 291.887 17.8016 291.957 17.886C292.027 17.9705 292.145 18.0129 292.313 18.0129C292.395 18.0129 292.508 17.9974 292.653 17.9662V18.5518C292.474 18.6025 292.289 18.6287 292.104 18.6298C291.784 18.6298 291.543 18.532 291.381 18.3369C291.219 18.1418 291.138 17.8647 291.138 17.5054V14.8856H290.376V14.3274H291.137V13.3045H291.853ZM294.935 18.6298C294.368 18.6298 293.906 18.4418 293.551 18.0656C293.195 17.6896 293.017 17.1865 293.017 16.5567V16.424C293.017 16.0049 293.097 15.6307 293.255 15.3014C293.413 14.9722 293.635 14.7147 293.92 14.5285C294.205 14.3422 294.513 14.2494 294.846 14.2494C295.389 14.2494 295.812 14.4302 296.113 14.792C296.415 15.1538 296.566 15.6718 296.566 16.3458V16.6465H293.733C293.743 17.0629 293.864 17.3994 294.094 17.6558C294.325 17.912 294.618 18.0402 294.973 18.0402C295.226 18.0402 295.44 17.9882 295.615 17.884C295.793 17.7772 295.949 17.6368 296.075 17.4702L296.512 17.8138C296.161 18.3578 295.636 18.6298 294.935 18.6298ZM294.846 14.8427C294.557 14.8427 294.315 14.9487 294.119 15.1609C293.923 15.3731 293.802 15.6705 293.756 16.0529H295.851V15.9985C295.83 15.6314 295.732 15.3469 295.557 15.1451C295.382 14.9436 295.145 14.8427 294.846 14.8427ZM298.801 18.0405C299.056 18.0405 299.279 17.9622 299.47 17.806C299.661 17.6498 299.766 17.4547 299.787 17.2205H300.463C300.45 17.4625 300.368 17.6929 300.216 17.9116C300.064 18.13 299.861 18.3045 299.607 18.4347C299.358 18.5637 299.081 18.6306 298.801 18.6298C298.232 18.6298 297.779 18.4378 297.443 18.054C297.106 17.67 296.938 17.1449 296.938 16.4785V16.3576C296.938 15.9465 297.013 15.5807 297.162 15.2605C297.312 14.9405 297.526 14.6916 297.806 14.5147C298.085 14.3378 298.416 14.2494 298.797 14.2494C299.266 14.2494 299.656 14.3911 299.967 14.6749C300.277 14.9585 300.443 15.3269 300.463 15.7798H299.787C299.766 15.5065 299.664 15.282 299.479 15.1062C299.295 14.9307 299.068 14.8427 298.797 14.8427C298.434 14.8427 298.152 14.9747 297.953 15.2389C297.753 15.5034 297.653 15.8851 297.653 16.3849V16.5216C297.653 17.0082 297.752 17.3831 297.951 17.646C298.149 17.9089 298.433 18.0405 298.801 18.0405ZM300.809 16.4005C300.809 15.9867 300.889 15.6145 301.05 15.2838C301.211 14.9534 301.435 14.6982 301.723 14.5187C302.01 14.3391 302.338 14.2494 302.706 14.2494C303.276 14.2494 303.736 14.4485 304.088 14.8467C304.44 15.2449 304.616 15.7745 304.616 16.4356V16.4865C304.616 16.8976 304.538 17.2665 304.382 17.5931C304.226 17.9198 304.003 18.1742 303.713 18.3565C303.423 18.5387 303.09 18.6298 302.714 18.6298C302.147 18.6298 301.688 18.4307 301.336 18.0325C300.985 17.6342 300.809 17.1071 300.809 16.4514V16.4005ZM301.528 16.4865C301.528 16.9549 301.635 17.3309 301.85 17.6147C302.066 17.8985 302.354 18.0402 302.714 18.0402C303.078 18.0402 303.366 17.8965 303.58 17.6089C303.794 17.3214 303.901 16.9185 303.901 16.4005C303.901 15.9371 303.792 15.5618 303.574 15.274C303.356 14.9865 303.067 14.8427 302.706 14.8427C302.354 14.8427 302.069 14.9845 301.852 15.2682C301.636 15.552 301.528 15.958 301.528 16.4865ZM306.02 18.5518H305.305V14.3274H306.02V18.5518ZM305.247 13.2069C305.247 13.0896 305.283 12.9907 305.354 12.91C305.425 12.8294 305.53 12.7891 305.669 12.7891C305.808 12.7891 305.913 12.8294 305.986 12.91C306.058 12.9907 306.094 13.0896 306.094 13.2069C306.094 13.324 306.058 13.4216 305.986 13.4996C305.913 13.5778 305.808 13.6167 305.669 13.6167C305.529 13.6167 305.425 13.5778 305.354 13.4996C305.283 13.4216 305.247 13.324 305.247 13.2069ZM307.572 14.3274L307.595 14.8585C307.915 14.4522 308.332 14.2494 308.847 14.2494C309.731 14.2494 310.177 14.7529 310.185 15.7602V18.5518H309.47V15.7562C309.467 15.4518 309.398 15.2267 309.263 15.0807C309.128 14.9351 308.917 14.8622 308.631 14.8622C308.399 14.8622 308.195 14.9247 308.02 15.0496C307.844 15.1755 307.703 15.3449 307.61 15.5416V18.5518H306.895V14.3274H307.572Z" fill="#BEBEBE"/>
</g>
<rect x="319.602" y="4" width="38.4" height="24" rx="3.30357" fill="white"/>
<g clip-path="url(#clip11_192_30604)">
<path d="M326.273 21.1946C328.848 21.1946 330.935 19.1388 330.935 16.6027C330.935 14.0666 328.848 12.0107 326.273 12.0107C323.698 12.0107 321.611 14.0666 321.611 16.6027C321.611 19.1388 323.698 21.1946 326.273 21.1946Z" fill="#26A17B"/>
<path d="M326.771 17.0269V17.0262C326.739 17.0284 326.572 17.038 326.202 17.038C325.906 17.038 325.698 17.0299 325.625 17.0262V17.0269C324.487 16.9775 323.637 16.7826 323.637 16.5485C323.637 16.3152 324.487 16.1196 325.625 16.0701V16.8328C325.699 16.8379 325.913 16.8505 326.207 16.8505C326.561 16.8505 326.738 16.8357 326.771 16.8328V16.0709C327.907 16.1211 328.754 16.316 328.754 16.5493C328.754 16.7826 327.906 16.9775 326.771 17.0277M326.771 15.9919V15.3097H328.356V14.2695H324.041V15.3097H325.626V15.9919C324.337 16.0502 323.369 16.3012 323.369 16.6024C323.369 16.9036 324.338 17.1546 325.626 17.2137V19.4004H326.772V17.2137C328.058 17.1554 329.025 16.9044 329.025 16.6032C329.025 16.3027 328.058 16.0509 326.772 15.9926" fill="white"/>
<path d="M334.895 14.5539V15.6569H335.983V16.4844H334.887V18.1625C334.887 18.5331 335.095 18.714 335.399 18.714C335.551 18.714 335.727 18.6667 335.871 18.5958L336.143 19.4153C335.864 19.5253 335.631 19.5726 335.335 19.5807C334.479 19.6124 333.92 19.1318 333.92 18.1625V16.4844H333.184V15.6569H333.92V14.6565L334.895 14.5539ZM353.656 15.6052L353.728 16.054C354.032 15.5734 354.44 15.5026 354.84 15.5026C355.248 15.5026 355.64 15.6598 355.856 15.8724L355.416 16.7074C355.216 16.542 355.032 16.4549 354.712 16.4549C354.2 16.4549 353.728 16.7229 353.728 17.4397V19.4884H352.752V15.6037L353.656 15.6052ZM351.264 17.0942C351.201 16.59 350.801 16.3375 350.241 16.3375C349.713 16.3375 349.281 16.59 349.137 17.0942H351.264ZM349.121 17.8901C349.185 18.3707 349.609 18.7177 350.297 18.7177C350.657 18.7177 351.129 18.5833 351.353 18.3552L351.976 18.962C351.56 19.3873 350.881 19.5925 350.28 19.5925C348.921 19.5925 348.112 18.7649 348.112 17.5202C348.112 16.3383 348.928 15.4871 350.208 15.4871C351.528 15.4871 352.353 16.291 352.201 17.8901H349.121ZM344.818 13.9736V16.1323C345.17 15.6834 345.601 15.5491 346.05 15.5491C347.169 15.5491 347.665 16.2977 347.665 17.4405V19.4891H346.69V17.4486C346.69 16.7391 346.313 16.4401 345.793 16.4401C345.217 16.4401 344.818 16.9207 344.818 17.504V19.4899H343.842V13.9744L344.818 13.9736ZM342.226 14.5096V15.6126H343.314V16.4401H342.218V18.1182C342.218 18.4888 342.427 18.6697 342.73 18.6697C342.882 18.6697 343.059 18.6224 343.202 18.5516L343.474 19.371C343.195 19.481 342.963 19.5283 342.667 19.5364C341.811 19.5681 341.251 19.0868 341.251 18.1182V16.4401H340.515V15.6126H341.251V14.6122L342.226 14.5096ZM339.53 17.0942C339.466 16.59 339.066 16.3375 338.506 16.3375C337.979 16.3375 337.546 16.59 337.402 17.0942H339.53ZM337.387 17.8901C337.45 18.3707 337.874 18.7177 338.563 18.7177C338.922 18.7177 339.394 18.5833 339.618 18.3552L340.242 18.962C339.826 19.3873 339.146 19.5925 338.546 19.5925C337.186 19.5925 336.378 18.7649 336.378 17.5202C336.378 16.3383 337.194 15.4871 338.473 15.4871C339.793 15.4871 340.617 16.291 340.465 17.8901H337.387Z" fill="#5B5A5D"/>
</g>
<defs>
<clipPath id="clip0_192_30604">
<rect x="4.55078" y="4" width="38.4" height="24" rx="3.30357" fill="white"/>
</clipPath>
<clipPath id="clip1_192_30604">
<rect width="39.567" height="23.7402" fill="white" transform="translate(4.62695 4.68457)"/>
</clipPath>
<clipPath id="clip2_192_30604">
<rect x="49.5586" y="4" width="38.4" height="24" rx="3.30357" fill="white"/>
</clipPath>
<clipPath id="clip3_192_30604">
<rect width="39.6429" height="23.7857" fill="white" transform="translate(48.5586 4.49512)"/>
</clipPath>
<clipPath id="clip4_192_30604">
<rect width="36.4663" height="17.3671" fill="white" transform="translate(95.4062 7.73047)"/>
</clipPath>
<clipPath id="clip5_192_30604">
<rect x="139.572" y="4" width="38.4" height="24" rx="3.30357" fill="white"/>
</clipPath>
<clipPath id="clip6_192_30604">
<rect width="44.7256" height="28.5917" fill="white" transform="translate(136.443 2.21484)"/>
</clipPath>
<clipPath id="clip7_192_30604">
<rect x="184.58" y="4" width="38.4" height="24" rx="3.30357" fill="white"/>
</clipPath>
<clipPath id="clip8_192_30604">
<rect width="39.6429" height="23.7857" fill="white" transform="translate(183.58 4.48047)"/>
</clipPath>
<clipPath id="clip9_192_30604">
<rect x="229.586" y="4" width="38.4" height="24" rx="3.30357" fill="white"/>
</clipPath>
<clipPath id="clip10_192_30604">
<rect width="33" height="8" fill="white" transform="translate(277.275 12)"/>
</clipPath>
<clipPath id="clip11_192_30604">
<rect width="35" height="11" fill="white" transform="translate(321.277 11)"/>
</clipPath>
</defs>
</svg>
