<svg width="362" height="32" viewBox="0 0 362 32" fill="none" xmlns="http://www.w3.org/2000/svg">
<g clip-path="url(#clip0_39_5)">
<rect x="4" y="4" width="38.4" height="24" rx="3.30357" fill="white"/>
<g clip-path="url(#clip1_39_5)">
<path d="M42.0605 4.68446H5.65885C4.78476 4.68446 4.07617 5.39305 4.07617 6.26714V26.842C4.07617 27.7161 4.78476 28.4247 5.65885 28.4247H42.0605C42.9346 28.4247 43.6432 27.7161 43.6432 26.842V6.26714C43.6432 5.39305 42.9346 4.68446 42.0605 4.68446Z" fill="white"/>
<path fill-rule="evenodd" clip-rule="evenodd" d="M20.493 20.332L21.7096 12.785H23.6544L22.4377 20.332H20.493ZM29.4917 12.9697C29.1071 12.8186 28.5025 12.6532 27.7492 12.6532C25.8262 12.6532 24.473 13.6776 24.4619 15.144C24.4497 16.2289 25.4274 16.8339 26.1649 17.1943C26.9226 17.5643 27.1774 17.8005 27.1743 18.1313C27.1691 18.6365 26.5693 18.868 26.0102 18.868C25.2319 18.868 24.818 18.754 24.1782 18.4723L23.9286 18.352L23.6563 20.0416C24.1098 20.2517 24.9502 20.4341 25.823 20.444C27.8663 20.444 29.1941 19.4318 29.2096 17.8658C29.2167 17.0056 28.6984 16.3535 27.5763 15.8154C26.8965 15.4652 26.4795 15.2338 26.4842 14.8792C26.4846 14.5659 26.8364 14.23 27.5984 14.23C28.0989 14.2187 28.5958 14.3177 29.0537 14.52L29.2282 14.6062L29.4917 12.9697ZM32.081 17.6561C32.2424 17.2224 32.8557 15.5467 32.8557 15.5467C32.8446 15.5665 33.0159 15.1095 33.1141 14.8266L33.2454 15.4775C33.2454 15.4775 33.6185 17.279 33.6957 17.6561H32.081ZM34.4803 12.7925H32.9772C32.5111 12.7925 32.1621 12.9262 31.9579 13.418L29.0699 20.3344H31.1128C31.1128 20.3344 31.4459 19.4041 31.5215 19.2C31.7442 19.2 33.7293 19.2039 34.0122 19.2039C34.0704 19.467 34.2492 20.3348 34.2492 20.3348H36.0539L34.4803 12.7925ZM18.8616 12.7913L16.9584 17.9366L16.7543 16.8904C16.3994 15.6856 15.2954 14.3795 14.0605 13.7251L15.8015 20.3253L17.8598 20.3241L20.9223 12.7913H18.8616Z" fill="#26337A"/>
<path fill-rule="evenodd" clip-rule="evenodd" d="M15.1906 12.7864H12.055L12.0292 12.9427C14.4693 13.5678 16.0837 15.0769 16.7535 16.8907L16.0726 13.423C15.9547 12.9447 15.6132 12.803 15.191 12.786" fill="#EC982D"/>
</g>
</g>
<rect x="4.25" y="4.25" width="37.9" height="23.5" rx="3.05357" stroke="black" stroke-width="0.5"/>
<g clip-path="url(#clip2_39_5)">
<rect x="49.0071" y="4" width="38.4" height="24" rx="3.30357" fill="white"/>
<g clip-path="url(#clip3_39_5)">
<path d="M86.0643 4.49507H49.5929C48.7171 4.49507 48.0071 5.20502 48.0071 6.08079V26.6951C48.0071 27.5708 48.7171 28.2808 49.5929 28.2808H86.0643C86.94 28.2808 87.65 27.5708 87.65 26.6951V6.08079C87.65 5.20502 86.94 4.49507 86.0643 4.49507Z" fill="white"/>
<path fill-rule="evenodd" clip-rule="evenodd" d="M70.259 16.58C70.259 20.8531 66.7954 24.3163 62.5227 24.3163C58.25 24.3163 54.7864 20.8531 54.7864 16.58C54.7864 12.3073 58.25 8.8437 62.5227 8.8437C66.7954 8.8437 70.259 12.3073 70.259 16.58Z" fill="#CC0000"/>
<path fill-rule="evenodd" clip-rule="evenodd" d="M72.9077 8.84371C70.9875 8.84105 69.1355 9.55509 67.7141 10.8461C67.4346 11.0998 67.1738 11.3733 66.9331 11.6651H68.4962C68.7101 11.9254 68.9071 12.1991 69.0861 12.4845H66.3428C66.1791 12.7477 66.0297 13.0209 65.8973 13.3039H69.5313C69.6558 13.5695 69.7652 13.8423 69.8592 14.123H65.5698C65.4799 14.3916 65.4048 14.665 65.345 14.942H70.0835C70.3759 16.3028 70.2984 17.7171 69.8592 19.0379H65.5698C65.6638 19.3181 65.7732 19.5917 65.8973 19.8573H69.5313C69.3992 20.1391 69.2503 20.4128 69.0853 20.6767H66.3432C66.5218 20.962 66.7189 21.2353 66.9331 21.4949H68.4958C68.2556 21.7868 67.9944 22.0607 67.7141 22.3144C69.1355 23.6053 70.9876 24.3192 72.9077 24.3163C77.1804 24.3163 80.644 20.8531 80.644 16.58C80.644 12.3077 77.1804 8.84371 72.9077 8.84371Z" fill="#FF9900"/>
<path fill-rule="evenodd" clip-rule="evenodd" d="M60.7152 17.4274C60.6531 17.419 60.5905 17.4146 60.5277 17.4143C60.0516 17.4143 59.811 17.5776 59.811 17.9003C59.811 18.0985 59.9283 18.2254 60.1119 18.2254C60.454 18.2254 60.7006 17.8995 60.7152 17.4274ZM61.3257 18.8494H60.63L60.6459 18.5188C60.4338 18.78 60.1503 18.9045 59.7658 18.9045C59.3107 18.9045 58.9987 18.5493 58.9987 18.0327C58.9987 17.2557 59.5414 16.8026 60.473 16.8026C60.5682 16.8026 60.6907 16.8113 60.8155 16.8272C60.8413 16.7218 60.848 16.677 60.848 16.6203C60.848 16.409 60.7018 16.3297 60.3097 16.3297C60.0075 16.3294 59.7072 16.378 59.4205 16.4736L59.5371 15.7561C59.9553 15.6328 60.2316 15.5868 60.542 15.5868C61.2635 15.5868 61.6457 15.9107 61.6449 16.5223C61.6461 16.6869 61.6187 16.8886 61.5767 17.155C61.5037 17.6169 61.3472 18.6084 61.3257 18.8494ZM58.6471 18.8494H57.8067L58.2883 15.833L57.214 18.8494H56.6412L56.5706 15.85L56.0647 18.8494H55.2786L55.9355 14.9251H57.143L57.216 17.1217L57.9533 14.9255H59.296L58.6471 18.8494ZM73.946 17.4274C73.884 17.419 73.8215 17.4146 73.7589 17.4143C73.2824 17.4143 73.0422 17.5776 73.0422 17.9003C73.0422 18.0985 73.1591 18.2254 73.3431 18.2254C73.6848 18.2254 73.9322 17.8995 73.946 17.4274ZM74.5573 18.8494H73.8612L73.8771 18.5188C73.665 18.78 73.3815 18.9045 72.997 18.9045C72.5415 18.9045 72.2299 18.5493 72.2299 18.0327C72.2299 17.2557 72.773 16.8026 73.7046 16.8026C73.7998 16.8026 73.9215 16.8113 74.0463 16.8272C74.0725 16.7218 74.0792 16.677 74.0792 16.6203C74.0792 16.409 73.933 16.3297 73.5405 16.3297C73.2383 16.3295 72.938 16.3781 72.6513 16.4736C72.6604 16.4205 72.7687 15.7561 72.7687 15.7561C73.1865 15.6328 73.4628 15.5868 73.7732 15.5868C74.4947 15.5868 74.8765 15.9107 74.8757 16.5223C74.8773 16.6869 74.8503 16.8886 74.8079 17.155C74.7353 17.6169 74.578 18.6084 74.5573 18.8494ZM65.0585 18.801C64.8286 18.8732 64.6494 18.9045 64.4552 18.9045C64.0258 18.9045 63.7915 18.6579 63.7915 18.2032C63.7856 18.0625 63.8534 17.6914 63.9065 17.3529C63.9553 17.0548 64.2712 15.1749 64.2712 15.1749H65.1057L65.0082 15.6581H65.5124L65.3987 16.4252H64.8928C64.7957 17.0318 64.6573 17.7877 64.6557 17.888C64.6557 18.0526 64.7438 18.1247 64.9436 18.1247C65.0391 18.1247 65.1132 18.1148 65.1699 18.0946L65.0585 18.801ZM67.6183 18.7749C67.3312 18.8629 67.0553 18.9057 66.762 18.9045C65.8272 18.9033 65.34 18.4153 65.34 17.4809C65.34 16.3899 65.9596 15.5868 66.8012 15.5868C67.4894 15.5868 67.9291 16.0363 67.9291 16.7416C67.9291 16.9755 67.8989 17.2042 67.826 17.5265H66.1634C66.1075 17.9895 66.4036 18.1822 66.8896 18.1822C67.1877 18.1822 67.4577 18.1207 67.7574 17.9816L67.6183 18.7749ZM67.1489 16.8831C67.1536 16.8165 67.2373 16.3134 66.7604 16.3134C66.4948 16.3134 66.3045 16.516 66.2272 16.8831H67.1489ZM61.8296 16.667C61.8296 17.0702 62.0254 17.3489 62.469 17.5578C62.8092 17.718 62.8623 17.7652 62.8623 17.9102C62.8623 18.1089 62.7117 18.1992 62.3799 18.1992C62.1289 18.1992 61.8962 18.1596 61.627 18.0728L61.5121 18.8101C61.7024 18.8514 61.8728 18.8898 62.3858 18.9045C63.2718 18.9045 63.6813 18.5671 63.6813 17.8381C63.6813 17.3992 63.5101 17.142 63.0895 16.9485C62.7374 16.7868 62.6966 16.7507 62.6966 16.6016C62.6966 16.4292 62.8365 16.3412 63.1077 16.3412C63.2726 16.3412 63.4978 16.3586 63.7111 16.3888L63.8308 15.6486C63.5859 15.6119 63.339 15.5912 63.0914 15.5868C62.1519 15.5868 61.8268 16.0776 61.8296 16.667ZM71.7031 15.6712C71.9362 15.6712 72.1542 15.7315 72.4535 15.8829L72.5911 15.0314C72.4678 14.983 72.0349 14.6992 71.6678 14.6992C71.106 14.6992 70.6303 14.9783 70.2965 15.4381C69.8089 15.2768 69.6083 15.603 69.3629 15.9281L69.1449 15.9788C69.1642 15.8729 69.1731 15.7654 69.1715 15.6577H68.3992C68.2942 16.646 68.1075 17.6462 67.9616 18.6349L67.9231 18.8494H68.7635C68.9035 17.938 68.9804 17.3548 69.0272 16.9596L69.3435 16.7844C69.3911 16.608 69.5386 16.5489 69.8351 16.556C69.7952 16.7718 69.7753 16.9908 69.7756 17.2102C69.7756 18.2543 70.3397 18.9045 71.2436 18.9045C71.4763 18.9045 71.6765 18.874 71.9861 18.7895L72.1332 17.8956C71.8549 18.0323 71.6265 18.0966 71.4196 18.0966C70.932 18.0966 70.6363 17.7358 70.6363 17.1404C70.6363 16.2762 71.0759 15.6712 71.7031 15.6712ZM78.8138 14.9251L78.6275 16.0589C78.3975 15.7568 78.1514 15.538 77.8255 15.538C77.4017 15.538 77.016 15.8591 76.7631 16.3325C76.5215 16.2796 76.2829 16.2138 76.0483 16.1354V16.1386C76.0761 15.8738 76.088 15.7132 76.0852 15.6581H75.3129C75.2083 16.646 75.0212 17.6462 74.8753 18.6345L74.8368 18.8494H75.6773C75.7906 18.1128 75.8774 17.5007 75.9413 17.0159C76.2287 16.7562 76.3726 16.5303 76.662 16.5449C76.5276 16.8736 76.4586 17.2253 76.4586 17.5804C76.4586 18.378 76.8618 18.9045 77.4727 18.9045C77.7803 18.9045 78.0166 18.7982 78.2469 18.5525L78.2073 18.849H79.0021L79.6419 14.9251H78.8138ZM77.7633 18.1124C77.4778 18.1124 77.3327 17.9003 77.3327 17.4829C77.3327 16.8557 77.6035 16.411 77.9845 16.411C78.2731 16.411 78.4293 16.6306 78.4293 17.0361C78.4293 17.6688 78.1545 18.1124 77.7633 18.1124Z" fill="#000066"/>
<path fill-rule="evenodd" clip-rule="evenodd" d="M58.8889 18.6164H58.0484L58.5301 15.6004L57.4558 18.6164H56.8833L56.8128 15.6179L56.3069 18.6164H55.5208L56.1773 14.693H57.3852L57.4189 17.1219L58.234 14.693H59.5382L58.8889 18.6164ZM60.957 17.1953C60.8949 17.1867 60.8323 17.1823 60.7695 17.1822C60.2934 17.1822 60.0524 17.3451 60.0524 17.6674C60.0524 17.8656 60.1701 17.9929 60.3537 17.9929C60.6958 17.9929 60.9424 17.6674 60.957 17.1953ZM61.5675 18.6164H60.8718L60.8877 18.2862C60.6756 18.5471 60.3921 18.6719 60.0076 18.6719C59.5525 18.6719 59.2405 18.3164 59.2405 17.7998C59.2405 17.0228 59.7832 16.5701 60.7152 16.5701C60.8104 16.5701 60.9321 16.5788 61.0573 16.5951C61.0831 16.4892 61.0898 16.4444 61.0898 16.3873C61.0898 16.1764 60.944 16.0979 60.5515 16.0979C60.2493 16.097 59.949 16.1452 59.6623 16.2407L59.7789 15.5231C60.1971 15.4002 60.4734 15.3542 60.7838 15.3542C61.5053 15.3542 61.8871 15.6781 61.8867 16.2898C61.8879 16.4539 61.8609 16.6569 61.8185 16.9221C61.7455 17.384 61.5889 18.3758 61.5675 18.6164ZM72.8328 14.7984L72.6953 15.65C72.3952 15.4993 72.1779 15.4383 71.9448 15.4383C71.3177 15.4383 70.8781 16.0444 70.8781 16.909C70.8781 17.5041 71.1738 17.864 71.6618 17.864C71.8687 17.864 72.0971 17.8002 72.3754 17.6626L72.2275 18.557C71.9183 18.641 71.7181 18.6719 71.4854 18.6719C70.5811 18.6719 70.0178 18.0218 70.0178 16.978C70.0178 15.575 70.7964 14.5947 71.9096 14.5947C72.2763 14.5947 72.7096 14.7501 72.8328 14.7984ZM74.1874 17.1953C74.1256 17.1867 74.0632 17.1823 74.0007 17.1822C73.525 17.1822 73.284 17.3451 73.284 17.6674C73.284 17.8656 73.4013 17.9929 73.5845 17.9929C73.9266 17.9929 74.1736 17.6674 74.1874 17.1953ZM74.7987 18.6164H74.103L74.1189 18.2862C73.9064 18.5471 73.6233 18.6719 73.2388 18.6719C72.7829 18.6719 72.4717 18.3164 72.4717 17.7998C72.4717 17.0228 73.014 16.5701 73.946 16.5701C74.0412 16.5701 74.1629 16.5788 74.2877 16.5951C74.3139 16.4892 74.3206 16.4444 74.3206 16.3873C74.3206 16.1764 74.1748 16.0979 73.7823 16.0979C73.4803 16.0971 73.1801 16.1453 72.8935 16.2407L73.0101 15.5231C73.4283 15.4002 73.7042 15.3542 74.015 15.3542C74.7361 15.3542 75.1183 15.6781 75.1171 16.2898C75.1191 16.4539 75.0917 16.6569 75.0497 16.9221C74.9767 17.384 74.8201 18.3758 74.7987 18.6164ZM65.3003 18.5685C65.0704 18.6406 64.8912 18.6719 64.6969 18.6719C64.2676 18.6719 64.0329 18.4254 64.0329 17.9711C64.0274 17.8295 64.0952 17.4593 64.1487 17.1203C64.1967 16.8218 64.5126 14.9427 64.5126 14.9427H65.3475L65.25 15.4256H65.6781L65.5643 16.1923H65.1342C65.0375 16.7996 64.8991 17.5552 64.8975 17.6555C64.8975 17.8204 64.9855 17.8922 65.1853 17.8922C65.2809 17.8922 65.355 17.8827 65.4117 17.8616L65.3003 18.5685ZM67.86 18.5431C67.5827 18.6293 67.2938 18.6728 67.0034 18.6719C66.0686 18.6716 65.5818 18.1832 65.5818 17.2488C65.5818 16.1574 66.2014 15.3538 67.0422 15.3538C67.7312 15.3538 68.1708 15.8038 68.1708 16.5094C68.1708 16.7433 68.1403 16.9717 68.0678 17.2944H66.4052C66.3489 17.757 66.6454 17.9501 67.1306 17.9501C67.4295 17.9501 67.6991 17.8882 67.9988 17.7491L67.86 18.5431ZM67.3911 16.6506C67.3954 16.5836 67.4795 16.0809 67.0026 16.0809C66.737 16.0809 66.5463 16.2839 66.469 16.6506H67.3911ZM62.0714 16.4345C62.0714 16.8385 62.2672 17.1164 62.7112 17.3257C63.051 17.4854 63.1037 17.533 63.1037 17.6777C63.1037 17.8767 62.9538 17.9663 62.6212 17.9663C62.3653 17.9655 62.1112 17.9232 61.8688 17.841L61.7539 18.5772C61.9441 18.6192 62.1146 18.6573 62.6272 18.6723C63.5136 18.6723 63.9231 18.3346 63.9231 17.6056C63.9231 17.1667 63.7519 16.9094 63.3309 16.7164C62.9788 16.5542 62.9384 16.5185 62.9384 16.3695C62.9384 16.197 63.0779 16.1078 63.3495 16.1078C63.514 16.1078 63.7396 16.1265 63.9528 16.1566L64.0726 15.4165C63.8277 15.3797 63.5808 15.359 63.3332 15.3542C62.3937 15.3542 62.0686 15.8446 62.0714 16.4345ZM79.2443 18.6164H78.4498L78.4891 18.3195C78.2588 18.5657 78.0225 18.6723 77.7149 18.6723C77.1044 18.6723 76.7004 18.1459 76.7004 17.3479C76.7004 16.2862 77.3268 15.3915 78.0673 15.3915C78.3928 15.3915 78.6393 15.5247 78.8693 15.8268L79.0556 14.693H79.8841L79.2443 18.6164ZM78.0051 17.8791C78.3963 17.8791 78.6711 17.4363 78.6711 16.804C78.6711 16.3984 78.5145 16.178 78.2259 16.178C77.8453 16.178 77.5745 16.6228 77.5745 17.2504C77.5745 17.6682 77.7196 17.8791 78.0051 17.8791ZM75.5555 15.4256C75.4505 16.4135 75.2634 17.4137 75.1175 18.402L75.079 18.6164H75.9194C76.2195 16.6652 76.2921 16.2843 76.7634 16.3318C76.8384 15.9326 76.9779 15.5826 77.0822 15.4066C76.7305 15.3328 76.5339 15.5318 76.2766 15.9096C76.2968 15.7463 76.3341 15.5877 76.327 15.4256H75.5555ZM68.6418 15.4256C68.5364 16.4135 68.3492 17.4137 68.2034 18.402L68.1653 18.6164H69.0057C69.3062 16.6652 69.3784 16.2843 69.8489 16.3318C69.9243 15.9326 70.0642 15.5826 70.1681 15.4066C69.8168 15.3328 69.6198 15.5318 69.3629 15.9096C69.3831 15.7463 69.4204 15.5877 69.4133 15.4256H68.6418Z" fill="white"/>
</g>
</g>
<rect x="49.2571" y="4.25" width="37.9" height="23.5" rx="3.05357" stroke="#2B2B2B" stroke-width="0.5"/>
<g clip-path="url(#clip4_39_5)">
<rect x="94.0143" y="4" width="38.4" height="24" rx="3.30357" fill="white"/>
<g clip-path="url(#clip5_39_5)">
<path d="M112.087 16.7097V20.9489H110.719V10.4648H114.275C115.141 10.4648 115.961 10.7839 116.6 11.3765C117.238 11.9235 117.557 12.744 117.557 13.6101C117.557 14.4761 117.238 15.251 116.6 15.8436C115.961 16.4362 115.186 16.7553 114.275 16.7553L112.087 16.7097ZM112.087 11.7412V15.3878H114.366C114.867 15.3878 115.369 15.2055 115.688 14.8408C116.417 14.1571 116.417 13.0175 115.733 12.3337L115.688 12.2882C115.323 11.9235 114.867 11.6956 114.366 11.7412H112.087Z" fill="#5F6368"/>
<path d="M120.702 13.5654C121.705 13.5654 122.48 13.8389 123.073 14.3859C123.665 14.9329 123.939 15.6622 123.939 16.5739V20.9499H122.663V19.947H122.617C122.07 20.7675 121.295 21.1778 120.383 21.1778C119.608 21.1778 118.925 20.9499 118.378 20.494C117.876 20.0382 117.557 19.4 117.557 18.7163C117.557 17.987 117.831 17.3944 118.378 16.9386C118.925 16.4827 119.7 16.3004 120.611 16.3004C121.432 16.3004 122.07 16.4372 122.571 16.7562V16.4372C122.571 15.9813 122.389 15.5255 122.024 15.252C121.66 14.9329 121.204 14.7506 120.702 14.7506C119.928 14.7506 119.335 15.0697 118.925 15.7078L117.74 14.9785C118.469 14.0213 119.426 13.5654 120.702 13.5654ZM118.97 18.7619C118.97 19.1265 119.153 19.4456 119.426 19.628C119.745 19.8559 120.11 19.9926 120.475 19.9926C121.022 19.9926 121.569 19.7647 121.979 19.3545C122.435 18.9442 122.663 18.4428 122.663 17.8958C122.252 17.5767 121.66 17.3944 120.885 17.3944C120.338 17.3944 119.882 17.5311 119.517 17.8046C119.153 18.0326 118.97 18.3516 118.97 18.7619Z" fill="#5F6368"/>
<path d="M131.323 13.793L126.81 24.1403H125.443L127.13 20.5392L124.167 13.8386H125.625L127.768 18.9894H127.813L129.91 13.8386H131.323V13.793Z" fill="#5F6368"/>
<path d="M106.663 15.7991C106.663 15.3889 106.617 14.9786 106.572 14.5684H100.874V16.8931H104.11C103.973 17.6224 103.563 18.3062 102.925 18.7164V20.2206H104.885C106.025 19.1722 106.663 17.6224 106.663 15.7991Z" fill="#4285F4"/>
<path d="M100.874 21.6791C102.515 21.6791 103.882 21.1321 104.885 20.2205L102.925 18.7162C102.378 19.0809 101.694 19.3088 100.874 19.3088C99.3237 19.3088 97.9562 18.2604 97.5004 16.8018H95.4948V18.3516C96.5432 20.4028 98.5944 21.6791 100.874 21.6791Z" fill="#34A853"/>
<path d="M97.4996 16.8013C97.2261 16.072 97.2261 15.2515 97.4996 14.4766V12.9268H95.4939C94.6278 14.6133 94.6278 16.619 95.4939 18.3511L97.4996 16.8013Z" fill="#FBBC04"/>
<path d="M100.873 12.0153C101.739 12.0153 102.559 12.3344 103.198 12.927L104.93 11.1948C103.836 10.192 102.377 9.59945 100.918 9.64503C98.6393 9.64503 96.5425 10.9214 95.5397 12.9726L97.5453 14.5224C97.9556 13.0637 99.3231 12.0153 100.873 12.0153Z" fill="#EA4335"/>
</g>
</g>
<rect x="94.2643" y="4.25" width="37.9" height="23.5" rx="3.05357" stroke="#2B2B2B" stroke-width="0.5"/>
<g clip-path="url(#clip6_39_5)">
<rect x="139.021" y="4" width="38.4" height="24" rx="3.30357" fill="white"/>
<g clip-path="url(#clip7_39_5)">
<path d="M176.608 2.81055L177.063 2.81114C177.188 2.81174 177.312 2.81353 177.437 2.8165C177.665 2.82246 177.932 2.83497 178.189 2.88143C178.427 2.92431 178.628 2.99043 178.823 3.0893C179.217 3.28901 179.538 3.60908 179.737 4.00301C179.836 4.19719 179.902 4.39851 179.945 4.63677C179.991 4.8911 180.004 5.15855 180.009 5.38667C180.013 5.51057 180.015 5.63505 180.015 5.76073C180.016 5.91143 180.016 6.06332 180.016 6.21461V26.8069C180.016 26.9582 180.016 27.1095 180.015 27.2626C180.015 27.3867 180.013 27.5108 180.009 27.6349C180.003 27.863 179.991 28.1305 179.945 28.3866C179.908 28.6064 179.838 28.8194 179.737 29.0185C179.536 29.4121 179.216 29.7321 178.822 29.9328C178.623 30.0334 178.409 30.1035 178.189 30.1407C177.941 30.1804 177.69 30.2019 177.439 30.2051C177.314 30.208 177.189 30.2098 177.062 30.2098C176.911 30.211 176.759 30.211 176.608 30.211H139.899C139.749 30.211 139.599 30.211 139.448 30.2098C139.323 30.2098 139.197 30.208 139.075 30.2051C138.823 30.2018 138.572 30.1803 138.324 30.1407C138.103 30.1038 137.889 30.0335 137.689 29.9323C137.493 29.8331 137.314 29.7031 137.159 29.5475C137.004 29.3926 136.874 29.2141 136.775 29.0185C136.674 28.8189 136.604 28.6053 136.567 28.3848C136.526 28.1368 136.505 27.8861 136.502 27.6349C136.499 27.5106 136.497 27.3863 136.497 27.262L136.496 26.8987V6.12348L136.497 5.76073C136.497 5.63625 136.499 5.51176 136.502 5.38667C136.508 5.15974 136.52 4.89289 136.567 4.63558C136.604 4.41521 136.674 4.20171 136.775 4.00242C136.975 3.60893 137.295 3.28916 137.689 3.0893C137.889 2.9887 138.103 2.91881 138.323 2.88202C138.572 2.84154 138.823 2.81984 139.075 2.8171C139.2 2.81412 139.324 2.81233 139.448 2.81174L139.904 2.81055H176.608Z" fill="white"/>
<path d="M176.607 2.81048L177.062 2.81108C177.186 2.81167 177.311 2.81346 177.436 2.81644C177.663 2.82239 177.93 2.8349 178.187 2.88136C178.425 2.92425 178.627 2.99036 178.822 3.08924C179.216 3.28894 179.536 3.60901 179.736 4.00294C179.835 4.19712 179.901 4.39845 179.944 4.6367C179.989 4.89104 180.003 5.15848 180.008 5.38661C180.012 5.5105 180.013 5.63499 180.014 5.76067C180.015 5.91136 180.015 6.06325 180.015 6.21454V26.8069C180.015 26.9582 180.015 27.1095 180.014 27.2625C180.013 27.3867 180.011 27.5108 180.008 27.6348C180.002 27.8629 179.989 28.1304 179.944 28.3865C179.906 28.6063 179.836 28.8194 179.736 29.0185C179.535 29.4121 179.215 29.7321 178.821 29.9328C178.621 30.0333 178.408 30.1034 178.187 30.1407C177.939 30.1804 177.689 30.2019 177.438 30.205C177.313 30.208 177.187 30.2098 177.06 30.2098C176.909 30.2109 176.757 30.2109 176.607 30.2109H139.897C139.748 30.2109 139.598 30.2109 139.446 30.2098C139.321 30.2098 139.196 30.208 139.074 30.205C138.822 30.2017 138.571 30.1802 138.322 30.1407C138.101 30.1038 137.887 30.0335 137.687 29.9322C137.491 29.833 137.313 29.7031 137.158 29.5474C137.003 29.3926 136.873 29.214 136.774 29.0185C136.673 28.8189 136.603 28.6052 136.566 28.3847C136.525 28.1367 136.503 27.8861 136.501 27.6348C136.498 27.5105 136.496 27.3863 136.495 27.2619L136.495 26.8986V6.12341L136.495 5.76067C136.496 5.63618 136.498 5.51169 136.501 5.38661C136.507 5.15967 136.519 4.89282 136.566 4.63551C136.602 4.41514 136.673 4.20165 136.774 4.00235C136.974 3.60886 137.294 3.28909 137.688 3.08924C137.888 2.98863 138.101 2.91874 138.322 2.88196C138.57 2.84148 138.822 2.81977 139.074 2.81703C139.198 2.81405 139.323 2.81227 139.447 2.81167L139.903 2.81048H176.607ZM176.607 2.21484H139.903L139.444 2.21544C139.315 2.21604 139.186 2.21782 139.058 2.2214C138.776 2.22514 138.495 2.24983 138.217 2.29525C137.939 2.34299 137.669 2.43171 137.417 2.55853C136.912 2.81671 136.501 3.22752 136.242 3.73253C136.115 3.98413 136.026 4.25337 135.979 4.53127C135.933 4.80895 135.908 5.0897 135.904 5.37112C135.901 5.49918 135.9 5.62784 135.899 5.7565L135.898 6.21454V26.8069L135.899 27.2655C135.9 27.3942 135.901 27.5228 135.905 27.6509C135.913 27.9308 135.929 28.2132 135.979 28.4902C136.03 28.7719 136.112 29.0334 136.242 29.2889C136.5 29.7949 136.911 30.2061 137.418 30.4629C137.674 30.5933 137.935 30.6755 138.217 30.7262C138.494 30.7756 138.777 30.7923 139.058 30.8C139.186 30.8036 139.315 30.8054 139.444 30.8054C139.597 30.8066 139.75 30.8066 139.903 30.8066H176.607C176.76 30.8066 176.913 30.8066 177.066 30.8054C177.195 30.8048 177.323 30.803 177.452 30.8C177.732 30.7923 178.015 30.7756 178.293 30.7262C178.571 30.6784 178.84 30.5897 179.092 30.4629C179.599 30.2063 180.01 29.7951 180.267 29.2889C180.398 29.0334 180.48 28.7719 180.53 28.4902C180.58 28.2132 180.597 27.9308 180.604 27.6509C180.608 27.5222 180.61 27.3936 180.61 27.2655C180.611 27.1124 180.611 26.96 180.611 26.8069V6.21454C180.611 6.06146 180.611 5.90898 180.61 5.7559C180.61 5.62742 180.608 5.49896 180.604 5.37053C180.601 5.08912 180.576 4.80837 180.53 4.53068C180.483 4.2528 180.394 3.98356 180.267 3.73193C180.01 3.22635 179.598 2.81535 179.092 2.55793C178.84 2.43112 178.571 2.3424 178.293 2.29466C178.015 2.24928 177.734 2.22459 177.452 2.2208C177.323 2.21723 177.194 2.21604 177.066 2.21484H176.607Z" fill="black"/>
<path d="M149.231 10.7936C149.644 10.2939 149.922 9.59936 149.847 8.90723C149.25 8.93165 148.529 9.30511 148.105 9.80306C147.72 10.245 147.387 10.9526 147.479 11.6311C148.142 11.6823 148.819 11.2933 149.231 10.7936ZM150.944 15.1858C150.931 13.689 152.167 12.9689 152.224 12.9331C151.527 11.9206 150.446 11.78 150.061 11.7645C149.139 11.6734 148.261 12.3065 147.795 12.3065C147.328 12.3065 146.609 11.7788 145.843 11.7949C144.839 11.8092 143.913 12.378 143.396 13.2756C142.355 15.0881 143.131 17.7649 144.148 19.2308C144.645 19.9485 145.236 20.755 146.016 20.7258C146.766 20.6967 147.047 20.241 147.954 20.241C148.858 20.2398 149.114 20.7247 149.904 20.711C150.711 20.6937 151.222 19.9783 151.717 19.257C152.285 18.4261 152.52 17.619 152.532 17.5785C152.516 17.5678 150.962 16.9757 150.944 15.1858ZM160.543 10.793C160.242 10.5035 159.855 10.2784 159.391 10.1235C158.931 9.97044 158.379 9.89301 157.75 9.89301C157.347 9.89122 156.944 9.9121 156.543 9.95555C156.209 9.99278 155.876 10.0395 155.545 10.0955L155.448 10.1122V20.6353H156.41V16.202C156.733 16.2574 157.104 16.2866 157.513 16.2866C158.058 16.2866 158.568 16.2169 159.029 16.0805C159.473 15.9543 159.887 15.7389 160.245 15.4473C160.589 15.1597 160.866 14.8 161.056 14.3936C161.253 13.9767 161.353 13.4865 161.353 12.9349C161.353 12.4787 161.281 12.0683 161.14 11.7151C161.004 11.3712 160.801 11.0578 160.543 10.793ZM159.659 14.8124C159.165 15.2257 158.466 15.4354 157.58 15.4354C157.336 15.4354 157.105 15.4247 156.893 15.405C156.73 15.3903 156.569 15.3632 156.41 15.324V10.849C156.537 10.8258 156.695 10.8037 156.88 10.7841C157.114 10.7591 157.396 10.7466 157.719 10.7466C158.09 10.7429 158.46 10.7908 158.818 10.8889C159.123 10.9727 159.41 11.1129 159.663 11.3023C159.894 11.481 160.075 11.7133 160.201 11.9932C160.328 12.2767 160.392 12.6151 160.392 12.9981C160.391 13.7932 160.144 14.4038 159.659 14.8124ZM167.102 19.6501C167.091 19.3523 167.087 19.0533 167.087 18.7555V15.8303C167.087 15.4836 167.052 15.1298 166.984 14.7784C166.917 14.4287 166.782 14.0958 166.585 13.7992C166.39 13.5061 166.116 13.2643 165.774 13.0797C165.431 12.8956 164.986 12.8027 164.45 12.8027C164.059 12.8027 163.677 12.8533 163.316 12.954C162.937 13.0628 162.579 13.2331 162.255 13.4579L162.177 13.5121L162.502 14.2715L162.62 14.1923C162.876 14.0203 163.157 13.8871 163.452 13.7968C163.751 13.7035 164.062 13.6557 164.375 13.655C164.775 13.655 165.096 13.7277 165.324 13.8707C165.556 14.0154 165.731 14.1947 165.843 14.4044C165.961 14.6206 166.038 14.8505 166.072 15.0893C166.108 15.3377 166.125 15.5599 166.125 15.7505V15.8351C164.7 15.8285 163.586 16.0656 162.847 16.5415C162.071 17.0406 161.678 17.7512 161.678 18.653C161.678 18.9127 161.724 19.1742 161.816 19.4327C161.909 19.6942 162.05 19.9283 162.235 20.1284C162.421 20.3309 162.661 20.4959 162.949 20.6192C163.235 20.7437 163.572 20.8063 163.948 20.8063C164.481 20.8152 165.005 20.672 165.459 20.3935C165.657 20.2714 165.833 20.1326 165.984 19.9831C166.048 19.9188 166.109 19.8516 166.167 19.7818H166.204L166.292 20.6359H167.219L167.193 20.4989C167.143 20.2186 167.112 19.9349 167.102 19.6501ZM166.125 18.1515C166.125 18.254 166.101 18.3945 166.054 18.5631C165.992 18.7455 165.905 18.9184 165.796 19.0771C165.552 19.4334 165.198 19.7002 164.789 19.8366C164.54 19.9182 164.279 19.9579 164.017 19.9539C163.845 19.9539 163.673 19.9247 163.511 19.8675C163.353 19.8126 163.207 19.7258 163.084 19.6126C162.955 19.4907 162.853 19.3432 162.785 19.1796C162.709 19.0051 162.671 18.7888 162.671 18.5375C162.671 18.1259 162.782 17.7917 163 17.5475C163.234 17.2873 163.528 17.088 163.857 16.9668C164.23 16.8269 164.619 16.7381 165.016 16.7029C165.385 16.6674 165.755 16.6513 166.125 16.6547V18.1515ZM173.63 12.9736L171.835 17.8477C171.723 18.142 171.619 18.4386 171.523 18.7275C171.477 18.8716 171.433 19.008 171.389 19.1379H171.355C171.31 18.9956 171.265 18.8537 171.218 18.712C171.125 18.4261 171.025 18.1455 170.922 17.8781L169.003 12.9736H167.976L170.722 20.0248C170.795 20.1945 170.805 20.2726 170.805 20.3041C170.805 20.3137 170.802 20.3714 170.721 20.5859C170.571 20.9685 170.376 21.3317 170.139 21.6675C169.919 21.9666 169.717 22.2096 169.538 22.3889C169.329 22.5973 169.114 22.7683 168.895 22.8975C168.671 23.0292 168.467 23.1358 168.286 23.2162L168.183 23.2627L168.517 24.0745L168.623 24.0352C168.71 24.0024 168.874 23.928 169.122 23.8071C169.372 23.6838 169.65 23.4884 169.945 23.2239C170.208 22.9934 170.44 22.7315 170.638 22.4443C170.841 22.1536 171.044 21.8123 171.243 21.4335C171.44 21.0552 171.637 20.6252 171.829 20.154C172.021 19.6805 172.227 19.151 172.44 18.5821L174.658 12.9736H173.63Z" fill="black"/>
</g>
</g>
<rect x="139.271" y="4.25" width="37.9" height="23.5" rx="3.05357" stroke="#2B2B2B" stroke-width="0.5"/>
<g clip-path="url(#clip8_39_5)">
<rect x="184.029" y="4" width="38.4" height="24" rx="3.30357" fill="white"/>
<g clip-path="url(#clip9_39_5)">
<path d="M221.086 4.48048H184.614C183.739 4.48048 183.029 5.19042 183.029 6.06619V26.6805C183.029 27.5562 183.739 28.2662 184.614 28.2662H221.086C221.962 28.2662 222.672 27.5562 222.672 26.6805V6.06619C222.672 5.19042 221.962 4.48048 221.086 4.48048Z" fill="white"/>
<path fill-rule="evenodd" clip-rule="evenodd" d="M196.931 13.9781C197.195 13.9781 197.423 14.0249 197.614 14.1172C197.807 14.2104 197.966 14.3361 198.093 14.4938C198.219 14.6528 198.312 14.8387 198.373 15.0512C198.432 15.2645 198.463 15.4936 198.463 15.7394C198.465 16.1061 198.394 16.4695 198.253 16.8082C198.12 17.1341 197.925 17.4316 197.681 17.6847C197.436 17.9349 197.145 18.135 196.824 18.2738C196.487 18.4205 196.123 18.4945 195.755 18.491C195.705 18.491 195.618 18.4898 195.495 18.4871C195.353 18.4829 195.212 18.4707 195.071 18.4506C194.901 18.4264 194.732 18.3933 194.565 18.3515C194.39 18.3095 194.22 18.2492 194.058 18.1715L195.482 12.2171L196.758 12.0205L196.248 14.1335C196.357 14.0847 196.467 14.0463 196.577 14.0189C196.687 13.9924 196.805 13.9781 196.931 13.9781ZM195.861 17.4845C196.054 17.4845 196.234 17.4373 196.404 17.3449C196.575 17.2526 196.722 17.1281 196.846 16.9723C196.969 16.8165 197.066 16.6405 197.138 16.4439C197.209 16.2476 197.245 16.0427 197.245 15.8294C197.245 15.5674 197.201 15.3628 197.113 15.2149C197.025 15.0683 196.863 14.9941 196.627 14.9941C196.55 14.9941 196.45 15.0088 196.327 15.0346C196.203 15.0631 196.088 15.1225 195.993 15.2074L195.45 17.4512C195.483 17.4567 195.512 17.4623 195.536 17.4674C195.594 17.4791 195.654 17.4848 195.713 17.4845H195.861ZM199.786 18.3769H198.567L199.596 14.0689H200.823L199.786 18.3769ZM200.379 13.5444C200.209 13.5444 200.055 13.4936 199.918 13.393C199.78 13.2927 199.711 13.138 199.711 12.9299C199.711 12.8158 199.735 12.7079 199.781 12.6068C199.871 12.4086 200.033 12.2518 200.234 12.168C200.336 12.1244 200.444 12.103 200.56 12.103C200.73 12.103 200.883 12.1533 201.02 12.2544C201.157 12.3555 201.226 12.5101 201.226 12.717C201.226 12.832 201.203 12.9398 201.156 13.0409C201.066 13.239 200.905 13.3956 200.704 13.479C200.601 13.5231 200.491 13.5453 200.379 13.5444ZM201.891 12.9957L203.168 12.7991L202.854 14.0689H204.22L203.974 15.0679H202.615L202.253 16.5747C202.222 16.6896 202.203 16.8074 202.196 16.9263C202.19 17.0361 202.204 17.1301 202.237 17.2094C202.269 17.2887 202.328 17.3497 202.414 17.3929C202.499 17.4369 202.62 17.4591 202.78 17.4591C202.911 17.4591 203.039 17.4468 203.163 17.4219C203.286 17.3981 203.411 17.3636 203.537 17.3196L203.628 18.2536C203.463 18.3138 203.285 18.3658 203.093 18.409C202.901 18.4526 202.673 18.474 202.41 18.474C202.031 18.474 201.737 18.4185 201.528 18.3075C201.319 18.1949 201.172 18.0419 201.083 17.8476C200.996 17.6546 200.957 17.4314 200.969 17.1808C200.98 16.9291 201.018 16.6647 201.083 16.386L201.891 12.9961V12.9957ZM204.167 16.6571C204.167 16.2861 204.227 15.936 204.348 15.6082C204.463 15.2901 204.639 14.9978 204.867 14.7479C205.097 14.4992 205.376 14.3013 205.686 14.1668C206.007 14.0249 206.365 13.9535 206.76 13.9535C206.983 13.9508 207.205 13.9742 207.423 14.0233C207.606 14.0658 207.784 14.1275 207.954 14.2072L207.534 15.1582C207.424 15.1138 207.31 15.075 207.193 15.0393C207.075 15.0032 206.931 14.9858 206.761 14.9858C206.354 14.9858 206.033 15.1253 205.793 15.4032C205.555 15.6815 205.435 16.0558 205.435 16.5255C205.435 16.8042 205.495 17.029 205.616 17.2014C205.737 17.3735 205.96 17.4591 206.283 17.4591C206.577 17.458 206.867 17.3997 207.139 17.2875L207.23 18.2619C207.076 18.3214 206.906 18.3753 206.72 18.422C206.533 18.4676 206.31 18.491 206.052 18.491C205.712 18.491 205.424 18.4415 205.188 18.3439C204.953 18.2448 204.758 18.1132 204.604 17.9463C204.45 17.779 204.336 17.5786 204.27 17.3604C204.201 17.1325 204.166 16.8954 204.167 16.6571ZM209.579 18.4914C209.288 18.4914 209.036 18.4478 208.822 18.3606C208.619 18.2807 208.437 18.1545 208.291 17.9919C208.148 17.8285 208.041 17.6376 207.974 17.431C207.9 17.1996 207.865 16.9578 207.868 16.715C207.868 16.3868 207.921 16.0589 208.028 15.7319C208.131 15.4107 208.291 15.111 208.502 14.8474C208.711 14.584 208.972 14.3651 209.267 14.2036C209.568 14.0375 209.915 13.9539 210.304 13.9539C210.589 13.9539 210.841 13.9983 211.058 14.0855C211.274 14.1727 211.452 14.2956 211.593 14.4542C211.732 14.6128 211.838 14.7991 211.909 15.0151C211.981 15.23 212.016 15.4694 212.016 15.7315C212.015 16.0652 211.962 16.3968 211.86 16.7146C211.76 17.0342 211.604 17.3335 211.399 17.5987C211.193 17.8636 210.934 18.0826 210.638 18.2417C210.333 18.4082 209.98 18.4914 209.579 18.4914ZM210.188 14.9862C210.007 14.9862 209.848 15.0385 209.711 15.1416C209.571 15.2487 209.454 15.3823 209.366 15.5349C209.272 15.6934 209.202 15.8667 209.156 16.0546C209.111 16.2299 209.087 16.41 209.086 16.5909C209.086 16.8645 209.13 17.0774 209.217 17.2304C209.305 17.3826 209.464 17.4595 209.695 17.4595C209.876 17.4595 210.035 17.408 210.172 17.3033C210.309 17.2003 210.424 17.0694 210.518 16.9109C210.611 16.7531 210.681 16.579 210.729 16.3907C210.775 16.2024 210.798 16.0233 210.798 15.8544C210.798 15.5816 210.754 15.3684 210.666 15.2153C210.578 15.0627 210.419 14.9862 210.188 14.9862ZM213.344 18.3769H212.124L213.154 14.0689H214.381L213.344 18.3769ZM213.936 13.5444C213.766 13.5444 213.612 13.4936 213.475 13.393C213.337 13.2927 213.269 13.138 213.269 12.9299C213.269 12.8158 213.292 12.7079 213.339 12.6068C213.429 12.4085 213.591 12.2516 213.792 12.168C213.895 12.1242 214.005 12.1021 214.117 12.103C214.287 12.103 214.441 12.1533 214.578 12.2544C214.715 12.3555 214.784 12.5101 214.784 12.717C214.784 12.832 214.759 12.9398 214.713 13.0409C214.624 13.2393 214.463 13.396 214.262 13.479C214.159 13.5232 214.048 13.5455 213.936 13.5444ZM215.258 14.2651C215.351 14.2381 215.454 14.2056 215.567 14.1707C215.843 14.0874 216.127 14.03 216.415 13.9991C216.588 13.9793 216.784 13.9702 217.003 13.9702C217.645 13.9702 218.089 14.1565 218.333 14.5275C218.577 14.899 218.62 15.4068 218.461 16.0506L217.901 18.3769H216.675L217.218 16.0998C217.251 15.9574 217.277 15.8199 217.296 15.6855C217.316 15.569 217.314 15.4499 217.292 15.3339C217.272 15.2366 217.218 15.1495 217.14 15.0881C217.06 15.025 216.938 14.9937 216.773 14.9937C216.614 14.9937 216.453 15.0108 216.288 15.0437L215.489 18.3769H214.262L215.258 14.2651ZM200.536 20.9441L200.297 21.3762H200.039C200.359 20.7983 200.708 20.2369 201.085 19.6942H201.317C201.341 19.8155 201.364 19.9384 201.384 20.0621C201.428 20.3352 201.467 20.6091 201.5 20.8839C201.518 21.0357 201.537 21.1998 201.556 21.3762H201.317C201.309 21.3031 201.301 21.2299 201.295 21.1566C201.289 21.0858 201.281 21.0151 201.273 20.9445H200.536L200.536 20.9441ZM201.251 20.7546C201.225 20.4898 201.19 20.2259 201.146 19.9634C200.969 20.2203 200.802 20.4843 200.646 20.7546H201.251ZM202.421 21.4123C202.325 21.4141 202.231 21.3985 202.141 21.3663C202.065 21.3385 201.996 21.2937 201.94 21.2355C201.885 21.1768 201.844 21.1067 201.819 21.0301C201.791 20.9427 201.778 20.8512 201.779 20.7594C201.779 20.6139 201.802 20.4748 201.849 20.3419C201.895 20.2095 201.961 20.0922 202.046 19.9903C202.132 19.8884 202.234 19.8072 202.355 19.7461C202.475 19.6855 202.609 19.6549 202.757 19.6549C202.884 19.6549 202.985 19.668 203.061 19.6942C203.137 19.72 203.191 19.7441 203.223 19.7667L203.125 19.961C203.011 19.8914 202.879 19.856 202.745 19.8591C202.633 19.8591 202.532 19.8853 202.442 19.9384C202.354 19.9902 202.277 20.0596 202.216 20.1421C202.154 20.2254 202.107 20.3194 202.074 20.4236C202.042 20.5236 202.026 20.6279 202.025 20.7328C202.025 21.0484 202.163 21.2062 202.438 21.2062C202.567 21.2071 202.694 21.1815 202.813 21.1308L202.886 21.0967L202.916 21.3009C202.896 21.312 202.871 21.3243 202.839 21.337C202.803 21.3515 202.766 21.3638 202.728 21.3739C202.628 21.4001 202.524 21.413 202.421 21.4123ZM203.791 21.4123C203.686 21.4123 203.592 21.3968 203.512 21.3663C203.436 21.3385 203.367 21.2938 203.311 21.2355C203.256 21.1768 203.214 21.1067 203.19 21.0301C203.162 20.9427 203.148 20.8512 203.15 20.7594C203.15 20.6139 203.173 20.4748 203.219 20.3419C203.265 20.2095 203.331 20.0922 203.417 19.9903C203.502 19.8887 203.607 19.8056 203.725 19.7461C203.846 19.6855 203.98 19.6549 204.128 19.6549C204.255 19.6549 204.356 19.668 204.432 19.6942C204.507 19.72 204.561 19.7441 204.594 19.7667L204.496 19.961C204.382 19.8914 204.25 19.856 204.116 19.8591C204.004 19.8591 203.902 19.8853 203.813 19.9384C203.725 19.9902 203.647 20.0595 203.586 20.1421C203.524 20.2254 203.477 20.3194 203.445 20.4236C203.413 20.5236 203.396 20.6279 203.396 20.7328C203.396 21.0484 203.533 21.2062 203.808 21.2062C203.937 21.2072 204.065 21.1815 204.184 21.1308L204.257 21.0967L204.287 21.3009C204.267 21.312 204.241 21.3243 204.21 21.337C204.173 21.3515 204.136 21.3638 204.099 21.3739C203.998 21.4001 203.895 21.413 203.791 21.4123ZM204.446 21.3762L204.851 19.6942H205.849L205.803 19.8904H205.039L204.917 20.3978H205.596L205.549 20.5897H204.874L204.729 21.1792H205.549L205.503 21.3758H204.447L204.446 21.3762ZM206.555 19.6771C206.752 19.6771 206.9 19.7144 207.001 19.7885C207.1 19.8631 207.15 19.9717 207.15 20.1136C207.15 20.2238 207.13 20.3194 207.088 20.399C207.047 20.479 206.986 20.5472 206.911 20.5972C206.827 20.652 206.734 20.691 206.636 20.7122C206.518 20.7384 206.398 20.7511 206.277 20.7499H206.109L205.958 21.3762H205.721L206.121 19.716C206.189 19.7001 206.262 19.6894 206.338 19.6843C206.41 19.6795 206.483 19.6771 206.555 19.6771ZM206.526 19.8761C206.41 19.8761 206.341 19.8793 206.316 19.8857L206.155 20.5532H206.309C206.377 20.5532 206.447 20.5473 206.519 20.535C206.59 20.5231 206.655 20.5013 206.711 20.4708C206.768 20.4404 206.816 20.3966 206.852 20.3431C206.891 20.2804 206.91 20.2073 206.907 20.1334C206.907 20.0415 206.873 19.9753 206.804 19.9352C206.736 19.8956 206.643 19.8761 206.526 19.8761ZM208.594 19.6942L208.547 19.8904H208.038L207.679 21.3758H207.442L207.801 19.8904H207.291L207.337 19.6942H208.594ZM208.374 21.3762L208.779 19.6942H209.777L209.73 19.8904H208.967L208.845 20.3978H209.523L209.477 20.5897H208.802L208.658 21.1792H209.477L209.431 21.3758H208.375L208.374 21.3762ZM210.48 19.6771C210.73 19.6771 210.917 19.7358 211.041 19.8532C211.164 19.9701 211.226 20.1283 211.226 20.3273C211.226 20.4668 211.204 20.6008 211.16 20.7289C211.116 20.8577 211.048 20.9711 210.955 21.0702C210.855 21.1736 210.734 21.254 210.6 21.3057C210.456 21.3639 210.284 21.3929 210.084 21.3929C210.016 21.3929 209.942 21.3897 209.862 21.3834C209.791 21.3783 209.721 21.3669 209.652 21.3493L210.045 19.716C210.113 19.6997 210.186 19.689 210.262 19.6843C210.339 19.6795 210.411 19.6771 210.48 19.6771ZM210.46 19.8761C210.338 19.8761 210.265 19.8793 210.24 19.8857L209.928 21.182C209.941 21.1852 209.963 21.1879 209.994 21.1903C210.025 21.1927 210.075 21.1943 210.145 21.1943C210.274 21.1943 210.39 21.1729 210.493 21.1297C210.596 21.0868 210.683 21.027 210.755 20.9501C210.827 20.8732 210.882 20.782 210.921 20.6761C210.96 20.5699 210.98 20.4541 210.98 20.3277C210.98 20.185 210.938 20.0744 210.855 19.9947C210.772 19.9158 210.641 19.8761 210.46 19.8761ZM213.048 21.3762H212.812L212.999 20.5945H212.216L212.028 21.3758H211.792L212.197 19.6942H212.434L212.263 20.3978H213.046L213.217 19.6942H213.454L213.048 21.3762ZM213.422 21.3762L213.827 19.6942H214.824L214.778 19.8904H214.015L213.892 20.3978H214.571L214.524 20.5897H213.848L213.704 21.1792H214.524L214.477 21.3758L213.422 21.3762ZM215.531 19.6771C215.711 19.6771 215.854 19.7136 215.96 19.7862C216.066 19.8591 216.118 19.9657 216.118 20.1065C216.118 20.2488 216.077 20.3681 215.993 20.4644C215.909 20.5608 215.792 20.6302 215.64 20.6718C215.694 20.7711 215.744 20.8728 215.789 20.9766C215.845 21.1071 215.895 21.2404 215.938 21.3758H215.696C215.673 21.3133 215.65 21.2509 215.626 21.1887C215.602 21.1257 215.577 21.065 215.552 21.0068C215.508 20.905 215.459 20.8054 215.406 20.7082C215.364 20.7114 215.322 20.713 215.279 20.713H215.091L214.933 21.3758H214.696L215.096 19.7156C215.165 19.6997 215.237 19.689 215.314 19.6839C215.39 19.6795 215.462 19.6771 215.531 19.6771ZM215.501 19.8761C215.386 19.8761 215.316 19.8793 215.291 19.8857L215.138 20.5219H215.282C215.349 20.5219 215.416 20.5172 215.487 20.5073C215.557 20.4977 215.621 20.4787 215.678 20.4502C215.734 20.423 215.783 20.3821 215.82 20.3312C215.856 20.2805 215.875 20.2127 215.875 20.1287C215.875 20.0379 215.84 19.9733 215.771 19.9344C215.702 19.8956 215.612 19.8761 215.501 19.8761ZM216.136 21.3762L216.541 19.6942H217.539L217.492 19.8904H216.729L216.607 20.3978H217.285L217.239 20.5897H216.563L216.419 21.1792H217.239L217.192 21.3758L216.136 21.3762Z" fill="#4D4D4D"/>
<path fill-rule="evenodd" clip-rule="evenodd" d="M190.651 18.4912C188.855 18.4912 187.4 17.0427 187.4 15.2563C187.4 13.4696 188.855 12.0215 190.651 12.0215C192.447 12.0215 193.903 13.4696 193.903 15.2563C193.903 17.0427 192.447 18.4912 190.651 18.4912ZM192.085 14.7949C192.149 14.3644 191.82 14.1329 191.369 13.9783L191.516 13.3951L191.159 13.3063L191.016 13.8744C190.923 13.8514 190.826 13.8292 190.731 13.8078L190.874 13.2358L190.517 13.1473L190.371 13.7305C190.295 13.7134 190.219 13.6956 190.143 13.677V13.6754L189.651 13.5533L189.556 13.9323C189.556 13.9323 189.821 13.9925 189.815 13.9965C189.96 14.0322 189.986 14.1273 189.982 14.203L189.815 14.8675C189.828 14.8704 189.84 14.8744 189.852 14.8793L189.814 14.8698L189.581 15.8014C189.563 15.8446 189.519 15.9101 189.418 15.8851C189.422 15.8902 189.158 15.8209 189.158 15.8209L188.981 16.2276L189.445 16.3426C189.532 16.364 189.616 16.3866 189.699 16.408L189.552 16.9979L189.908 17.0863L190.055 16.5027C190.152 16.5289 190.247 16.5535 190.339 16.5761L190.193 17.1572L190.55 17.2456L190.698 16.6569C191.307 16.7715 191.764 16.7251 191.957 16.1773C192.112 15.7364 191.949 15.4823 191.629 15.3162C191.862 15.2627 192.038 15.1101 192.085 14.7949ZM191.269 15.9327C191.159 16.3739 190.413 16.1352 190.171 16.0754L190.367 15.294C190.609 15.3539 191.385 15.4728 191.269 15.9327ZM191.38 14.789C191.279 15.1894 190.658 14.986 190.456 14.936L190.635 14.2272C190.836 14.2772 191.485 14.3703 191.38 14.789Z" fill="#F7931A"/>
</g>
</g>
<rect x="184.279" y="4.25" width="37.9" height="23.5" rx="3.05357" stroke="#2B2B2B" stroke-width="0.5"/>
<g clip-path="url(#clip10_39_5)">
<rect x="229.036" y="4" width="38.4" height="24" rx="3.30357" fill="white"/>
<path d="M247.855 14.0705V7.45508L242.448 16.566L247.855 14.0705Z" fill="#8A92B2"/>
<path d="M247.855 19.8121V14.0705L242.448 16.566L247.855 19.8121ZM247.855 14.0705L253.263 16.566L247.855 7.45508V14.0705Z" fill="#62688F"/>
<path d="M247.856 14.0703V19.8119L253.264 16.5657L247.856 14.0703Z" fill="#454A75"/>
<path d="M247.855 20.8516L242.448 17.6074L247.855 25.345V20.8516Z" fill="#8A92B2"/>
<path d="M253.267 17.6074L247.856 20.8516V25.345L253.267 17.6074Z" fill="#62688F"/>
</g>
<rect x="229.286" y="4.25" width="37.9" height="23.5" rx="3.05357" stroke="#2B2B2B" stroke-width="0.5"/>
<rect x="274.293" y="4.25" width="37.9" height="23.5" rx="3.05357" fill="white"/>
<rect x="274.293" y="4.25" width="37.9" height="23.5" rx="3.05357" stroke="#2B2B2B" stroke-width="0.5"/>
<g clip-path="url(#clip11_39_5)">
<path d="M280.572 12.127C278.458 12.127 276.744 13.8583 276.744 15.9941C276.744 18.1301 278.458 19.8614 280.572 19.8614C282.687 19.8614 284.401 18.1301 284.401 15.9941C284.401 13.8585 282.687 12.127 280.572 12.127ZM279.982 13.9203H281.166L280.748 15.5083L281.328 15.2945L281.333 15.3083L281.186 15.8643L280.598 16.0814L280.349 17.0272H282.316L282.114 17.7876H278.962L279.284 16.5661L278.829 16.7341L278.979 16.161L279.435 15.9927L279.982 13.9203Z" fill="#BEBEBE"/>
<path fill-rule="evenodd" clip-rule="evenodd" d="M287.805 18.5518H287.09V12.5547H287.805V18.5518ZM289.456 18.5518H288.741V14.3274H289.456V18.5518ZM288.683 13.2069C288.683 13.0896 288.719 12.9907 288.79 12.91C288.861 12.8294 288.966 12.7891 289.105 12.7891C289.244 12.7891 289.35 12.8294 289.422 12.91C289.494 12.9907 289.53 13.0896 289.53 13.2069C289.53 13.324 289.494 13.4216 289.422 13.4996C289.35 13.5778 289.244 13.6167 289.105 13.6167C288.966 13.6167 288.861 13.5778 288.79 13.4996C288.719 13.4216 288.683 13.324 288.683 13.2069ZM291.302 13.3045V14.3274H292.082V14.8856H291.302V17.5056C291.302 17.6745 291.336 17.8016 291.406 17.886C291.476 17.9705 291.594 18.0129 291.762 18.0129C291.844 18.0129 291.957 17.9974 292.102 17.9662V18.5518C291.923 18.6025 291.738 18.6287 291.553 18.6298C291.233 18.6298 290.993 18.532 290.83 18.3369C290.668 18.1418 290.587 17.8647 290.587 17.5054V14.8856H289.825V14.3274H290.586V13.3045H291.302ZM294.384 18.6298C293.817 18.6298 293.356 18.4418 293 18.0656C292.644 17.6896 292.467 17.1865 292.467 16.5567V16.424C292.467 16.0049 292.546 15.6307 292.704 15.3014C292.863 14.9722 293.084 14.7147 293.369 14.5285C293.654 14.3422 293.962 14.2494 294.295 14.2494C294.838 14.2494 295.261 14.4302 295.563 14.792C295.864 15.1538 296.015 15.6718 296.015 16.3458V16.6465H293.182C293.192 17.0629 293.313 17.3994 293.543 17.6558C293.774 17.912 294.067 18.0402 294.423 18.0402C294.675 18.0402 294.889 17.9882 295.064 17.884C295.242 17.7772 295.398 17.6368 295.524 17.4702L295.961 17.8138C295.61 18.3578 295.085 18.6298 294.384 18.6298ZM294.295 14.8427C294.006 14.8427 293.764 14.9487 293.568 15.1609C293.372 15.3731 293.251 15.6705 293.205 16.0529H295.3V15.9985C295.279 15.6314 295.181 15.3469 295.006 15.1451C294.831 14.9436 294.594 14.8427 294.295 14.8427ZM298.25 18.0405C298.506 18.0405 298.728 17.9622 298.919 17.806C299.11 17.6498 299.215 17.4547 299.236 17.2205H299.912C299.899 17.4625 299.817 17.6929 299.665 17.9116C299.513 18.13 299.31 18.3045 299.056 18.4347C298.807 18.5637 298.531 18.6306 298.25 18.6298C297.681 18.6298 297.228 18.4378 296.892 18.054C296.555 17.67 296.387 17.1449 296.387 16.4785V16.3576C296.387 15.9465 296.462 15.5807 296.612 15.2605C296.761 14.9405 296.975 14.6916 297.255 14.5147C297.534 14.3378 297.865 14.2494 298.246 14.2494C298.715 14.2494 299.105 14.3911 299.416 14.6749C299.726 14.9585 299.892 15.3269 299.912 15.7798H299.236C299.215 15.5065 299.113 15.282 298.929 15.1062C298.744 14.9307 298.517 14.8427 298.247 14.8427C297.883 14.8427 297.602 14.9747 297.402 15.2389C297.202 15.5034 297.102 15.8851 297.102 16.3849V16.5216C297.102 17.0082 297.201 17.3831 297.4 17.646C297.598 17.9089 297.882 18.0405 298.25 18.0405ZM300.258 16.4005C300.258 15.9867 300.338 15.6145 300.499 15.2838C300.66 14.9534 300.884 14.6982 301.172 14.5187C301.459 14.3391 301.787 14.2494 302.156 14.2494C302.725 14.2494 303.186 14.4485 303.537 14.8467C303.889 15.2449 304.065 15.7745 304.065 16.4356V16.4865C304.065 16.8976 303.987 17.2665 303.831 17.5931C303.675 17.9198 303.452 18.1742 303.162 18.3565C302.873 18.5387 302.539 18.6298 302.163 18.6298C301.596 18.6298 301.137 18.4307 300.785 18.0325C300.434 17.6342 300.258 17.1071 300.258 16.4514V16.4005ZM300.977 16.4865C300.977 16.9549 301.084 17.3309 301.3 17.6147C301.515 17.8985 301.803 18.0402 302.163 18.0402C302.527 18.0402 302.815 17.8965 303.029 17.6089C303.243 17.3214 303.35 16.9185 303.35 16.4005C303.35 15.9371 303.241 15.5618 303.023 15.274C302.805 14.9865 302.516 14.8427 302.156 14.8427C301.803 14.8427 301.518 14.9845 301.301 15.2682C301.085 15.552 300.977 15.958 300.977 16.4865ZM305.469 18.5518H304.754V14.3274H305.469V18.5518ZM304.697 13.2069C304.697 13.0896 304.732 12.9907 304.803 12.91C304.874 12.8294 304.979 12.7891 305.118 12.7891C305.257 12.7891 305.362 12.8294 305.435 12.91C305.507 12.9907 305.543 13.0896 305.543 13.2069C305.543 13.324 305.507 13.4216 305.435 13.4996C305.362 13.5778 305.257 13.6167 305.118 13.6167C304.979 13.6167 304.874 13.5778 304.803 13.4996C304.732 13.4216 304.697 13.324 304.697 13.2069ZM307.021 14.3274L307.044 14.8585C307.364 14.4522 307.781 14.2494 308.296 14.2494C309.18 14.2494 309.626 14.7529 309.634 15.7602V18.5518H308.919V15.7562C308.916 15.4518 308.847 15.2267 308.712 15.0807C308.577 14.9351 308.366 14.8622 308.08 14.8622C307.848 14.8622 307.644 14.9247 307.469 15.0496C307.293 15.1755 307.152 15.3449 307.06 15.5416V18.5518H306.345V14.3274H307.021Z" fill="#BEBEBE"/>
</g>
<rect x="319.3" y="4.25" width="37.9" height="23.5" rx="3.05357" fill="white"/>
<rect x="319.3" y="4.25" width="37.9" height="23.5" rx="3.05357" stroke="#2B2B2B" stroke-width="0.5"/>
<g clip-path="url(#clip12_39_5)">
<path d="M325.721 21.1946C328.296 21.1946 330.383 19.1388 330.383 16.6027C330.383 14.0666 328.296 12.0107 325.721 12.0107C323.147 12.0107 321.06 14.0666 321.06 16.6027C321.06 19.1388 323.147 21.1946 325.721 21.1946Z" fill="#26A17B"/>
<path d="M326.219 17.0269V17.0262C326.187 17.0284 326.021 17.038 325.651 17.038C325.355 17.038 325.147 17.0299 325.073 17.0262V17.0269C323.935 16.9775 323.086 16.7826 323.086 16.5485C323.086 16.3152 323.936 16.1196 325.073 16.0701V16.8328C325.148 16.8379 325.361 16.8505 325.656 16.8505C326.01 16.8505 326.186 16.8357 326.219 16.8328V16.0709C327.356 16.1211 328.203 16.316 328.203 16.5493C328.203 16.7826 327.355 16.9775 326.219 17.0277M326.219 15.9919V15.3097H327.805V14.2695H323.489V15.3097H325.074V15.9919C323.786 16.0502 322.818 16.3012 322.818 16.6024C322.818 16.9036 323.787 17.1546 325.074 17.2137V19.4004H326.22V17.2137C327.506 17.1554 328.473 16.9044 328.473 16.6032C328.473 16.3027 327.506 16.0509 326.22 15.9926" fill="white"/>
<path d="M334.343 14.5539V15.6569H335.431V16.4844H334.336V18.1625C334.336 18.5331 334.543 18.714 334.847 18.714C335 18.714 335.176 18.6667 335.32 18.5958L335.592 19.4153C335.312 19.5253 335.08 19.5726 334.784 19.5807C333.928 19.6124 333.368 19.1318 333.368 18.1625V16.4844H332.632V15.6569H333.368V14.6565L334.343 14.5539ZM353.104 15.6052L353.176 16.054C353.481 15.5734 353.888 15.5026 354.289 15.5026C354.696 15.5026 355.088 15.6598 355.304 15.8724L354.864 16.7074C354.664 16.542 354.48 16.4549 354.16 16.4549C353.649 16.4549 353.176 16.7229 353.176 17.4397V19.4884H352.201V15.6037L353.104 15.6052ZM350.713 17.0942C350.649 16.59 350.249 16.3375 349.689 16.3375C349.161 16.3375 348.729 16.59 348.585 17.0942H350.713ZM348.569 17.8901C348.633 18.3707 349.057 18.7177 349.745 18.7177C350.105 18.7177 350.577 18.5833 350.801 18.3552L351.425 18.962C351.009 19.3873 350.329 19.5925 349.729 19.5925C348.369 19.5925 347.561 18.7649 347.561 17.5202C347.561 16.3383 348.377 15.4871 349.657 15.4871C350.977 15.4871 351.801 16.291 351.649 17.8901H348.569ZM344.266 13.9736V16.1323C344.618 15.6834 345.05 15.5491 345.498 15.5491C346.618 15.5491 347.114 16.2977 347.114 17.4405V19.4891H346.138V17.4486C346.138 16.7391 345.762 16.4401 345.242 16.4401C344.665 16.4401 344.266 16.9207 344.266 17.504V19.4899H343.29V13.9744L344.266 13.9736ZM341.674 14.5096V15.6126H342.763V16.4401H341.667V18.1182C341.667 18.4888 341.875 18.6697 342.179 18.6697C342.331 18.6697 342.507 18.6224 342.651 18.5516L342.923 19.371C342.643 19.481 342.411 19.5283 342.115 19.5364C341.259 19.5681 340.699 19.0868 340.699 18.1182V16.4401H339.963V15.6126H340.699V14.6122L341.674 14.5096ZM338.979 17.0942C338.915 16.59 338.515 16.3375 337.955 16.3375C337.427 16.3375 336.995 16.59 336.851 17.0942H338.979ZM336.835 17.8901C336.899 18.3707 337.323 18.7177 338.011 18.7177C338.371 18.7177 338.843 18.5833 339.067 18.3552L339.691 18.962C339.275 19.3873 338.595 19.5925 337.994 19.5925C336.634 19.5925 335.826 18.7649 335.826 17.5202C335.826 16.3383 336.642 15.4871 337.922 15.4871C339.242 15.4871 340.065 16.291 339.914 17.8901H336.835Z" fill="#5B5A5D"/>
</g>
<defs>
<clipPath id="clip0_39_5">
<rect x="4" y="4" width="38.4" height="24" rx="3.30357" fill="white"/>
</clipPath>
<clipPath id="clip1_39_5">
<rect width="39.567" height="23.7402" fill="white" transform="translate(4.07617 4.68457)"/>
</clipPath>
<clipPath id="clip2_39_5">
<rect x="49.0071" y="4" width="38.4" height="24" rx="3.30357" fill="white"/>
</clipPath>
<clipPath id="clip3_39_5">
<rect width="39.6429" height="23.7857" fill="white" transform="translate(48.0071 4.49512)"/>
</clipPath>
<clipPath id="clip4_39_5">
<rect x="94.0143" y="4" width="38.4" height="24" rx="3.30357" fill="white"/>
</clipPath>
<clipPath id="clip5_39_5">
<rect width="36.4663" height="17.3671" fill="white" transform="translate(94.8561 7.73047)"/>
</clipPath>
<clipPath id="clip6_39_5">
<rect x="139.021" y="4" width="38.4" height="24" rx="3.30357" fill="white"/>
</clipPath>
<clipPath id="clip7_39_5">
<rect width="44.7256" height="28.5917" fill="white" transform="translate(135.893 2.21484)"/>
</clipPath>
<clipPath id="clip8_39_5">
<rect x="184.029" y="4" width="38.4" height="24" rx="3.30357" fill="white"/>
</clipPath>
<clipPath id="clip9_39_5">
<rect width="39.6429" height="23.7857" fill="white" transform="translate(183.029 4.48048)"/>
</clipPath>
<clipPath id="clip10_39_5">
<rect x="229.036" y="4" width="38.4" height="24" rx="3.30357" fill="white"/>
</clipPath>
<clipPath id="clip11_39_5">
<rect width="33" height="8" fill="white" transform="translate(276.724 12)"/>
</clipPath>
<clipPath id="clip12_39_5">
<rect width="35" height="11" fill="white" transform="translate(320.726 11)"/>
</clipPath>
</defs>
</svg>
