<svg width="168" height="17" viewBox="0 0 168 17" fill="none" xmlns="http://www.w3.org/2000/svg">
<rect x="0.168735" y="0.168735" width="23.2855" height="15.8611" rx="1.18115" fill="white" stroke="#D9D9D9" stroke-width="0.337471"/>
<path fill-rule="evenodd" clip-rule="evenodd" d="M7.17142 10.9734H5.74033L4.66718 6.87925C4.61625 6.69092 4.5081 6.52443 4.34901 6.44596C3.95199 6.24876 3.51449 6.09182 3.03723 6.01267V5.85504H5.34261C5.66078 5.85504 5.89942 6.09182 5.93919 6.36681L6.496 9.32002L7.92639 5.85504H9.31771L7.17142 10.9734ZM10.1132 10.9734H8.76161L9.87452 5.85504H11.2261L10.1132 10.9734ZM12.9746 7.27297C13.0144 6.9973 13.253 6.83968 13.5315 6.83968C13.9689 6.8001 14.4455 6.87926 14.8432 7.07577L15.0819 5.97378C14.6841 5.81615 14.2466 5.737 13.8496 5.737C12.5379 5.737 11.5833 6.44596 11.5833 7.42991C11.5833 8.17845 12.2594 8.57149 12.7367 8.80826C13.253 9.04436 13.4519 9.20198 13.4121 9.43807C13.4121 9.79221 13.0144 9.94984 12.6174 9.94984C12.1401 9.94984 11.6629 9.83179 11.2261 9.63459L10.9874 10.7373C11.4647 10.9338 11.981 11.0129 12.4583 11.0129C13.9292 11.0518 14.8432 10.3436 14.8432 9.28045C14.8432 7.94168 12.9746 7.86321 12.9746 7.27297V7.27297ZM19.5733 10.9734L18.5002 5.85504H17.3475C17.1088 5.85504 16.8702 6.01267 16.7907 6.24876L14.8035 10.9734H16.1948L16.4725 10.2255H18.182L18.3411 10.9734H19.5733ZM17.5463 7.2334L17.9433 9.16241H16.8304L17.5463 7.2334Z" fill="#172B85"/>
<rect x="28.7917" y="0.168735" width="23.2855" height="15.8611" rx="1.18115" fill="white" stroke="#D9D9D9" stroke-width="0.337471"/>
<path d="M43.5901 3.37471C46.1337 3.37471 48.1966 5.46073 48.1966 8.03389C48.1965 10.607 46.1337 12.6931 43.5901 12.6931C42.4495 12.693 41.4072 12.2717 40.6028 11.5769C39.7984 12.2716 38.7561 12.6931 37.6155 12.6931C35.072 12.693 33.0101 10.607 33.01 8.03389C33.01 5.46079 35.072 3.37481 37.6155 3.37471C38.7557 3.37471 39.7985 3.79471 40.6028 4.48897C41.4071 3.79462 42.4499 3.37483 43.5901 3.37471Z" fill="#ED0006"/>
<path d="M43.5904 3.37471C46.1341 3.37471 48.1959 5.46073 48.1959 8.03389C48.1959 10.607 46.134 12.6931 43.5904 12.6931C42.45 12.693 41.4075 12.2724 40.6031 11.5778C41.5928 10.7233 42.2213 9.45332 42.2213 8.03389C42.2213 6.614 41.5933 5.34256 40.6031 4.48799C41.4073 3.79392 42.4504 3.37475 43.5904 3.37471Z" fill="#F9A000"/>
<path d="M40.6031 4.48904C41.593 5.34361 42.2213 6.61432 42.2213 8.03397C42.2212 9.45339 41.5928 10.7234 40.6031 11.5779C39.6135 10.7234 38.985 9.45337 38.985 8.03397C38.985 6.61434 39.6132 5.34361 40.6031 4.48904Z" fill="#FF5E00"/>
<rect x="57.4146" y="0.168735" width="23.2855" height="15.8611" rx="1.18115" fill="#1F72CD" stroke="#D9D9D9" stroke-width="0.337471"/>
<path fill-rule="evenodd" clip-rule="evenodd" d="M61.7552 5.737L59.6082 10.6281H62.1785L62.4972 9.84828H63.2255L63.5442 10.6281H66.3734V10.0329L66.6255 10.6281H68.089L68.3411 10.0203V10.6281H74.2251L74.9406 9.86853L75.6105 10.6281L78.6326 10.6344L76.4788 8.19622L78.6326 5.737H75.6574L74.9609 6.48256L74.3121 5.737H67.911L67.3614 6.99944L66.7988 5.737H64.2339V6.31195L63.9485 5.737H61.7552ZM70.5418 6.43155H73.9207L74.9541 7.58069L76.0209 6.43155H77.0543L75.4841 8.19553L77.0543 9.93919H75.974L74.9406 8.7767L73.8684 9.93919H70.5418V6.43155ZM71.3762 7.79892V7.15823V7.15762H73.4845L74.4044 8.18225L73.4437 9.21249H71.3762V8.51303H73.2195V7.79892H71.3762ZM62.2526 6.43155H63.5055L64.9296 9.74825V6.43155H66.3021L67.4021 8.80961L68.4159 6.43155H69.7815V9.94126H68.9506L68.9438 7.19107L67.7323 9.94126H66.989L65.7707 7.19107V9.94126H64.0613L63.7372 9.15443H61.9862L61.6628 9.94057H60.7469L62.2526 6.43155ZM62.2852 8.42705L62.8621 7.02538L63.4383 8.42705H62.2852Z" fill="white"/>
<g clip-path="url(#clip0_42_104)">
<rect x="85.8688" y="0.0992889" width="24" height="16" rx="1.8" fill="black"/>
<path d="M108.269 16.0993H87.4688C87.0445 16.0993 86.6375 15.9307 86.3375 15.6307C86.0374 15.3306 85.8688 14.9236 85.8688 14.4993V1.69929C85.8688 1.27494 86.0374 0.867976 86.3375 0.567918C86.6375 0.26786 87.0445 0.0992889 87.4688 0.0992889L108.269 0.0992889C108.693 0.0992889 109.1 0.26786 109.4 0.567918C109.7 0.867976 109.869 1.27494 109.869 1.69929V14.4993C109.869 14.9236 109.7 15.3306 109.4 15.6307C109.1 15.9307 108.693 16.0993 108.269 16.0993ZM104.398 11.3593V12.0993C104.504 12.114 104.626 12.1226 104.75 12.1226H104.76C105.69 12.1226 106.13 11.7613 106.51 10.6913L108.186 5.99129H107.217L106.093 9.62196H106.073L104.949 5.99129H103.952L105.568 10.4666L105.482 10.7386C105.452 10.9269 105.353 11.0973 105.203 11.2158C105.054 11.3344 104.866 11.3925 104.676 11.3786H104.678C104.585 11.3746 104.491 11.3682 104.398 11.3593ZM89.6775 5.46862H89.6602C89.3795 5.4764 89.1057 5.55669 88.8652 5.70166C88.6248 5.84664 88.426 6.05138 88.2882 6.29596L88.2842 6.30396C87.7215 7.27196 88.0795 8.75329 88.7022 9.65529C88.9942 10.082 89.3142 10.4993 89.7362 10.4993H89.7588C89.9355 10.488 90.0988 10.442 90.2462 10.368L90.2388 10.3713C90.4168 10.282 90.6262 10.2293 90.8475 10.2273C91.0615 10.2286 91.2642 10.2806 91.4422 10.3713L91.4348 10.368C91.5782 10.4426 91.7468 10.488 91.9262 10.492H91.9455C92.4155 10.4833 92.7102 10.052 92.9708 9.67196C93.1568 9.40262 93.3108 9.09262 93.4188 8.76129L93.4262 8.73596V8.72929L93.4142 8.72396C93.1539 8.60732 92.9327 8.41828 92.7769 8.17939C92.6211 7.94049 92.5373 7.66182 92.5355 7.37662C92.5377 7.12475 92.6033 6.87681 92.7262 6.65695C92.8491 6.43709 93.0254 6.25173 93.2388 6.11796L93.2448 6.11462L93.2568 6.10662C93.1199 5.90798 92.9381 5.74444 92.7261 5.6293C92.5141 5.51415 92.278 5.45065 92.0368 5.44396H91.9642C91.6781 5.45777 91.3976 5.52729 91.1382 5.64862L91.1522 5.64262C91.0296 5.70122 90.8983 5.73972 90.7635 5.75662L90.7575 5.75729C90.6125 5.7414 90.4713 5.70058 90.3402 5.63662L90.3475 5.63996C90.1391 5.54028 89.9134 5.48166 89.6828 5.46729H89.6775V5.46862ZM101.753 6.67929C102.34 6.67929 102.664 6.95396 102.664 7.45196V7.79129L101.473 7.86196C100.356 7.92929 99.7662 8.38196 99.7662 9.17062C99.7681 9.36037 99.8101 9.54757 99.8894 9.71997C99.9687 9.89237 100.083 10.0461 100.226 10.1711C100.369 10.296 100.537 10.3895 100.718 10.4452C100.899 10.501 101.09 10.5178 101.279 10.4946L101.272 10.4953L101.316 10.496C101.895 10.496 102.402 10.184 102.676 9.71796L102.68 9.71062H102.7V10.4453H103.584V7.38796C103.584 6.50129 102.876 5.92929 101.782 5.92929C100.772 5.92929 100.022 6.50796 99.9915 7.30462H100.852C100.902 7.10867 101.021 6.93745 101.188 6.82245C101.354 6.70744 101.556 6.65637 101.758 6.67862L101.754 6.67796L101.753 6.67929ZM95.2022 4.30196V10.446H96.1562V8.34462H97.4742C97.7457 8.35896 98.0173 8.31644 98.2714 8.21978C98.5256 8.12312 98.7568 7.97446 98.9502 7.78331C99.1436 7.59216 99.295 7.36273 99.3946 7.10971C99.4943 6.85669 99.54 6.58566 99.5288 6.31396V6.31796C99.5407 6.04915 99.4963 5.78083 99.3985 5.53017C99.3006 5.27951 99.1516 5.05202 98.9608 4.86227C98.7701 4.67251 98.5418 4.52466 98.2906 4.42818C98.0395 4.3317 97.7709 4.28871 97.5022 4.30196H97.5068H95.2022ZM92.0375 3.83262C91.6565 3.86908 91.304 4.05045 91.0528 4.33929L91.0515 4.34129C90.9263 4.48102 90.8304 4.64449 90.7696 4.82201C90.7088 4.99952 90.6842 5.18745 90.6975 5.37462V5.37062C90.7202 5.37062 90.7442 5.37329 90.7708 5.37329C90.9485 5.36364 91.1221 5.31669 91.2804 5.23548C91.4387 5.15427 91.5781 5.04063 91.6895 4.90196L91.6915 4.89929C91.9432 4.60128 92.0677 4.21627 92.0382 3.82729L92.0375 3.83262ZM101.528 9.76662C101.023 9.76662 100.696 9.52329 100.696 9.14729C100.696 8.75929 101.009 8.53596 101.602 8.50062L102.662 8.43396V8.78129C102.656 8.92219 102.622 9.06039 102.56 9.18738C102.499 9.31437 102.412 9.42747 102.306 9.51972C102.199 9.61196 102.075 9.68139 101.94 9.72374C101.806 9.76609 101.664 9.78045 101.524 9.76596L101.528 9.76662ZM97.2495 7.54662H96.1535V5.10596H97.2535C97.4229 5.08276 97.5954 5.0977 97.7583 5.14969C97.9212 5.20168 98.0704 5.28941 98.1951 5.40646C98.3197 5.52352 98.4167 5.66694 98.4788 5.82625C98.5409 5.98557 98.5667 6.15675 98.5542 6.32729V6.32329C98.5663 6.49473 98.54 6.66671 98.477 6.82664C98.4141 6.98657 98.3162 7.13039 98.1904 7.24756C98.0647 7.36473 97.9143 7.45228 97.7504 7.5038C97.5864 7.55531 97.413 7.56949 97.2428 7.54529L97.2495 7.54662Z" fill="white"/>
</g>
<rect x="115.038" y="0.168735" width="23.2855" height="15.8611" rx="1.18115" fill="white" stroke="#D9D9D9" stroke-width="0.337471"/>
<path d="M124.993 15.5236L137.817 11.6427V14.8487C137.817 15.2215 137.515 15.5236 137.142 15.5236H124.993Z" fill="#FD6020"/>
<path d="M125.117 6.14971C125.364 6.14971 125.647 6.18532 125.859 6.33037V7.05596C125.682 6.83838 125.4 6.69365 125.117 6.69365C124.553 6.73001 124.095 7.23754 124.13 7.81768V7.88994C124.13 8.47002 124.588 8.90542 125.153 8.90557C125.435 8.90557 125.682 8.75986 125.859 8.54228V9.26787C125.612 9.37666 125.364 9.44951 125.082 9.44951C124.201 9.44949 123.496 8.6879 123.495 7.78154C123.495 6.83876 124.2 6.07726 125.117 6.14971ZM130.656 8.32549L131.502 6.14971H132.137L130.832 9.44951H130.515L129.209 6.14971H129.845L130.656 8.32549ZM122.295 6.07646C122.613 6.07646 122.93 6.2222 123.177 6.43975L122.86 6.87432C122.719 6.7295 122.543 6.62056 122.366 6.62041C122.155 6.58415 121.978 6.76612 121.943 6.98369C121.943 7.16473 122.049 7.23718 122.402 7.38213C123.107 7.67219 123.283 7.89037 123.319 8.32549V8.43389C123.283 9.01406 122.824 9.44964 122.26 9.41338C121.837 9.41329 121.414 9.195 121.202 8.79619L121.59 8.39775C121.696 8.65145 121.943 8.83227 122.225 8.83232H122.26C122.472 8.83232 122.684 8.61532 122.684 8.36162C122.684 8.21657 122.613 8.107 122.507 8.03447C122.366 7.96206 122.225 7.89008 122.084 7.85381C121.52 7.67255 121.343 7.41862 121.343 6.98369V6.94658C121.379 6.43926 121.802 6.04045 122.295 6.07646ZM118.627 6.14971C119.474 6.18615 120.144 6.91136 120.109 7.78154C120.109 8.25264 119.897 8.68774 119.544 9.01396C119.227 9.26769 118.838 9.41349 118.45 9.37725H117.569V6.14971H118.627ZM135.383 6.14971C136.088 6.14981 136.477 6.47601 136.477 7.09209C136.512 7.56322 136.194 7.96284 135.771 8.03545L136.724 9.37725H135.983L135.171 8.07158H135.101V9.37725H134.501V6.14971H135.383ZM120.955 9.37627H120.356V6.14971H120.955V9.37627ZM134.113 6.69365H133.02V7.41826H134.077V7.96221H133.02V8.83232H134.113V9.37627H132.419V6.14971H134.113V6.69365ZM118.345 6.69365H118.168V8.8333H118.345C118.627 8.86938 118.944 8.76035 119.156 8.57939C119.367 8.36195 119.474 8.07153 119.474 7.74541C119.474 7.4554 119.367 7.16511 119.156 6.94756C118.944 6.76643 118.627 6.65752 118.345 6.69365ZM135.101 7.63603H135.278C135.665 7.63584 135.842 7.45487 135.842 7.1292C135.842 6.83925 135.665 6.65771 135.278 6.65752H135.101V7.63603Z" fill="black"/>
<path fill-rule="evenodd" clip-rule="evenodd" d="M127.657 6.07446C126.776 6.07446 126.035 6.79971 126.035 7.74254C126.035 8.6491 126.74 9.41062 127.657 9.44688C128.575 9.48314 129.28 8.72163 129.315 7.7788C129.28 6.83598 128.575 6.07446 127.657 6.07446V6.07446Z" fill="#FD6020"/>
<rect x="143.66" y="0.168735" width="23.2855" height="15.8611" rx="1.18115" fill="white" stroke="#D9D9D9" stroke-width="0.337471"/>
<path d="M156.6 8.90625H156.183H153.653V10.4392H154.363H156.6C157.115 10.4392 157.537 10.0925 157.537 9.67C157.537 9.2475 157.115 8.90625 156.6 8.90625Z" fill="#0F0F0F"/>
<path d="M154.992 3.08333C152.002 3.08333 149.575 5.51 149.575 8.5C149.575 11.49 152.002 13.9167 154.992 13.9167C157.982 13.9167 160.408 11.49 160.408 8.5C160.408 5.51 157.982 3.08333 154.992 3.08333ZM156.601 11.2517H155.707V12.0208C155.707 12.2429 155.523 12.4271 155.301 12.4271C155.078 12.4271 154.894 12.2429 154.894 12.0208V11.2517H154.363H154.239V12.0208C154.239 12.2429 154.055 12.4271 153.833 12.4271C153.611 12.4271 153.426 12.2429 153.426 12.0208V11.2517H153.248H152.311C152.088 11.2517 151.904 11.0675 151.904 10.8454C151.904 10.6233 152.088 10.4392 152.311 10.4392H152.841V8.5V6.56083H152.311C152.088 6.56083 151.904 6.37666 151.904 6.15458C151.904 5.9325 152.088 5.74833 152.311 5.74833H153.248H153.426V4.97916C153.426 4.75708 153.611 4.57291 153.833 4.57291C154.055 4.57291 154.239 4.75708 154.239 4.97916V5.74833H154.363H154.894V4.97916C154.894 4.75708 155.078 4.57291 155.301 4.57291C155.523 4.57291 155.707 4.75708 155.707 4.97916V5.74833H156.183C157.023 5.74833 157.765 6.485 157.765 7.33C157.765 7.69291 157.635 8.02333 157.429 8.29416C157.976 8.55958 158.35 9.07958 158.35 9.68083C158.35 10.5421 157.565 11.2517 156.601 11.2517Z" fill="#0F0F0F"/>
<path d="M156.952 7.32466C156.952 6.96716 156.616 6.5555 156.183 6.5555H154.363H153.653V8.08841H156.183C156.606 8.09383 156.952 7.74716 156.952 7.32466Z" fill="#0F0F0F"/>
<defs>
<clipPath id="clip0_42_104">
<rect x="85.8688" y="0.0992889" width="24" height="16" rx="1.8" fill="white"/>
</clipPath>
</defs>
</svg>
