<svg width="220" height="220" viewBox="0 0 220 220" fill="none" xmlns="http://www.w3.org/2000/svg">
<g clip-path="url(#clip0_34_52)">
<rect x="0.5" y="0.5" width="219" height="219" rx="15.5" fill="#F6F6F6" stroke="#E0E0E0"/>
<mask id="mask0_34_52" style="mask-type:luminance" maskUnits="userSpaceOnUse" x="190" y="8" width="22" height="22">
<path d="M201 29C202.313 29.0016 203.614 28.7437 204.828 28.241C206.041 27.7384 207.143 27.0009 208.071 26.071C209.001 25.1434 209.738 24.0412 210.241 22.8278C210.744 21.6143 211.002 20.3135 211 19C211.002 17.6865 210.744 16.3857 210.241 15.1722C209.738 13.9588 209.001 12.8566 208.071 11.929C207.143 10.9991 206.041 10.2616 204.828 9.75896C203.614 9.25631 202.313 8.99838 201 9C199.687 8.99838 198.386 9.25631 197.172 9.75896C195.959 10.2616 194.857 10.9991 193.929 11.929C192.999 12.8566 192.262 13.9588 191.759 15.1722C191.256 16.3857 190.998 17.6865 191 19C190.998 20.3135 191.256 21.6143 191.759 22.8278C192.262 24.0412 192.999 25.1434 193.929 26.071C194.857 27.0009 195.959 27.7384 197.172 28.241C198.386 28.7437 199.687 29.0016 201 29Z" fill="white" stroke="white" stroke-width="2" stroke-linejoin="round"/>
<path d="M197 19L200 22L206 16" stroke="black" stroke-width="2" stroke-linecap="round" stroke-linejoin="round"/>
</mask>
<g mask="url(#mask0_34_52)">
<path d="M189 15C189 10.5817 192.582 7 197 7H205C209.418 7 213 10.5817 213 15V23C213 27.4183 209.418 31 205 31H197C192.582 31 189 27.4183 189 23V15Z" fill="#01C573"/>
<path d="M197 7.5H205C209.142 7.5 212.5 10.8579 212.5 15V23C212.5 27.1421 209.142 30.5 205 30.5H197C192.858 30.5 189.5 27.1421 189.5 23V15C189.5 10.8579 192.858 7.5 197 7.5Z" stroke="white" stroke-opacity="0.5" style="mix-blend-mode:soft-light"/>
</g>
<g filter="url(#filter0_i_34_52)">
<path d="M19.1455 80.7178H-4C-12.8366 80.7178 -20 87.8812 -20 96.7178V204C-20 212.837 -12.8366 220 -4 220H224C232.837 220 240 212.837 240 204V96.7178C240 87.8812 232.837 80.7178 224 80.7178H199.202C195.995 80.7178 192.861 79.7538 190.209 77.9511L170.808 64.7667C168.156 62.9639 165.022 62 161.815 62H56.5324C53.3251 62 50.1918 62.9639 47.5391 64.7667L28.1389 77.9511C25.4862 79.7538 22.3529 80.7178 19.1455 80.7178Z" fill="url(#paint0_linear_34_52)"/>
</g>
<path d="M19.1455 80.7178H-4C-12.8366 80.7178 -20 87.8812 -20 96.7178V204C-20 212.837 -12.8366 220 -4 220H224C232.837 220 240 212.837 240 204V96.7178C240 87.8812 232.837 80.7178 224 80.7178H199.202C195.995 80.7178 192.861 79.7538 190.209 77.9511L170.808 64.7667C168.156 62.9639 165.022 62 161.815 62H56.5324C53.3251 62 50.1918 62.9639 47.5391 64.7667L28.1389 77.9511C25.4862 79.7538 22.3529 80.7178 19.1455 80.7178Z" stroke="#C5C5C5" stroke-width="2"/>
<rect x="17.5" y="158.5" width="180" height="47" rx="7.5" fill="#EBEBEB" stroke="#F6F6F6"/>
<rect x="55" y="88" width="105" height="18" rx="4" fill="#EBEBEB"/>
<rect x="24" y="113" width="167" height="18" rx="4" fill="#EBEBEB"/>
<g filter="url(#filter1_d_34_52)">
<path fill-rule="evenodd" clip-rule="evenodd" d="M181.761 168.15C181.396 168 180.994 167.961 180.607 168.039C180.22 168.117 179.864 168.307 179.585 168.586C179.306 168.866 179.116 169.221 179.039 169.609C178.961 169.996 179 170.397 179.151 170.762L193.151 204.761C193.301 205.126 193.555 205.437 193.881 205.658C194.208 205.878 194.592 205.997 194.986 206C195.38 206.003 195.766 205.889 196.095 205.673C196.425 205.458 196.683 205.149 196.838 204.787L202.208 192.258C202.411 191.786 202.787 191.41 203.258 191.208L215.788 185.838C216.15 185.683 216.458 185.424 216.674 185.095C216.89 184.765 217.003 184.379 217.001 183.985C216.998 183.591 216.879 183.207 216.658 182.881C216.438 182.554 216.126 182.3 215.762 182.15L181.761 168.15Z" fill="#01C573"/>
<path d="M180.804 169.02C180.997 168.981 181.197 169 181.38 169.075L215.381 183.074C215.563 183.149 215.719 183.277 215.829 183.44C215.939 183.604 216 183.795 216.001 183.992C216.002 184.189 215.945 184.382 215.837 184.547C215.729 184.712 215.576 184.841 215.395 184.919H215.394L202.864 190.289C202.157 190.592 201.592 191.156 201.289 191.863V191.864L195.919 204.394C195.841 204.575 195.713 204.729 195.548 204.837C195.383 204.945 195.19 205.001 194.993 205C194.796 204.999 194.604 204.939 194.44 204.829C194.277 204.719 194.15 204.563 194.075 204.381L180.075 170.382V170.381C180 170.199 179.981 169.998 180.02 169.805C180.058 169.611 180.153 169.433 180.293 169.293C180.432 169.153 180.61 169.058 180.804 169.02Z" stroke="url(#paint1_linear_34_52)" stroke-width="1.99994" style="mix-blend-mode:lighten"/>
</g>
<path d="M109.809 193.8H105.889V191.168C101.437 190.692 98.9728 188.508 98.9728 184.672V184.504H103.173V185.008C103.173 186.744 104.041 187.444 107.849 187.444C111.209 187.444 111.993 186.94 111.993 185.68C111.993 184.532 111.349 184.112 109.417 183.776L104.153 183.02C100.793 182.488 98.8048 180.808 98.8048 177.756C98.8048 175.18 100.737 172.464 105.889 172.016V169.44H109.809V172.128C113.925 172.8 115.857 175.208 115.857 178.568V178.736H111.629V178.344C111.629 176.552 110.705 175.796 106.981 175.796C103.957 175.796 103.033 176.384 103.033 177.588C103.033 178.68 103.649 179.072 105.217 179.352L110.481 180.192C114.681 180.864 116.193 182.908 116.193 185.484C116.193 188.172 114.345 190.636 109.809 191.168V193.8Z" fill="#CBCBCB"/>
<rect x="48" y="19" width="119" height="24" rx="4" fill="#EBEBEB"/>
</g>
<defs>
<filter id="filter0_i_34_52" x="-24" y="61" width="265" height="164" filterUnits="userSpaceOnUse" color-interpolation-filters="sRGB">
<feFlood flood-opacity="0" result="BackgroundImageFix"/>
<feBlend mode="normal" in="SourceGraphic" in2="BackgroundImageFix" result="shape"/>
<feColorMatrix in="SourceAlpha" type="matrix" values="0 0 0 0 0 0 0 0 0 0 0 0 0 0 0 0 0 0 127 0" result="hardAlpha"/>
<feOffset dx="-3" dy="4"/>
<feGaussianBlur stdDeviation="2"/>
<feComposite in2="hardAlpha" operator="arithmetic" k2="-1" k3="1"/>
<feColorMatrix type="matrix" values="0 0 0 0 0 0 0 0 0 0 0 0 0 0 0 0 0 0 0.06 0"/>
<feBlend mode="normal" in2="shape" result="effect1_innerShadow_34_52"/>
</filter>
<filter id="filter1_d_34_52" x="139.201" y="168" width="77.7993" height="75.7988" filterUnits="userSpaceOnUse" color-interpolation-filters="sRGB">
<feFlood flood-opacity="0" result="BackgroundImageFix"/>
<feColorMatrix in="SourceAlpha" type="matrix" values="0 0 0 0 0 0 0 0 0 0 0 0 0 0 0 0 0 0 127 0" result="hardAlpha"/>
<feOffset dx="-21.9993" dy="19.9994"/>
<feGaussianBlur stdDeviation="8.89972"/>
<feComposite in2="hardAlpha" operator="out"/>
<feColorMatrix type="matrix" values="0 0 0 0 0 0 0 0 0 0 0 0 0 0 0 0 0 0 0.2 0"/>
<feBlend mode="normal" in2="BackgroundImageFix" result="effect1_dropShadow_34_52"/>
<feBlend mode="normal" in="SourceGraphic" in2="effect1_dropShadow_34_52" result="shape"/>
</filter>
<linearGradient id="paint0_linear_34_52" x1="110" y1="36.676" x2="102.297" y2="227.157" gradientUnits="userSpaceOnUse">
<stop stop-color="#E3E3E3"/>
<stop offset="1" stop-color="#BDBDBD"/>
</linearGradient>
<linearGradient id="paint1_linear_34_52" x1="187.205" y1="161.523" x2="198" y2="206" gradientUnits="userSpaceOnUse">
<stop stop-color="white"/>
<stop offset="1" stop-color="white" stop-opacity="0.08"/>
</linearGradient>
<clipPath id="clip0_34_52">
<rect width="220" height="220" rx="16" fill="white"/>
</clipPath>
</defs>
</svg>
